<?xml version="1.0" encoding="UTF-8" standalone="no"?>
<!DOCTYPE svg PUBLIC "-//W3C//DTD SVG 1.1//EN" "http://www.w3.org/Graphics/SVG/1.1/DTD/svg11.dtd">
<svg width="100%" height="100%" viewBox="0 0 670 327" version="1.1" xmlns="http://www.w3.org/2000/svg" xmlns:xlink="http://www.w3.org/1999/xlink" xml:space="preserve" xmlns:serif="http://www.serif.com/" style="fill-rule:evenodd;clip-rule:evenodd;stroke-linejoin:round;stroke-miterlimit:2;">
    <g transform="matrix(0.93134,0,0,0.93134,34.786,12.6852)">
        <g transform="matrix(4.16667,0,0,4.16667,190.565,-504.264)">
            <path d="M43.068,136.207C43.061,135.834 42.798,135.678 42.469,135.86C42.321,135.943 42.183,136.08 42.076,136.242C41.94,136.447 41.852,136.691 41.849,136.91L41.857,137.035C41.905,137.337 42.149,137.451 42.448,137.285L42.672,137.16C42.48,137.266 42.322,137.193 42.291,136.998L42.285,136.917C42.288,136.775 42.345,136.618 42.432,136.486C42.502,136.381 42.59,136.292 42.686,136.239C42.899,136.122 43.069,136.222 43.073,136.463L43.068,136.207Z" style="fill:url(#_Linear1);"/>
        </g>
        <g transform="matrix(4.16667,0,0,4.16667,190.565,-504.264)">
            <path d="M41.706,135.888L41.659,135.907C41.562,135.961 41.482,136.097 41.48,136.21L41.488,136.269L41.721,137.025L41.695,136.822C41.701,136.428 41.978,135.958 42.315,135.772L42.476,135.708L41.706,135.888Z" style="fill:rgb(157,151,142);fill-rule:nonzero;"/>
        </g>
        <g transform="matrix(4.16667,0,0,4.16667,190.565,-504.264)">
            <path d="M42.734,135.736C42.626,135.674 42.479,135.681 42.315,135.772C41.978,135.958 41.701,136.428 41.695,136.822C41.692,137.024 41.761,137.167 41.875,137.233L42.029,137.321C41.915,137.256 41.846,137.113 41.849,136.91C41.855,136.517 42.132,136.047 42.469,135.86C42.633,135.77 42.78,135.763 42.888,135.825L42.734,135.736Z" style="fill:url(#_Linear2);"/>
        </g>
        <g transform="matrix(4.16667,0,0,4.16667,190.565,-504.264)">
            <path d="M42.956,136.216C42.887,136.176 42.792,136.181 42.686,136.239C42.469,136.36 42.289,136.663 42.285,136.917C42.284,137.048 42.328,137.14 42.402,137.183L42.842,137.435C42.768,137.393 42.724,137.301 42.725,137.17C42.729,136.916 42.909,136.612 43.126,136.492C43.232,136.433 43.327,136.429 43.396,136.469L42.956,136.216Z" style="fill:url(#_Linear3);"/>
        </g>
        <g transform="matrix(4.16667,0,0,4.16667,190.565,-504.264)">
            <path d="M43.103,136.505C42.896,136.634 42.729,136.925 42.725,137.17L42.719,137.41C42.725,137.03 42.983,136.58 43.303,136.381L43.103,136.505Z" style="fill:rgb(157,151,142);fill-rule:nonzero;"/>
        </g>
        <g transform="matrix(4.16667,0,0,4.16667,190.565,-504.264)">
            <path d="M43.758,136.324C43.65,136.262 43.503,136.269 43.34,136.36C43.003,136.546 42.725,137.016 42.719,137.41C42.716,137.612 42.786,137.755 42.9,137.82L47.964,140.725C47.849,140.659 47.78,140.517 47.783,140.314C47.789,139.92 48.067,139.45 48.403,139.264C48.567,139.174 48.714,139.167 48.822,139.228L43.758,136.324Z" style="fill:url(#_Linear4);"/>
        </g>
        <g transform="matrix(4.16667,0,0,4.16667,190.565,-504.264)">
            <path d="M54.46,141.881C53.721,142.289 53.112,143.32 53.099,144.183C53.086,145.046 53.675,145.414 54.413,145.006C55.152,144.597 55.761,143.566 55.774,142.703C55.787,141.84 55.198,141.472 54.46,141.881Z" style="fill:rgb(151,143,136);fill-rule:nonzero;"/>
        </g>
        <g transform="matrix(4.16667,0,0,4.16667,190.565,-504.264)">
            <path d="M54.413,145.006C53.675,145.414 53.086,145.046 53.099,144.183C53.112,143.32 53.721,142.289 54.46,141.881C55.198,141.472 55.787,141.84 55.774,142.703C55.761,143.566 55.152,144.597 54.413,145.006ZM55.25,141.422C54.986,141.3 54.64,141.329 54.258,141.54C53.414,142.007 52.719,143.185 52.704,144.171C52.697,144.646 52.849,144.989 53.117,145.176C53.481,145.398 53.862,145.385 54.353,145.133C55.183,144.667 55.828,143.577 55.853,142.598C55.861,142.278 55.794,141.701 55.25,141.422Z" style="fill:rgb(157,151,142);fill-rule:nonzero;"/>
        </g>
        <g transform="matrix(4.16667,0,0,4.16667,190.565,-504.264)">
            <path d="M49.132,138.593C48.941,138.505 48.689,138.526 48.412,138.679C47.799,139.019 47.293,139.874 47.283,140.591C47.277,140.936 47.388,141.185 47.572,141.314L53.102,145.166C52.849,144.989 52.697,144.646 52.704,144.171C52.719,143.185 53.414,142.007 54.258,141.54C54.64,141.329 54.986,141.3 55.25,141.422L49.132,138.593Z" style="fill:url(#_Linear5);"/>
        </g>
        <g transform="matrix(4.16667,0,0,4.16667,190.565,-504.264)">
            <path d="M55.629,141.816C55.491,141.731 55.111,141.499 54.463,141.847C53.416,142.41 52.771,144.05 53.261,144.902L53.377,145.091C53.448,145.182 53.529,145.259 53.629,145.305L59.328,147.94L60.782,145.405L55.629,141.816Z" style="fill:rgb(34,32,30);fill-rule:nonzero;"/>
        </g>
        <g transform="matrix(4.16667,0,0,4.16667,190.565,-504.264)">
            <path d="M60.035,145.443C59.464,145.759 58.993,146.556 58.983,147.224C58.973,147.891 59.428,148.176 59.999,147.86C60.571,147.544 61.042,146.747 61.052,146.079C61.062,145.412 60.607,145.127 60.035,145.443Z" style="fill:rgb(24,23,23);fill-rule:nonzero;"/>
        </g>
        <g transform="matrix(4.16667,0,0,4.16667,190.565,-504.264)">
            <path d="M87.736,165.087C87.387,165.087 87.048,164.904 86.865,164.578C86.593,164.098 86.763,163.487 87.244,163.216C92.581,160.2 95.305,156.367 94.531,152.963C93.923,150.287 91.273,148.406 87.779,148.171C85.423,148.012 83.399,148.852 81.065,149.824C76.552,151.703 71.437,153.834 62.372,149.205L59.944,147.804C59.465,147.528 59.302,146.917 59.578,146.438C59.853,145.959 60.464,145.795 60.944,146.072L63.327,147.448C71.525,151.632 75.983,149.775 80.296,147.978C82.756,146.953 85.08,145.983 87.914,146.176C92.309,146.471 95.673,148.962 96.481,152.519C97.462,156.833 94.376,161.483 88.227,164.957C88.072,165.045 87.903,165.087 87.736,165.087Z" style="fill:rgb(24,23,23);fill-rule:nonzero;"/>
        </g>
        <g transform="matrix(4.16667,0,0,4.16667,190.565,-504.264)">
            <path d="M67.137,192.184C66.967,192.184 66.795,192.141 66.638,192.05L58.401,187.295C49.614,182.221 45.576,177.709 46.401,173.883C47.057,170.842 50.721,168.839 56.719,168.244C63.877,167.532 71.906,169.613 79.669,171.625C90.393,174.404 100.522,177.029 108.54,173.019C111.723,171.428 113.286,169.445 112.829,167.579C112.296,165.402 109.285,163.78 105.886,163.86C102.06,163.923 97.467,164.962 92.604,166.063C86.731,167.392 80.658,168.766 74.598,168.836C74.039,168.836 73.593,168.396 73.586,167.847C73.58,167.295 74.023,166.842 74.575,166.836C80.423,166.769 86.391,165.418 92.163,164.112C97.129,162.988 101.821,161.926 105.852,161.86C110.229,161.776 114.011,163.992 114.772,167.103C115.102,168.452 115.244,171.904 109.434,174.808C100.746,179.153 89.776,176.309 79.168,173.561C71.574,171.593 63.72,169.558 56.916,170.234C52,170.722 48.8,172.244 48.356,174.305C48.075,175.61 48.588,179.32 59.401,185.563L67.638,190.318C68.116,190.594 68.28,191.206 68.004,191.684C67.818,192.005 67.482,192.184 67.137,192.184Z" style="fill:rgb(34,32,30);fill-rule:nonzero;"/>
        </g>
        <g transform="matrix(4.16667,0,0,4.16667,190.565,-504.264)">
            <path d="M65.685,127.974C56.663,127.974 47.641,129.957 40.772,133.923C34.307,137.655 30.746,142.559 30.746,147.729C30.746,152.899 34.307,157.802 40.772,161.535C54.508,169.466 76.86,169.466 90.598,161.535C97.063,157.802 100.624,152.899 100.624,147.729C100.624,142.559 97.063,137.655 90.598,133.923C83.729,129.957 74.707,127.974 65.685,127.974ZM65.685,169.454C56.299,169.455 46.917,167.392 39.772,163.267C32.662,159.162 28.746,153.644 28.746,147.729C28.746,141.814 32.662,136.296 39.772,132.191C54.06,123.942 77.309,123.942 91.598,132.191C98.708,136.296 102.624,141.814 102.624,147.729C102.624,153.644 98.708,159.162 91.598,163.267C84.454,167.391 75.068,169.454 65.685,169.454Z" style="fill:rgb(24,23,23);fill-rule:nonzero;"/>
        </g>
        <g transform="matrix(4.16667,0,0,4.16667,190.565,-504.264)">
            <path d="M66.863,124.215C57.841,124.215 48.819,126.197 41.951,130.163C35.485,133.896 31.924,138.799 31.924,143.969C31.924,149.139 35.485,154.042 41.951,157.775C55.688,165.707 78.04,165.706 91.776,157.775C98.242,154.042 101.803,149.139 101.803,143.969C101.803,138.799 98.242,133.896 91.776,130.163C84.908,126.197 75.886,124.215 66.863,124.215ZM66.863,165.694C57.479,165.694 48.095,163.632 40.951,159.508C33.84,155.402 29.924,149.883 29.924,143.969C29.924,138.054 33.84,132.536 40.951,128.43C55.239,120.181 78.488,120.181 92.776,128.43C99.887,132.536 103.803,138.054 103.803,143.969C103.803,149.883 99.887,155.402 92.776,159.508C85.632,163.632 76.248,165.694 66.863,165.694Z" style="fill:rgb(34,32,30);fill-rule:nonzero;"/>
        </g>
        <g transform="matrix(4.16667,0,0,4.16667,190.565,-504.264)">
            <path d="M61.014,123.6C51.992,123.6 42.97,125.583 36.101,129.549C29.636,133.281 26.075,138.184 26.075,143.355C26.075,148.525 29.636,153.428 36.101,157.16C49.838,165.092 72.189,165.092 85.927,157.16C92.392,153.428 95.953,148.525 95.953,143.355C95.953,138.184 92.392,133.281 85.927,129.549C79.058,125.583 70.036,123.6 61.014,123.6ZM61.014,165.08C51.628,165.08 42.246,163.018 35.101,158.893C27.991,154.787 24.075,149.269 24.075,143.355C24.075,137.44 27.991,131.922 35.101,127.816C49.391,119.568 72.64,119.568 86.927,127.816C94.037,131.922 97.953,137.44 97.953,143.355C97.953,149.269 94.037,154.787 86.927,158.893C79.783,163.017 70.397,165.079 61.014,165.08Z" style="fill:rgb(34,32,30);fill-rule:nonzero;"/>
        </g>
        <g transform="matrix(4.16667,0,0,4.16667,190.565,-504.264)">
            <path d="M64.036,123.609C54.745,123.609 45.454,125.65 38.381,129.734C31.717,133.582 28.047,138.637 28.047,143.969C28.047,149.301 31.717,154.357 38.381,158.204C52.527,166.372 75.545,166.372 89.691,158.204C96.355,154.357 100.026,149.301 100.026,143.969C100.026,138.637 96.355,133.582 89.691,129.734C82.618,125.65 73.327,123.609 64.036,123.609ZM64.036,166.3C54.383,166.3 44.73,164.179 37.381,159.936C30.072,155.716 26.047,150.046 26.047,143.969C26.047,137.892 30.072,132.222 37.381,128.002C52.08,119.516 75.995,119.516 90.691,128.002C98,132.222 102.026,137.892 102.026,143.969C102.026,150.046 98,155.716 90.691,159.936C83.343,164.179 73.689,166.3 64.036,166.3Z" style="fill:rgb(43,42,39);fill-rule:nonzero;"/>
        </g>
        <g transform="matrix(4.16667,0,0,4.16667,190.565,-504.264)">
            <path d="M62.064,125.978C52.773,125.978 43.482,128.019 36.409,132.103C29.745,135.95 26.075,141.006 26.075,146.338C26.075,151.67 29.745,156.725 36.409,160.573C50.556,168.742 73.575,168.741 87.719,160.573C94.383,156.725 98.053,151.67 98.053,146.338C98.053,141.006 94.383,135.95 87.719,132.103C80.646,128.019 71.355,125.978 62.064,125.978ZM62.064,168.67C52.411,168.67 42.758,166.548 35.409,162.305C28.1,158.085 24.075,152.415 24.075,146.338C24.075,140.261 28.1,134.591 35.409,130.371C50.107,121.885 74.022,121.885 88.719,130.371C96.028,134.591 100.054,140.261 100.054,146.338C100.054,152.415 96.028,158.085 88.719,162.305C81.371,166.548 71.717,168.67 62.064,168.67Z" style="fill:rgb(43,42,39);fill-rule:nonzero;"/>
        </g>
        <g transform="matrix(4.16667,0,0,4.16667,190.565,-504.264)">
            <path d="M66.677,122.994C57.386,122.994 48.095,125.036 41.021,129.12C34.357,132.967 30.687,138.022 30.687,143.355C30.687,148.687 34.357,153.742 41.021,157.589C55.168,165.757 78.185,165.757 92.332,157.589C98.996,153.742 102.666,148.687 102.666,143.355C102.666,138.022 98.996,132.967 92.332,129.12C85.259,125.036 75.968,122.994 66.677,122.994ZM66.677,165.686C57.022,165.686 47.371,163.565 40.021,159.321C32.713,155.102 28.687,149.431 28.687,143.355C28.687,137.278 32.713,131.607 40.021,127.387C54.719,118.902 78.634,118.902 93.332,127.387C100.641,131.607 104.666,137.278 104.666,143.355C104.666,149.431 100.641,155.102 93.332,159.321C85.984,163.564 76.329,165.685 66.677,165.686Z" style="fill:url(#_Radial6);"/>
        </g>
        <g transform="matrix(4.16667,0,0,4.16667,190.565,-504.264)">
            <path d="M63.446,187.342C63.261,187.257 63.019,187.278 62.752,187.426C62.161,187.753 61.674,188.577 61.664,189.267C61.659,189.599 61.765,189.84 61.943,189.964L67.271,193.675L69.34,190.068L63.446,187.342Z" style="fill:rgb(34,32,30);fill-rule:nonzero;"/>
        </g>
        <g transform="matrix(4.16667,0,0,4.16667,190.565,-504.264)">
            <path d="M68.128,190.048C66.919,190.697 66.191,192.698 66.962,193.529L69.365,190.004C69.231,189.923 68.824,189.674 68.128,190.048Z" style="fill:rgb(157,151,142);fill-rule:nonzero;"/>
        </g>
        <g transform="matrix(4.16667,0,0,4.16667,190.565,-504.264)">
            <path d="M69.38,190.014C69.106,189.824 68.715,189.827 68.277,190.07C67.434,190.537 66.738,191.714 66.723,192.7C66.715,193.24 66.913,193.611 67.233,193.759L73.35,196.587C73.118,196.48 72.974,196.211 72.979,195.818C72.99,195.102 73.496,194.246 74.109,193.907C74.427,193.731 74.711,193.728 74.91,193.867L69.38,190.014Z" style="fill:url(#_Linear7);"/>
        </g>
        <g transform="matrix(4.16667,0,0,4.16667,190.565,-504.264)">
            <path d="M67.633,190.595L73.684,194.241C73.816,194.105 73.959,193.99 74.109,193.907L74.341,193.807L68.621,189.928C68.511,189.959 68.396,190.004 68.277,190.07C68.047,190.197 67.83,190.38 67.633,190.595Z" style="fill:url(#_Linear8);"/>
        </g>
        <g transform="matrix(4.16667,0,0,4.16667,190.565,-504.264)">
            <path d="M74.109,193.907C73.496,194.246 72.99,195.102 72.979,195.818C72.969,196.534 73.457,196.84 74.07,196.501C74.683,196.162 75.189,195.306 75.2,194.59C75.21,193.873 74.722,193.567 74.109,193.907Z" style="fill:rgb(157,151,142);fill-rule:nonzero;"/>
        </g>
        <g transform="matrix(4.16667,0,0,4.16667,190.565,-504.264)">
            <path d="M79.162,197.395C79.016,197.476 78.881,197.61 78.774,197.769C78.635,197.975 78.545,198.222 78.542,198.445L78.551,198.578C78.602,198.874 78.845,198.984 79.141,198.82L79.354,198.688C79.163,198.794 79.006,198.723 78.974,198.532L78.967,198.445C78.97,198.302 79.028,198.142 79.117,198.009C79.186,197.907 79.274,197.82 79.368,197.767C79.586,197.647 79.759,197.755 79.755,198.01L79.761,197.77C79.767,197.376 79.499,197.208 79.162,197.395Z" style="fill:url(#_Linear9);"/>
        </g>
        <g transform="matrix(4.16667,0,0,4.16667,190.565,-504.264)">
            <path d="M74.519,194.456C74.411,194.394 74.264,194.401 74.1,194.491C73.763,194.678 73.486,195.148 73.48,195.541C73.477,195.744 73.546,195.887 73.66,195.952L78.723,198.856C78.608,198.79 78.539,198.647 78.542,198.445C78.548,198.051 78.825,197.581 79.162,197.395C79.326,197.304 79.473,197.297 79.581,197.359L74.519,194.456Z" style="fill:url(#_Linear10);"/>
        </g>
        <g transform="matrix(4.16667,0,0,4.16667,190.565,-504.264)">
            <path d="M79.638,197.744C79.569,197.704 79.474,197.709 79.368,197.767C79.151,197.888 78.971,198.191 78.967,198.445C78.966,198.576 79.01,198.669 79.084,198.711L79.526,198.964C79.452,198.922 79.407,198.83 79.409,198.699C79.413,198.445 79.592,198.141 79.81,198.021C79.915,197.962 80.01,197.958 80.08,197.998L79.638,197.744Z" style="fill:url(#_Linear11);"/>
        </g>
        <g transform="matrix(4.16667,0,0,4.16667,190.565,-504.264)">
            <path d="M80.034,197.895L79.81,198.021C79.592,198.141 79.413,198.445 79.409,198.699L79.414,198.973C79.42,198.551 79.697,198.081 80.034,197.895Z" style="fill:rgb(157,151,142);fill-rule:nonzero;"/>
        </g>
        <g transform="matrix(4.16667,0,0,4.16667,190.565,-504.264)">
            <path d="M80.827,198.861C80.73,198.915 80.65,199.05 80.648,199.164C80.646,199.278 80.724,199.327 80.821,199.273C80.919,199.219 80.999,199.083 81,198.969C81.002,198.855 80.925,198.807 80.827,198.861Z" style="fill:rgb(157,151,142);fill-rule:nonzero;"/>
        </g>
        <g transform="matrix(4.16667,0,0,4.16667,190.565,-504.264)">
            <path d="M80.762,198.156C80.687,197.913 80.46,197.833 80.188,197.983C80.009,198.083 79.846,198.262 79.733,198.468C79.633,198.648 79.571,198.849 79.568,199.033C79.568,199.367 79.753,199.532 80.007,199.472L80.775,199.291C80.701,199.308 80.648,199.261 80.648,199.168L80.696,199.001L80.827,198.861L80.993,198.911L80.762,198.156Z" style="fill:url(#_Linear12);"/>
        </g>
        <g transform="matrix(4.16667,0,0,4.16667,190.565,-504.264)">
            <path d="M80.453,197.859C80.345,197.797 80.198,197.804 80.034,197.895C79.697,198.081 79.42,198.551 79.414,198.945C79.411,199.147 79.48,199.29 79.595,199.356L79.749,199.444C79.634,199.379 79.565,199.236 79.568,199.033C79.574,198.64 79.852,198.17 80.188,197.983C80.352,197.893 80.499,197.886 80.607,197.948L80.453,197.859Z" style="fill:url(#_Linear13);"/>
        </g>
        <g transform="matrix(4.16667,0,0,4.16667,190.565,-504.264)">
            <path d="M100.86,150.491C100.589,150.868 100.256,151.322 99.832,151.81C99.427,152.311 98.908,152.825 98.36,153.395C97.785,153.941 97.166,154.535 96.445,155.09C95.762,155.688 94.946,156.196 94.151,156.784C93.313,157.307 92.452,157.865 91.534,158.35C90.6,158.806 89.687,159.342 88.696,159.716C87.725,160.131 86.764,160.575 85.768,160.884C84.782,161.215 83.826,161.591 82.858,161.816C81.896,162.059 80.979,162.348 80.093,162.553C79.2,162.737 78.357,162.91 77.578,163.07C76.801,163.244 76.081,163.36 75.44,163.448C74.8,163.544 74.242,163.627 73.782,163.696C72.862,163.834 72.336,163.913 72.336,163.913C72.336,163.913 72.865,163.865 73.792,163.78C74.255,163.737 74.819,163.686 75.465,163.627C76.113,163.578 76.842,163.504 77.626,163.347C78.414,163.212 79.268,163.065 80.171,162.91C81.07,162.732 82.004,162.477 82.975,162.233C83.953,162.017 84.923,161.648 85.923,161.324C86.932,161.021 87.91,160.585 88.897,160.173C89.895,159.784 90.818,159.231 91.758,158.759C92.683,158.257 93.55,157.682 94.394,157.142C95.2,156.545 96.003,155.996 96.678,155.368C97.389,154.784 97.998,154.162 98.561,153.591C99.103,153.001 99.593,152.451 99.972,151.922C100.371,151.407 100.68,150.931 100.93,150.537C101.416,149.74 101.624,149.249 101.624,149.249C101.624,149.249 101.387,149.727 100.86,150.491Z" style="fill:url(#_Radial14);"/>
        </g>
        <g transform="matrix(4.16667,0,0,4.16667,190.565,-504.264)">
            <path d="M51.369,123.528C49.94,123.894 48.28,124.367 46.546,125.009C44.811,125.647 43,126.441 41.256,127.37C40.385,127.838 39.544,128.36 38.73,128.892C37.922,129.436 37.15,130.005 36.434,130.595C34.999,131.775 33.829,133.071 32.943,134.259C32.731,134.563 32.527,134.854 32.334,135.131C32.163,135.422 32.002,135.699 31.85,135.959C31.543,136.476 31.346,136.965 31.149,137.347C30.833,138.147 30.653,138.604 30.653,138.604C30.653,138.604 30.861,138.16 31.225,137.383C31.445,137.015 31.669,136.544 32.005,136.052C32.324,135.548 32.717,135.006 33.167,134.43C34.073,133.282 35.289,132.077 36.708,130.931C37.418,130.359 38.185,129.808 38.986,129.282C39.795,128.766 40.63,128.263 41.493,127.81C44.915,125.928 48.632,124.635 51.443,123.798C54.26,122.96 56.194,122.598 56.194,122.598C56.194,122.598 55.707,122.656 54.858,122.799C54.012,122.947 52.8,123.162 51.369,123.528Z" style="fill:url(#_Radial15);"/>
        </g>
    </g>
    <g transform="matrix(0.70175,0,0,0.709731,-37.1538,-353.417)">
        <g transform="matrix(6.24573,0,0,6.17549,-942.418,-564.408)">
            <path d="M192.844,180.971C194.729,179.919 196.602,178.99 198.466,178.204C200.808,177.216 203.105,176.485 205.356,176.016C209.752,175.099 213.786,175.2 217.464,176.293C218.741,176.673 219.968,177.153 221.106,177.799C221.501,178.022 225.739,180.472 225.739,180.472C225.739,180.472 222.329,180.437 222.012,181.671C221.516,183.598 220.455,185.141 218.963,186.198C217.884,186.964 216.919,187.135 216.128,186.719C214.294,185.756 212.312,185.104 210.142,184.839C207.619,184.529 204.938,184.732 202.097,185.454C200.313,185.907 198.498,186.561 196.655,187.393C194.702,188.274 192.745,189.353 190.787,190.611C187.192,192.922 183.712,195.788 180.363,199.262C177.074,202.672 174.085,206.488 171.377,210.678C170.684,211.751 169.101,219.073 169.101,219.073C169.101,219.073 165.752,217.138 164.508,216.428C164.025,216.152 163.673,215.633 163.538,214.856C163.301,213.488 163.666,211.983 164.615,210.378C167.075,206.222 169.791,202.312 172.765,198.652C176.027,194.64 179.478,191.071 183.122,187.955C185.116,186.249 187.133,184.685 189.18,183.327C190.4,182.519 191.623,181.755 192.844,180.971Z" style="fill:rgb(59,67,107);"/>
        </g>
        <g transform="matrix(6.24573,0,0,6.17549,-942.418,-564.408)">
            <path d="M192.876,194.864C197.195,192.425 201.302,191.127 205.198,191.03C208.184,190.956 210.85,191.592 213.189,192.944C214.246,193.555 217.792,195.596 217.792,195.596C217.792,195.596 212.56,200.227 211.079,201.298C209.939,202.122 208.935,202.28 208.114,201.815C206.753,201.044 205.257,200.558 203.602,200.398C201.49,200.196 199.233,200.521 196.83,201.381C194.979,202.043 193.114,203.006 191.239,204.249C188.793,205.871 186.445,207.903 184.202,210.352C181.734,213.046 179.551,216.051 177.636,219.353C176.853,220.703 177.029,225.033 177.029,225.033C177.029,225.033 173.066,222.755 172.44,222.39C171.96,222.109 171.614,221.603 171.485,220.9C171.233,219.529 171.578,218.021 172.531,216.384C176.045,210.341 180.169,205.135 184.914,200.791C186.668,199.186 188.458,197.755 190.281,196.538C191.145,195.961 192.011,195.421 192.876,194.864Z" style="fill:rgb(59,67,107);"/>
        </g>
        <g transform="matrix(6.24573,0,0,6.17549,-942.418,-564.408)">
            <path d="M193.089,208.674C196.92,206.571 200.373,205.936 203.407,206.912C203.908,207.073 204.389,207.273 204.836,207.531C205.076,207.67 209.518,210.235 209.518,210.235C209.518,210.235 206.118,213.83 203.427,215.966C202.149,216.979 201.029,217.227 200.136,216.655C198.647,215.702 196.857,215.563 194.741,216.283C192.75,216.96 190.822,218.345 188.96,220.337C187.652,221.736 186.534,223.329 185.552,225.086C184.264,227.389 184.993,230.769 184.993,230.769C184.993,230.769 180.491,228.176 180.374,228.107C179.027,227.316 178.972,224.787 180.324,222.331C182.768,217.89 185.75,214.233 189.246,211.33C190.509,210.28 191.792,209.395 193.089,208.674Z" style="fill:rgb(59,67,107);"/>
        </g>
        <g transform="matrix(6.24573,0,0,6.17549,-942.418,-564.408)">
            <path d="M188.483,230.788C188.485,228.035 190.466,224.601 192.842,223.23C194.034,222.543 195.126,222.487 195.921,222.944C196.719,223.404 200.575,225.631 200.575,225.631L194.378,236.252C194.378,236.252 190.539,234.055 189.746,233.583C188.966,233.12 188.482,232.151 188.483,230.788Z" style="fill:rgb(59,67,107);"/>
        </g>
        <g transform="matrix(6.24573,0,0,6.17549,-942.418,-564.408)">
            <path d="M197.448,183.623C199.332,182.571 201.206,181.643 203.07,180.855C205.411,179.868 207.708,179.138 209.959,178.668C214.355,177.751 218.389,177.853 222.067,178.945C223.345,179.324 224.571,179.806 225.709,180.451C226.789,181.063 227.115,182.379 226.615,184.323C226.119,186.25 225.058,187.792 223.566,188.851C222.487,189.616 221.522,189.787 220.731,189.371C218.897,188.408 216.915,187.757 214.745,187.49C212.222,187.182 209.541,187.385 206.701,188.105C204.916,188.559 203.101,189.213 201.258,190.045C199.305,190.927 197.349,192.005 195.39,193.264C191.796,195.574 188.315,198.44 184.966,201.913C181.678,205.324 178.688,209.141 175.98,213.329C175.287,214.402 174.648,215.52 173.953,216.591C171.887,219.775 168.624,220.284 168.142,217.509C167.904,216.141 168.269,214.636 169.219,213.03C171.678,208.874 174.394,204.963 177.368,201.305C180.63,197.292 184.081,193.724 187.725,190.606C189.719,188.901 191.737,187.337 193.783,185.979C195.003,185.17 196.226,184.407 197.448,183.623Z" style="fill:rgb(0,168,252);"/>
        </g>
        <g transform="matrix(6.24573,0,0,6.17549,-942.418,-564.408)">
            <path d="M197.479,197.517C201.798,195.077 205.905,193.779 209.801,193.682C212.787,193.607 215.453,194.244 217.792,195.596C218.849,196.207 219.172,197.505 218.69,199.417C218.208,201.33 217.163,202.879 215.682,203.949C214.542,204.774 213.538,204.933 212.717,204.467C211.356,203.696 209.86,203.21 208.206,203.051C206.093,202.848 203.836,203.173 201.433,204.033C199.583,204.695 197.717,205.657 195.842,206.901C193.396,208.523 191.048,210.556 188.805,213.004C186.337,215.697 184.154,218.702 182.239,222.004C181.456,223.354 180.52,224.325 179.411,224.915C177.837,225.751 176.384,225.168 176.088,223.553C175.836,222.182 176.181,220.674 177.134,219.035C180.648,212.993 184.772,207.787 189.518,203.443C191.271,201.838 193.061,200.407 194.885,199.189C195.748,198.613 196.614,198.073 197.479,197.517Z" style="fill:rgb(0,168,252);"/>
        </g>
        <g transform="matrix(6.24573,0,0,6.17549,-942.418,-564.408)">
            <path d="M197.692,211.326C201.523,209.224 204.976,208.588 208.01,209.563C208.78,209.812 209.501,210.15 210.127,210.651C211.887,212.058 210.721,216.481 208.03,218.617C206.752,219.632 205.633,219.879 204.739,219.308C203.25,218.354 201.46,218.216 199.344,218.936C197.354,219.612 195.426,220.996 193.563,222.989C192.256,224.388 191.137,225.981 190.155,227.738C188.868,230.041 186.836,231.371 185.358,230.925C183.65,230.41 183.457,227.653 184.927,224.983C187.372,220.541 190.354,216.886 193.849,213.982C195.112,212.932 196.395,212.047 197.692,211.326Z" style="fill:rgb(0,168,252);"/>
        </g>
        <g transform="matrix(6.24573,0,0,6.17549,-942.418,-564.408)">
            <path d="M193.086,233.439C193.087,232.3 193.427,231.043 193.994,229.865C194.796,228.197 196.053,226.685 197.446,225.882C199.833,224.506 201.825,225.66 201.814,228.413C201.804,231.175 199.823,234.595 197.443,235.964C195.059,237.335 193.084,236.191 193.086,233.439Z" style="fill:rgb(0,168,252);"/>
        </g>
    </g>
    <defs>
        <linearGradient id="_Linear1" x1="0" y1="0" x2="1" y2="0" gradientUnits="userSpaceOnUse" gradientTransform="matrix(-0.862572,1.49402,-1.49402,-0.862572,42.8812,135.821)"><stop offset="0" style="stop-color:rgb(209,198,189);stop-opacity:1"/><stop offset="1" style="stop-color:rgb(185,177,168);stop-opacity:1"/></linearGradient>
        <linearGradient id="_Linear2" x1="0" y1="0" x2="1" y2="0" gradientUnits="userSpaceOnUse" gradientTransform="matrix(-0.862826,1.49446,-1.49446,-0.862826,42.5981,135.657)"><stop offset="0" style="stop-color:rgb(192,182,172);stop-opacity:1"/><stop offset="1" style="stop-color:rgb(167,159,151);stop-opacity:1"/></linearGradient>
        <linearGradient id="_Linear3" x1="0" y1="0" x2="1" y2="0" gradientUnits="userSpaceOnUse" gradientTransform="matrix(-0.557812,0.966158,-0.966158,-0.557812,43.0397,136.262)"><stop offset="0" style="stop-color:rgb(192,182,172);stop-opacity:1"/><stop offset="1" style="stop-color:rgb(167,159,151);stop-opacity:1"/></linearGradient>
        <linearGradient id="_Linear4" x1="0" y1="0" x2="1" y2="0" gradientUnits="userSpaceOnUse" gradientTransform="matrix(-0.870847,1.50835,-1.50835,-0.870847,46.0815,137.646)"><stop offset="0" style="stop-color:rgb(192,182,172);stop-opacity:1"/><stop offset="1" style="stop-color:rgb(167,159,151);stop-opacity:1"/></linearGradient>
        <linearGradient id="_Linear5" x1="0" y1="0" x2="1" y2="0" gradientUnits="userSpaceOnUse" gradientTransform="matrix(-2.15812,3.73797,-3.73797,-2.15812,51.9775,139.532)"><stop offset="0" style="stop-color:rgb(192,182,172);stop-opacity:1"/><stop offset="1" style="stop-color:rgb(167,159,151);stop-opacity:1"/></linearGradient>
        <radialGradient id="_Radial6" cx="0" cy="0" r="1" gradientUnits="userSpaceOnUse" gradientTransform="matrix(31.1599,0,0,31.1599,66.6771,143.354)"><stop offset="0" style="stop-color:rgb(43,42,39);stop-opacity:1"/><stop offset="1" style="stop-color:rgb(60,58,55);stop-opacity:1"/></radialGradient>
        <linearGradient id="_Linear7" x1="0" y1="0" x2="1" y2="0" gradientUnits="userSpaceOnUse" gradientTransform="matrix(-2.16093,3.74285,-3.74285,-2.16093,71.7264,191.366)"><stop offset="0" style="stop-color:rgb(192,182,172);stop-opacity:1"/><stop offset="1" style="stop-color:rgb(167,159,151);stop-opacity:1"/></linearGradient>
        <linearGradient id="_Linear8" x1="0" y1="0" x2="1" y2="0" gradientUnits="userSpaceOnUse" gradientTransform="matrix(-0.601843,1.04242,-1.04242,-0.601843,71.3803,191.52)"><stop offset="0" style="stop-color:rgb(228,216,205);stop-opacity:1"/><stop offset="1" style="stop-color:rgb(220,209,199);stop-opacity:1"/></linearGradient>
        <linearGradient id="_Linear9" x1="0" y1="0" x2="1" y2="0" gradientUnits="userSpaceOnUse" gradientTransform="matrix(-0.86258,1.49403,-1.49403,-0.86258,79.5722,197.354)"><stop offset="0" style="stop-color:rgb(209,198,189);stop-opacity:1"/><stop offset="1" style="stop-color:rgb(185,177,168);stop-opacity:1"/></linearGradient>
        <linearGradient id="_Linear10" x1="0" y1="0" x2="1" y2="0" gradientUnits="userSpaceOnUse" gradientTransform="matrix(-0.870847,1.50835,-1.50835,-0.870847,76.8412,195.777)"><stop offset="0" style="stop-color:rgb(192,182,172);stop-opacity:1"/><stop offset="1" style="stop-color:rgb(167,159,151);stop-opacity:1"/></linearGradient>
        <linearGradient id="_Linear11" x1="0" y1="0" x2="1" y2="0" gradientUnits="userSpaceOnUse" gradientTransform="matrix(-0.557786,0.966113,-0.966113,-0.557786,79.7224,197.791)"><stop offset="0" style="stop-color:rgb(192,182,172);stop-opacity:1"/><stop offset="1" style="stop-color:rgb(167,159,151);stop-opacity:1"/></linearGradient>
        <linearGradient id="_Linear12" x1="0" y1="0" x2="1" y2="0" gradientUnits="userSpaceOnUse" gradientTransform="matrix(-0.862217,1.4934,-1.4934,-0.862217,80.7459,198.028)"><stop offset="0" style="stop-color:rgb(209,198,189);stop-opacity:1"/><stop offset="1" style="stop-color:rgb(185,177,168);stop-opacity:1"/></linearGradient>
        <linearGradient id="_Linear13" x1="0" y1="0" x2="1" y2="0" gradientUnits="userSpaceOnUse" gradientTransform="matrix(-0.862853,1.4945,-1.4945,-0.862853,80.3173,197.78)"><stop offset="0" style="stop-color:rgb(192,182,172);stop-opacity:1"/><stop offset="1" style="stop-color:rgb(167,159,151);stop-opacity:1"/></linearGradient>
        <radialGradient id="_Radial14" cx="0" cy="0" r="1" gradientUnits="userSpaceOnUse" gradientTransform="matrix(11.5803,0,0,11.5803,86.9804,156.581)"><stop offset="0" style="stop-color:rgb(135,131,125);stop-opacity:1"/><stop offset="1" style="stop-color:rgb(60,58,55);stop-opacity:1"/></radialGradient>
        <radialGradient id="_Radial15" cx="0" cy="0" r="1" gradientUnits="userSpaceOnUse" gradientTransform="matrix(10.6569,0,0,10.6569,43.424,130.601)"><stop offset="0" style="stop-color:rgb(135,131,125);stop-opacity:1"/><stop offset="1" style="stop-color:rgb(60,58,55);stop-opacity:1"/></radialGradient>
    </defs>
</svg>
