<?xml version="1.0" encoding="UTF-8" standalone="no"?>
<!DOCTYPE svg PUBLIC "-//W3C//DTD SVG 1.1//EN" "http://www.w3.org/Graphics/SVG/1.1/DTD/svg11.dtd">
<svg width="100%" height="100%" viewBox="0 0 342 220" version="1.1" xmlns="http://www.w3.org/2000/svg" xmlns:xlink="http://www.w3.org/1999/xlink" xml:space="preserve" xmlns:serif="http://www.serif.com/" style="fill-rule:evenodd;clip-rule:evenodd;stroke-linejoin:round;stroke-miterlimit:2;">
    <g id="Artboard1" transform="matrix(1,0,0,1,39.8691,54.9814)">
        <rect x="-39.869" y="-54.981" width="341.745" height="219.804" style="fill:none;"/>
        <g transform="matrix(4.16667,0,0,4.16667,-122.94,-1254.53)">
            <path d="M67.692,321.558L66.46,320.842L67.764,320.089L68.996,320.805L67.692,321.558Z" style="fill:rgb(228,226,223);fill-rule:nonzero;"/>
        </g>
        <g transform="matrix(4.16667,0,0,4.16667,8.90328,-1331.44)">
            <path d="M67.692,321.558L66.46,320.842L67.764,320.089L68.996,320.805L67.692,321.558Z" style="fill:rgb(228,226,223);fill-rule:nonzero;"/>
        </g>
        <g transform="matrix(4.16667,0,0,4.16667,-122.94,-1254.53)">
            <path d="M65.011,320.158L63.779,319.442L66.46,320.842L67.692,321.558L65.011,320.158Z" style="fill:rgb(182,180,179);fill-rule:nonzero;"/>
        </g>
        <g transform="matrix(4.16667,0,0,4.16667,8.90328,-1331.44)">
            <path d="M65.011,320.158L63.779,319.442L66.46,320.842L67.692,321.558L65.011,320.158Z" style="fill:rgb(182,180,179);fill-rule:nonzero;"/>
        </g>
        <g transform="matrix(4.16667,0,0,4.16667,-122.94,-1254.53)">
            <path d="M62.485,321.902L61.252,321.186L61.251,320.901L62.484,321.618L62.485,321.902Z" style="fill:rgb(123,123,121);fill-rule:nonzero;"/>
        </g>
        <g transform="matrix(4.16667,0,0,4.16667,8.90328,-1331.44)">
            <path d="M62.485,321.902L61.252,321.186L61.251,320.901L62.484,321.618L62.485,321.902Z" style="fill:rgb(123,123,121);fill-rule:nonzero;"/>
        </g>
        <g transform="matrix(4.16667,0,0,4.16667,-122.94,-1254.53)">
            <path d="M62.484,321.618L61.251,320.901L63.779,319.442L65.011,320.158L62.484,321.618Z" style="fill:rgb(228,226,223);fill-rule:nonzero;"/>
        </g>
        <g transform="matrix(4.16667,0,0,4.16667,8.90328,-1331.44)">
            <path d="M62.484,321.618L61.251,320.901L63.779,319.442L65.011,320.158L62.484,321.618Z" style="fill:rgb(228,226,223);fill-rule:nonzero;"/>
        </g>
        <g transform="matrix(4.16667,0,0,4.16667,-122.94,-1254.53)">
            <path d="M65.011,320.158L67.692,321.558L68.996,320.805L68.997,321.09L67.592,321.901L64.914,320.5L62.485,321.902L62.484,321.618L65.011,320.158Z" style="fill:rgb(153,152,150);fill-rule:nonzero;"/>
        </g>
        <g transform="matrix(4.16667,0,0,4.16667,8.90328,-1331.44)">
            <path d="M65.011,320.158L67.692,321.558L68.996,320.805L68.997,321.09L67.592,321.901L64.914,320.5L62.485,321.902L62.484,321.618L65.011,320.158Z" style="fill:rgb(153,152,150);fill-rule:nonzero;"/>
        </g>
        <g transform="matrix(4.16667,0,0,4.16667,-122.94,-1254.53)">
            <path d="M65.486,320.289L64.253,319.573L65.558,318.82L66.79,319.536L65.486,320.289Z" style="fill:rgb(228,226,223);fill-rule:nonzero;"/>
        </g>
        <g transform="matrix(4.16667,0,0,4.16667,8.90328,-1331.44)">
            <path d="M65.486,320.289L64.253,319.573L65.558,318.82L66.79,319.536L65.486,320.289Z" style="fill:rgb(228,226,223);fill-rule:nonzero;"/>
        </g>
        <g transform="matrix(4.16667,0,0,4.16667,-122.94,-1254.53)">
            <path d="M62.805,318.889L61.573,318.173L64.253,319.573L65.486,320.289L62.805,318.889Z" style="fill:rgb(182,180,179);fill-rule:nonzero;"/>
        </g>
        <g transform="matrix(4.16667,0,0,4.16667,8.90328,-1331.44)">
            <path d="M62.805,318.889L61.573,318.173L64.253,319.573L65.486,320.289L62.805,318.889Z" style="fill:rgb(182,180,179);fill-rule:nonzero;"/>
        </g>
        <g transform="matrix(4.16667,0,0,4.16667,-122.94,-1254.53)">
            <path d="M60.278,320.633L59.046,319.917L59.045,319.632L60.278,320.348L60.278,320.633Z" style="fill:rgb(123,123,121);fill-rule:nonzero;"/>
        </g>
        <g transform="matrix(4.16667,0,0,4.16667,8.90328,-1331.44)">
            <path d="M60.278,320.633L59.046,319.917L59.045,319.632L60.278,320.348L60.278,320.633Z" style="fill:rgb(123,123,121);fill-rule:nonzero;"/>
        </g>
        <g transform="matrix(4.16667,0,0,4.16667,-122.94,-1254.53)">
            <path d="M60.278,320.348L59.045,319.632L61.573,318.173L62.805,318.889L60.278,320.348Z" style="fill:rgb(228,226,223);fill-rule:nonzero;"/>
        </g>
        <g transform="matrix(4.16667,0,0,4.16667,8.90328,-1331.44)">
            <path d="M60.278,320.348L59.045,319.632L61.573,318.173L62.805,318.889L60.278,320.348Z" style="fill:rgb(228,226,223);fill-rule:nonzero;"/>
        </g>
        <g transform="matrix(4.16667,0,0,4.16667,-122.94,-1254.53)">
            <path d="M62.805,318.889L65.486,320.289L66.79,319.536L66.791,319.821L65.386,320.632L62.708,319.231L60.278,320.633L60.278,320.348L62.805,318.889Z" style="fill:rgb(153,152,150);fill-rule:nonzero;"/>
        </g>
        <g transform="matrix(4.16667,0,0,4.16667,8.90328,-1331.44)">
            <path d="M62.805,318.889L65.486,320.289L66.79,319.536L66.791,319.821L65.386,320.632L62.708,319.231L60.278,320.633L60.278,320.348L62.805,318.889Z" style="fill:rgb(153,152,150);fill-rule:nonzero;"/>
        </g>
        <g transform="matrix(4.16667,0,0,4.16667,-122.94,-1254.53)">
            <path d="M63.28,319.012L62.047,318.296L63.351,317.543L64.584,318.259L63.28,319.012Z" style="fill:rgb(228,226,223);fill-rule:nonzero;"/>
        </g>
        <g transform="matrix(4.16667,0,0,4.16667,8.90328,-1331.44)">
            <path d="M63.28,319.012L62.047,318.296L63.351,317.543L64.584,318.259L63.28,319.012Z" style="fill:rgb(228,226,223);fill-rule:nonzero;"/>
        </g>
        <g transform="matrix(4.16667,0,0,4.16667,-122.94,-1254.53)">
            <path d="M60.599,317.612L59.367,316.896L62.047,318.296L63.28,319.012L60.599,317.612Z" style="fill:rgb(182,180,179);fill-rule:nonzero;"/>
        </g>
        <g transform="matrix(4.16667,0,0,4.16667,8.90328,-1331.44)">
            <path d="M60.599,317.612L59.367,316.896L62.047,318.296L63.28,319.012L60.599,317.612Z" style="fill:rgb(182,180,179);fill-rule:nonzero;"/>
        </g>
        <g transform="matrix(4.16667,0,0,4.16667,-122.94,-1254.53)">
            <path d="M58.072,319.356L56.84,318.64L56.839,318.355L58.071,319.071L58.072,319.356Z" style="fill:rgb(123,123,121);fill-rule:nonzero;"/>
        </g>
        <g transform="matrix(4.16667,0,0,4.16667,8.90328,-1331.44)">
            <path d="M58.072,319.356L56.84,318.64L56.839,318.355L58.071,319.071L58.072,319.356Z" style="fill:rgb(123,123,121);fill-rule:nonzero;"/>
        </g>
        <g transform="matrix(4.16667,0,0,4.16667,-122.94,-1254.53)">
            <path d="M58.071,319.071L56.839,318.355L59.367,316.896L60.599,317.612L58.071,319.071Z" style="fill:rgb(228,226,223);fill-rule:nonzero;"/>
        </g>
        <g transform="matrix(4.16667,0,0,4.16667,8.90328,-1331.44)">
            <path d="M58.071,319.071L56.839,318.355L59.367,316.896L60.599,317.612L58.071,319.071Z" style="fill:rgb(228,226,223);fill-rule:nonzero;"/>
        </g>
        <g transform="matrix(4.16667,0,0,4.16667,-122.94,-1254.53)">
            <path d="M60.599,317.612L63.28,319.012L64.584,318.259L64.585,318.544L63.18,319.355L60.501,317.954L58.072,319.356L58.071,319.071L60.599,317.612Z" style="fill:rgb(153,152,150);fill-rule:nonzero;"/>
        </g>
        <g transform="matrix(4.16667,0,0,4.16667,8.90328,-1331.44)">
            <path d="M60.599,317.612L63.28,319.012L64.584,318.259L64.585,318.544L63.18,319.355L60.501,317.954L58.072,319.356L58.071,319.071L60.599,317.612Z" style="fill:rgb(153,152,150);fill-rule:nonzero;"/>
        </g>
        <g transform="matrix(4.16667,0,0,4.16667,-122.94,-1254.53)">
            <path d="M61.074,317.743L59.841,317.026L61.145,316.274L62.378,316.99L61.074,317.743Z" style="fill:rgb(228,226,223);fill-rule:nonzero;"/>
        </g>
        <g transform="matrix(4.16667,0,0,4.16667,8.90328,-1331.44)">
            <path d="M61.074,317.743L59.841,317.026L61.145,316.274L62.378,316.99L61.074,317.743Z" style="fill:rgb(228,226,223);fill-rule:nonzero;"/>
        </g>
        <g transform="matrix(4.16667,0,0,4.16667,-122.94,-1254.53)">
            <path d="M58.393,316.343L57.16,315.627L59.841,317.026L61.074,317.743L58.393,316.343Z" style="fill:rgb(182,180,179);fill-rule:nonzero;"/>
        </g>
        <g transform="matrix(4.16667,0,0,4.16667,8.90328,-1331.44)">
            <path d="M58.393,316.343L57.16,315.627L59.841,317.026L61.074,317.743L58.393,316.343Z" style="fill:rgb(182,180,179);fill-rule:nonzero;"/>
        </g>
        <g transform="matrix(4.16667,0,0,4.16667,-122.94,-1254.53)">
            <path d="M55.866,318.087L54.634,317.371L54.633,317.086L55.865,317.802L55.866,318.087Z" style="fill:rgb(123,123,121);fill-rule:nonzero;"/>
        </g>
        <g transform="matrix(4.16667,0,0,4.16667,8.90328,-1331.44)">
            <path d="M55.866,318.087L54.634,317.371L54.633,317.086L55.865,317.802L55.866,318.087Z" style="fill:rgb(123,123,121);fill-rule:nonzero;"/>
        </g>
        <g transform="matrix(4.16667,0,0,4.16667,-122.94,-1254.53)">
            <path d="M55.865,317.802L54.633,317.086L57.16,315.627L58.393,316.343L55.865,317.802Z" style="fill:rgb(228,226,223);fill-rule:nonzero;"/>
        </g>
        <g transform="matrix(4.16667,0,0,4.16667,8.90328,-1331.44)">
            <path d="M55.865,317.802L54.633,317.086L57.16,315.627L58.393,316.343L55.865,317.802Z" style="fill:rgb(228,226,223);fill-rule:nonzero;"/>
        </g>
        <g transform="matrix(4.16667,0,0,4.16667,-122.94,-1254.53)">
            <path d="M58.393,316.343L61.074,317.743L62.378,316.99L62.378,317.275L60.974,318.085L58.295,316.685L55.866,318.087L55.865,317.802L58.393,316.343Z" style="fill:rgb(153,152,150);fill-rule:nonzero;"/>
        </g>
        <g transform="matrix(4.16667,0,0,4.16667,8.90328,-1331.44)">
            <path d="M58.393,316.343L61.074,317.743L62.378,316.99L62.378,317.275L60.974,318.085L58.295,316.685L55.866,318.087L55.865,317.802L58.393,316.343Z" style="fill:rgb(153,152,150);fill-rule:nonzero;"/>
        </g>
        <g transform="matrix(4.16667,0,0,4.16667,-122.94,-1254.53)">
            <path d="M58.868,316.185L57.635,315.469L58.939,314.716L60.172,315.432L58.868,316.185Z" style="fill:rgb(228,226,223);fill-rule:nonzero;"/>
        </g>
        <g transform="matrix(4.16667,0,0,4.16667,8.90328,-1331.44)">
            <path d="M58.868,316.185L57.635,315.469L58.939,314.716L60.172,315.432L58.868,316.185Z" style="fill:rgb(228,226,223);fill-rule:nonzero;"/>
        </g>
        <g transform="matrix(4.16667,0,0,4.16667,-122.94,-1254.53)">
            <path d="M56.187,314.785L54.954,314.069L57.635,315.469L58.868,316.185L56.187,314.785Z" style="fill:rgb(182,180,179);fill-rule:nonzero;"/>
        </g>
        <g transform="matrix(4.16667,0,0,4.16667,8.90328,-1331.44)">
            <path d="M56.187,314.785L54.954,314.069L57.635,315.469L58.868,316.185L56.187,314.785Z" style="fill:rgb(182,180,179);fill-rule:nonzero;"/>
        </g>
        <g transform="matrix(4.16667,0,0,4.16667,-122.94,-1254.53)">
            <path d="M53.66,316.529L52.428,315.813L52.427,315.528L53.659,316.245L53.66,316.529Z" style="fill:rgb(123,123,121);fill-rule:nonzero;"/>
        </g>
        <g transform="matrix(4.16667,0,0,4.16667,8.90328,-1331.44)">
            <path d="M53.66,316.529L52.428,315.813L52.427,315.528L53.659,316.245L53.66,316.529Z" style="fill:rgb(123,123,121);fill-rule:nonzero;"/>
        </g>
        <g transform="matrix(4.16667,0,0,4.16667,-122.94,-1254.53)">
            <path d="M53.659,316.245L52.427,315.528L54.954,314.069L56.187,314.785L53.659,316.245Z" style="fill:rgb(228,226,223);fill-rule:nonzero;"/>
        </g>
        <g transform="matrix(4.16667,0,0,4.16667,8.90328,-1331.44)">
            <path d="M53.659,316.245L52.427,315.528L54.954,314.069L56.187,314.785L53.659,316.245Z" style="fill:rgb(228,226,223);fill-rule:nonzero;"/>
        </g>
        <g transform="matrix(4.16667,0,0,4.16667,-122.94,-1254.53)">
            <path d="M56.187,314.785L58.868,316.185L60.172,315.432L60.172,315.717L58.768,316.528L56.089,315.127L53.66,316.529L53.659,316.245L56.187,314.785Z" style="fill:rgb(153,152,150);fill-rule:nonzero;"/>
        </g>
        <g transform="matrix(4.16667,0,0,4.16667,8.90328,-1331.44)">
            <path d="M56.187,314.785L58.868,316.185L60.172,315.432L60.172,315.717L58.768,316.528L56.089,315.127L53.66,316.529L53.659,316.245L56.187,314.785Z" style="fill:rgb(153,152,150);fill-rule:nonzero;"/>
        </g>
        <g transform="matrix(4.16667,0,0,4.16667,-122.94,-1254.53)">
            <path d="M56.661,314.916L55.429,314.2L56.733,313.447L57.965,314.163L56.661,314.916Z" style="fill:rgb(228,226,223);fill-rule:nonzero;"/>
        </g>
        <g transform="matrix(4.16667,0,0,4.16667,8.90328,-1331.44)">
            <path d="M56.661,314.916L55.429,314.2L56.733,313.447L57.965,314.163L56.661,314.916Z" style="fill:rgb(228,226,223);fill-rule:nonzero;"/>
        </g>
        <g transform="matrix(4.16667,0,0,4.16667,-122.94,-1254.53)">
            <path d="M53.981,313.516L52.748,312.8L55.429,314.2L56.661,314.916L53.981,313.516Z" style="fill:rgb(182,180,179);fill-rule:nonzero;"/>
        </g>
        <g transform="matrix(4.16667,0,0,4.16667,8.90328,-1331.44)">
            <path d="M53.981,313.516L52.748,312.8L55.429,314.2L56.661,314.916L53.981,313.516Z" style="fill:rgb(182,180,179);fill-rule:nonzero;"/>
        </g>
        <g transform="matrix(4.16667,0,0,4.16667,-122.94,-1254.53)">
            <path d="M51.454,315.26L50.222,314.544L50.221,314.259L51.453,314.975L51.454,315.26Z" style="fill:rgb(123,123,121);fill-rule:nonzero;"/>
        </g>
        <g transform="matrix(4.16667,0,0,4.16667,8.90328,-1331.44)">
            <path d="M51.454,315.26L50.222,314.544L50.221,314.259L51.453,314.975L51.454,315.26Z" style="fill:rgb(123,123,121);fill-rule:nonzero;"/>
        </g>
        <g transform="matrix(4.16667,0,0,4.16667,-122.94,-1254.53)">
            <path d="M51.453,314.975L50.221,314.259L52.748,312.8L53.981,313.516L51.453,314.975Z" style="fill:rgb(228,226,223);fill-rule:nonzero;"/>
        </g>
        <g transform="matrix(4.16667,0,0,4.16667,8.90328,-1331.44)">
            <path d="M51.453,314.975L50.221,314.259L52.748,312.8L53.981,313.516L51.453,314.975Z" style="fill:rgb(228,226,223);fill-rule:nonzero;"/>
        </g>
        <g transform="matrix(4.16667,0,0,4.16667,-122.94,-1254.53)">
            <path d="M53.981,313.516L56.661,314.916L57.965,314.163L57.966,314.448L56.562,315.259L53.883,313.858L51.454,315.26L51.453,314.975L53.981,313.516Z" style="fill:rgb(153,152,150);fill-rule:nonzero;"/>
        </g>
        <g transform="matrix(4.16667,0,0,4.16667,8.90328,-1331.44)">
            <path d="M53.981,313.516L56.661,314.916L57.965,314.163L57.966,314.448L56.562,315.259L53.883,313.858L51.454,315.26L51.453,314.975L53.981,313.516Z" style="fill:rgb(153,152,150);fill-rule:nonzero;"/>
        </g>
        <g transform="matrix(4.16667,0,0,4.16667,-122.94,-1254.53)">
            <path d="M54.455,313.639L53.223,312.923L54.527,312.17L55.759,312.886L54.455,313.639Z" style="fill:rgb(228,226,223);fill-rule:nonzero;"/>
        </g>
        <g transform="matrix(4.16667,0,0,4.16667,8.90328,-1331.44)">
            <path d="M54.455,313.639L53.223,312.923L54.527,312.17L55.759,312.886L54.455,313.639Z" style="fill:rgb(228,226,223);fill-rule:nonzero;"/>
        </g>
        <g transform="matrix(4.16667,0,0,4.16667,-122.94,-1254.53)">
            <path d="M51.774,312.239L50.542,311.523L53.223,312.923L54.455,313.639L51.774,312.239Z" style="fill:rgb(182,180,179);fill-rule:nonzero;"/>
        </g>
        <g transform="matrix(4.16667,0,0,4.16667,8.90328,-1331.44)">
            <path d="M51.774,312.239L50.542,311.523L53.223,312.923L54.455,313.639L51.774,312.239Z" style="fill:rgb(182,180,179);fill-rule:nonzero;"/>
        </g>
        <g transform="matrix(4.16667,0,0,4.16667,-122.94,-1254.53)">
            <path d="M49.248,313.983L48.016,313.267L48.015,312.982L49.247,313.698L49.248,313.983Z" style="fill:rgb(123,123,121);fill-rule:nonzero;"/>
        </g>
        <g transform="matrix(4.16667,0,0,4.16667,8.90328,-1331.44)">
            <path d="M49.248,313.983L48.016,313.267L48.015,312.982L49.247,313.698L49.248,313.983Z" style="fill:rgb(123,123,121);fill-rule:nonzero;"/>
        </g>
        <g transform="matrix(4.16667,0,0,4.16667,-122.94,-1254.53)">
            <path d="M49.247,313.698L48.015,312.982L50.542,311.523L51.774,312.239L49.247,313.698Z" style="fill:rgb(228,226,223);fill-rule:nonzero;"/>
        </g>
        <g transform="matrix(4.16667,0,0,4.16667,8.90328,-1331.44)">
            <path d="M49.247,313.698L48.015,312.982L50.542,311.523L51.774,312.239L49.247,313.698Z" style="fill:rgb(228,226,223);fill-rule:nonzero;"/>
        </g>
        <g transform="matrix(4.16667,0,0,4.16667,-122.94,-1254.53)">
            <path d="M51.774,312.239L54.455,313.639L55.759,312.886L55.76,313.171L54.356,313.981L51.677,312.581L49.248,313.983L49.247,313.698L51.774,312.239Z" style="fill:rgb(153,152,150);fill-rule:nonzero;"/>
        </g>
        <g transform="matrix(4.16667,0,0,4.16667,8.90328,-1331.44)">
            <path d="M51.774,312.239L54.455,313.639L55.759,312.886L55.76,313.171L54.356,313.981L51.677,312.581L49.248,313.983L49.247,313.698L51.774,312.239Z" style="fill:rgb(153,152,150);fill-rule:nonzero;"/>
        </g>
        <g transform="matrix(4.16667,0,0,4.16667,-122.94,-1254.53)">
            <path d="M52.249,312.37L51.017,311.653L52.321,310.901L53.553,311.617L52.249,312.37Z" style="fill:rgb(228,226,223);fill-rule:nonzero;"/>
        </g>
        <g transform="matrix(4.16667,0,0,4.16667,8.90328,-1331.44)">
            <path d="M52.249,312.37L51.017,311.653L52.321,310.901L53.553,311.617L52.249,312.37Z" style="fill:rgb(228,226,223);fill-rule:nonzero;"/>
        </g>
        <g transform="matrix(4.16667,0,0,4.16667,-122.94,-1254.53)">
            <path d="M49.568,310.97L48.336,310.254L51.017,311.653L52.249,312.37L49.568,310.97Z" style="fill:rgb(182,180,179);fill-rule:nonzero;"/>
        </g>
        <g transform="matrix(4.16667,0,0,4.16667,8.90328,-1331.44)">
            <path d="M49.568,310.97L48.336,310.254L51.017,311.653L52.249,312.37L49.568,310.97Z" style="fill:rgb(182,180,179);fill-rule:nonzero;"/>
        </g>
        <g transform="matrix(4.16667,0,0,4.16667,-122.94,-1254.53)">
            <path d="M47.042,312.714L45.809,311.998L45.809,311.713L47.041,312.429L47.042,312.714Z" style="fill:rgb(123,123,121);fill-rule:nonzero;"/>
        </g>
        <g transform="matrix(4.16667,0,0,4.16667,8.90328,-1331.44)">
            <path d="M47.042,312.714L45.809,311.998L45.809,311.713L47.041,312.429L47.042,312.714Z" style="fill:rgb(123,123,121);fill-rule:nonzero;"/>
        </g>
        <g transform="matrix(4.16667,0,0,4.16667,-122.94,-1254.53)">
            <path d="M47.041,312.429L45.809,311.713L48.336,310.254L49.568,310.97L47.041,312.429Z" style="fill:rgb(228,226,223);fill-rule:nonzero;"/>
        </g>
        <g transform="matrix(4.16667,0,0,4.16667,8.90328,-1331.44)">
            <path d="M47.041,312.429L45.809,311.713L48.336,310.254L49.568,310.97L47.041,312.429Z" style="fill:rgb(228,226,223);fill-rule:nonzero;"/>
        </g>
        <g transform="matrix(4.16667,0,0,4.16667,-122.94,-1254.53)">
            <path d="M49.568,310.97L52.249,312.37L53.553,311.617L53.554,311.901L52.15,312.712L49.471,311.311L47.042,312.714L47.041,312.429L49.568,310.97Z" style="fill:rgb(153,152,150);fill-rule:nonzero;"/>
        </g>
        <g transform="matrix(4.16667,0,0,4.16667,8.90328,-1331.44)">
            <path d="M49.568,310.97L52.249,312.37L53.553,311.617L53.554,311.901L52.15,312.712L49.471,311.311L47.042,312.714L47.041,312.429L49.568,310.97Z" style="fill:rgb(153,152,150);fill-rule:nonzero;"/>
        </g>
        <g transform="matrix(4.16667,0,0,4.16667,-122.94,-1254.53)">
            <path d="M22.609,321.558L23.841,320.842L22.537,320.089L21.305,320.805L22.609,321.558Z" style="fill:rgb(228,226,223);fill-rule:nonzero;"/>
        </g>
        <g transform="matrix(4.16667,0,0,4.16667,8.90328,-1331.44)">
            <path d="M22.609,321.558L23.841,320.842L22.537,320.089L21.305,320.805L22.609,321.558Z" style="fill:rgb(228,226,223);fill-rule:nonzero;"/>
        </g>
        <g transform="matrix(4.16667,0,0,4.16667,-122.94,-1254.53)">
            <path d="M25.29,320.158L26.522,319.442L23.841,320.842L22.609,321.558L25.29,320.158Z" style="fill:rgb(182,180,179);fill-rule:nonzero;"/>
        </g>
        <g transform="matrix(4.16667,0,0,4.16667,8.90328,-1331.44)">
            <path d="M25.29,320.158L26.522,319.442L23.841,320.842L22.609,321.558L25.29,320.158Z" style="fill:rgb(182,180,179);fill-rule:nonzero;"/>
        </g>
        <g transform="matrix(4.16667,0,0,4.16667,-122.94,-1254.53)">
            <path d="M27.816,321.902L29.048,321.186L29.049,320.901L27.817,321.618L27.816,321.902Z" style="fill:rgb(123,123,121);fill-rule:nonzero;"/>
        </g>
        <g transform="matrix(4.16667,0,0,4.16667,8.90328,-1331.44)">
            <path d="M27.816,321.902L29.048,321.186L29.049,320.901L27.817,321.618L27.816,321.902Z" style="fill:rgb(123,123,121);fill-rule:nonzero;"/>
        </g>
        <g transform="matrix(4.16667,0,0,4.16667,-122.94,-1254.53)">
            <path d="M27.817,321.618L29.049,320.901L26.522,319.442L25.29,320.158L27.817,321.618Z" style="fill:rgb(228,226,223);fill-rule:nonzero;"/>
        </g>
        <g transform="matrix(4.16667,0,0,4.16667,8.90328,-1331.44)">
            <path d="M27.817,321.618L29.049,320.901L26.522,319.442L25.29,320.158L27.817,321.618Z" style="fill:rgb(228,226,223);fill-rule:nonzero;"/>
        </g>
        <g transform="matrix(4.16667,0,0,4.16667,-122.94,-1254.53)">
            <path d="M25.29,320.158L22.609,321.558L21.305,320.805L21.304,321.09L22.708,321.901L25.387,320.5L27.816,321.902L27.817,321.618L25.29,320.158Z" style="fill:rgb(153,152,150);fill-rule:nonzero;"/>
        </g>
        <g transform="matrix(4.16667,0,0,4.16667,8.90328,-1331.44)">
            <path d="M25.29,320.158L22.609,321.558L21.305,320.805L21.304,321.09L22.708,321.901L25.387,320.5L27.816,321.902L27.817,321.618L25.29,320.158Z" style="fill:rgb(153,152,150);fill-rule:nonzero;"/>
        </g>
        <g transform="matrix(4.16667,0,0,4.16667,-122.94,-1254.53)">
            <path d="M24.815,320.289L26.047,319.573L24.743,318.82L23.511,319.536L24.815,320.289Z" style="fill:rgb(228,226,223);fill-rule:nonzero;"/>
        </g>
        <g transform="matrix(4.16667,0,0,4.16667,8.90328,-1331.44)">
            <path d="M24.815,320.289L26.047,319.573L24.743,318.82L23.511,319.536L24.815,320.289Z" style="fill:rgb(228,226,223);fill-rule:nonzero;"/>
        </g>
        <g transform="matrix(4.16667,0,0,4.16667,-122.94,-1254.53)">
            <path d="M27.496,318.889L28.728,318.173L26.047,319.573L24.815,320.289L27.496,318.889Z" style="fill:rgb(182,180,179);fill-rule:nonzero;"/>
        </g>
        <g transform="matrix(4.16667,0,0,4.16667,8.90328,-1331.44)">
            <path d="M27.496,318.889L28.728,318.173L26.047,319.573L24.815,320.289L27.496,318.889Z" style="fill:rgb(182,180,179);fill-rule:nonzero;"/>
        </g>
        <g transform="matrix(4.16667,0,0,4.16667,-122.94,-1254.53)">
            <path d="M30.022,320.633L31.255,319.917L31.255,319.632L30.023,320.348L30.022,320.633Z" style="fill:rgb(123,123,121);fill-rule:nonzero;"/>
        </g>
        <g transform="matrix(4.16667,0,0,4.16667,8.90328,-1331.44)">
            <path d="M30.022,320.633L31.255,319.917L31.255,319.632L30.023,320.348L30.022,320.633Z" style="fill:rgb(123,123,121);fill-rule:nonzero;"/>
        </g>
        <g transform="matrix(4.16667,0,0,4.16667,-122.94,-1254.53)">
            <path d="M30.023,320.348L31.255,319.632L28.728,318.173L27.496,318.889L30.023,320.348Z" style="fill:rgb(228,226,223);fill-rule:nonzero;"/>
        </g>
        <g transform="matrix(4.16667,0,0,4.16667,8.90328,-1331.44)">
            <path d="M30.023,320.348L31.255,319.632L28.728,318.173L27.496,318.889L30.023,320.348Z" style="fill:rgb(228,226,223);fill-rule:nonzero;"/>
        </g>
        <g transform="matrix(4.16667,0,0,4.16667,-122.94,-1254.53)">
            <path d="M27.496,318.889L24.815,320.289L23.511,319.536L23.51,319.821L24.914,320.632L27.593,319.231L30.022,320.633L30.023,320.348L27.496,318.889Z" style="fill:rgb(153,152,150);fill-rule:nonzero;"/>
        </g>
        <g transform="matrix(4.16667,0,0,4.16667,8.90328,-1331.44)">
            <path d="M27.496,318.889L24.815,320.289L23.511,319.536L23.51,319.821L24.914,320.632L27.593,319.231L30.022,320.633L30.023,320.348L27.496,318.889Z" style="fill:rgb(153,152,150);fill-rule:nonzero;"/>
        </g>
        <g transform="matrix(4.16667,0,0,4.16667,-122.94,-1254.53)">
            <path d="M27.021,319.012L28.253,318.296L26.949,317.543L25.717,318.259L27.021,319.012Z" style="fill:rgb(228,226,223);fill-rule:nonzero;"/>
        </g>
        <g transform="matrix(4.16667,0,0,4.16667,8.90328,-1331.44)">
            <path d="M27.021,319.012L28.253,318.296L26.949,317.543L25.717,318.259L27.021,319.012Z" style="fill:rgb(228,226,223);fill-rule:nonzero;"/>
        </g>
        <g transform="matrix(4.16667,0,0,4.16667,-122.94,-1254.53)">
            <path d="M29.702,317.612L30.934,316.896L28.253,318.296L27.021,319.012L29.702,317.612Z" style="fill:rgb(182,180,179);fill-rule:nonzero;"/>
        </g>
        <g transform="matrix(4.16667,0,0,4.16667,8.90328,-1331.44)">
            <path d="M29.702,317.612L30.934,316.896L28.253,318.296L27.021,319.012L29.702,317.612Z" style="fill:rgb(182,180,179);fill-rule:nonzero;"/>
        </g>
        <g transform="matrix(4.16667,0,0,4.16667,-122.94,-1254.53)">
            <path d="M32.228,319.356L33.461,318.64L33.462,318.355L32.229,319.071L32.228,319.356Z" style="fill:rgb(123,123,121);fill-rule:nonzero;"/>
        </g>
        <g transform="matrix(4.16667,0,0,4.16667,8.90328,-1331.44)">
            <path d="M32.228,319.356L33.461,318.64L33.462,318.355L32.229,319.071L32.228,319.356Z" style="fill:rgb(123,123,121);fill-rule:nonzero;"/>
        </g>
        <g transform="matrix(4.16667,0,0,4.16667,-122.94,-1254.53)">
            <path d="M32.229,319.071L33.462,318.355L30.934,316.896L29.702,317.612L32.229,319.071Z" style="fill:rgb(228,226,223);fill-rule:nonzero;"/>
        </g>
        <g transform="matrix(4.16667,0,0,4.16667,8.90328,-1331.44)">
            <path d="M32.229,319.071L33.462,318.355L30.934,316.896L29.702,317.612L32.229,319.071Z" style="fill:rgb(228,226,223);fill-rule:nonzero;"/>
        </g>
        <g transform="matrix(4.16667,0,0,4.16667,-122.94,-1254.53)">
            <path d="M29.702,317.612L27.021,319.012L25.717,318.259L25.716,318.544L27.121,319.355L29.799,317.954L32.228,319.356L32.229,319.071L29.702,317.612Z" style="fill:rgb(153,152,150);fill-rule:nonzero;"/>
        </g>
        <g transform="matrix(4.16667,0,0,4.16667,8.90328,-1331.44)">
            <path d="M29.702,317.612L27.021,319.012L25.717,318.259L25.716,318.544L27.121,319.355L29.799,317.954L32.228,319.356L32.229,319.071L29.702,317.612Z" style="fill:rgb(153,152,150);fill-rule:nonzero;"/>
        </g>
        <g transform="matrix(4.16667,0,0,4.16667,-122.94,-1254.53)">
            <path d="M29.227,317.743L30.459,317.026L29.155,316.274L27.923,316.99L29.227,317.743Z" style="fill:rgb(228,226,223);fill-rule:nonzero;"/>
        </g>
        <g transform="matrix(4.16667,0,0,4.16667,8.90328,-1331.44)">
            <path d="M29.227,317.743L30.459,317.026L29.155,316.274L27.923,316.99L29.227,317.743Z" style="fill:rgb(228,226,223);fill-rule:nonzero;"/>
        </g>
        <g transform="matrix(4.16667,0,0,4.16667,-122.94,-1254.53)">
            <path d="M31.908,316.343L33.14,315.627L30.459,317.026L29.227,317.743L31.908,316.343Z" style="fill:rgb(182,180,179);fill-rule:nonzero;"/>
        </g>
        <g transform="matrix(4.16667,0,0,4.16667,8.90328,-1331.44)">
            <path d="M31.908,316.343L33.14,315.627L30.459,317.026L29.227,317.743L31.908,316.343Z" style="fill:rgb(182,180,179);fill-rule:nonzero;"/>
        </g>
        <g transform="matrix(4.16667,0,0,4.16667,-122.94,-1254.53)">
            <path d="M34.434,318.087L35.667,317.371L35.668,317.086L34.435,317.802L34.434,318.087Z" style="fill:rgb(123,123,121);fill-rule:nonzero;"/>
        </g>
        <g transform="matrix(4.16667,0,0,4.16667,8.90328,-1331.44)">
            <path d="M34.434,318.087L35.667,317.371L35.668,317.086L34.435,317.802L34.434,318.087Z" style="fill:rgb(123,123,121);fill-rule:nonzero;"/>
        </g>
        <g transform="matrix(4.16667,0,0,4.16667,-122.94,-1254.53)">
            <path d="M34.435,317.802L35.668,317.086L33.14,315.627L31.908,316.343L34.435,317.802Z" style="fill:rgb(228,226,223);fill-rule:nonzero;"/>
        </g>
        <g transform="matrix(4.16667,0,0,4.16667,8.90328,-1331.44)">
            <path d="M34.435,317.802L35.668,317.086L33.14,315.627L31.908,316.343L34.435,317.802Z" style="fill:rgb(228,226,223);fill-rule:nonzero;"/>
        </g>
        <g transform="matrix(4.16667,0,0,4.16667,-122.94,-1254.53)">
            <path d="M31.908,316.343L29.227,317.743L27.923,316.99L27.922,317.275L29.327,318.085L32.005,316.685L34.434,318.087L34.435,317.802L31.908,316.343Z" style="fill:rgb(153,152,150);fill-rule:nonzero;"/>
        </g>
        <g transform="matrix(4.16667,0,0,4.16667,8.90328,-1331.44)">
            <path d="M31.908,316.343L29.227,317.743L27.923,316.99L27.922,317.275L29.327,318.085L32.005,316.685L34.434,318.087L34.435,317.802L31.908,316.343Z" style="fill:rgb(153,152,150);fill-rule:nonzero;"/>
        </g>
        <g transform="matrix(4.16667,0,0,4.16667,-122.94,-1254.53)">
            <path d="M31.433,316.185L32.665,315.469L31.361,314.716L30.129,315.432L31.433,316.185Z" style="fill:rgb(228,226,223);fill-rule:nonzero;"/>
        </g>
        <g transform="matrix(4.16667,0,0,4.16667,8.90328,-1331.44)">
            <path d="M31.433,316.185L32.665,315.469L31.361,314.716L30.129,315.432L31.433,316.185Z" style="fill:rgb(228,226,223);fill-rule:nonzero;"/>
        </g>
        <g transform="matrix(4.16667,0,0,4.16667,-122.94,-1254.53)">
            <path d="M34.114,314.785L35.346,314.069L32.665,315.469L31.433,316.185L34.114,314.785Z" style="fill:rgb(182,180,179);fill-rule:nonzero;"/>
        </g>
        <g transform="matrix(4.16667,0,0,4.16667,8.90328,-1331.44)">
            <path d="M34.114,314.785L35.346,314.069L32.665,315.469L31.433,316.185L34.114,314.785Z" style="fill:rgb(182,180,179);fill-rule:nonzero;"/>
        </g>
        <g transform="matrix(4.16667,0,0,4.16667,-122.94,-1254.53)">
            <path d="M36.641,316.529L37.873,315.813L37.874,315.528L36.641,316.245L36.641,316.529Z" style="fill:rgb(123,123,121);fill-rule:nonzero;"/>
        </g>
        <g transform="matrix(4.16667,0,0,4.16667,8.90328,-1331.44)">
            <path d="M36.641,316.529L37.873,315.813L37.874,315.528L36.641,316.245L36.641,316.529Z" style="fill:rgb(123,123,121);fill-rule:nonzero;"/>
        </g>
        <g transform="matrix(4.16667,0,0,4.16667,-122.94,-1254.53)">
            <path d="M36.641,316.245L37.874,315.528L35.346,314.069L34.114,314.785L36.641,316.245Z" style="fill:rgb(228,226,223);fill-rule:nonzero;"/>
        </g>
        <g transform="matrix(4.16667,0,0,4.16667,8.90328,-1331.44)">
            <path d="M36.641,316.245L37.874,315.528L35.346,314.069L34.114,314.785L36.641,316.245Z" style="fill:rgb(228,226,223);fill-rule:nonzero;"/>
        </g>
        <g transform="matrix(4.16667,0,0,4.16667,-122.94,-1254.53)">
            <path d="M34.114,314.785L31.433,316.185L30.129,315.432L30.128,315.717L31.533,316.528L34.211,315.127L36.641,316.529L36.641,316.245L34.114,314.785Z" style="fill:rgb(153,152,150);fill-rule:nonzero;"/>
        </g>
        <g transform="matrix(4.16667,0,0,4.16667,8.90328,-1331.44)">
            <path d="M34.114,314.785L31.433,316.185L30.129,315.432L30.128,315.717L31.533,316.528L34.211,315.127L36.641,316.529L36.641,316.245L34.114,314.785Z" style="fill:rgb(153,152,150);fill-rule:nonzero;"/>
        </g>
        <g transform="matrix(4.16667,0,0,4.16667,-122.94,-1254.53)">
            <path d="M33.639,314.916L34.872,314.2L33.568,313.447L32.335,314.163L33.639,314.916Z" style="fill:rgb(228,226,223);fill-rule:nonzero;"/>
        </g>
        <g transform="matrix(4.16667,0,0,4.16667,8.90328,-1331.44)">
            <path d="M33.639,314.916L34.872,314.2L33.568,313.447L32.335,314.163L33.639,314.916Z" style="fill:rgb(228,226,223);fill-rule:nonzero;"/>
        </g>
        <g transform="matrix(4.16667,0,0,4.16667,-122.94,-1254.53)">
            <path d="M36.32,313.516L37.552,312.8L34.872,314.2L33.639,314.916L36.32,313.516Z" style="fill:rgb(182,180,179);fill-rule:nonzero;"/>
        </g>
        <g transform="matrix(4.16667,0,0,4.16667,8.90328,-1331.44)">
            <path d="M36.32,313.516L37.552,312.8L34.872,314.2L33.639,314.916L36.32,313.516Z" style="fill:rgb(182,180,179);fill-rule:nonzero;"/>
        </g>
        <g transform="matrix(4.16667,0,0,4.16667,-122.94,-1254.53)">
            <path d="M38.847,315.26L40.079,314.544L40.08,314.259L38.848,314.975L38.847,315.26Z" style="fill:rgb(123,123,121);fill-rule:nonzero;"/>
        </g>
        <g transform="matrix(4.16667,0,0,4.16667,8.90328,-1331.44)">
            <path d="M38.847,315.26L40.079,314.544L40.08,314.259L38.848,314.975L38.847,315.26Z" style="fill:rgb(123,123,121);fill-rule:nonzero;"/>
        </g>
        <g transform="matrix(4.16667,0,0,4.16667,-122.94,-1254.53)">
            <path d="M38.848,314.975L40.08,314.259L37.552,312.8L36.32,313.516L38.848,314.975Z" style="fill:rgb(228,226,223);fill-rule:nonzero;"/>
        </g>
        <g transform="matrix(4.16667,0,0,4.16667,8.90328,-1331.44)">
            <path d="M38.848,314.975L40.08,314.259L37.552,312.8L36.32,313.516L38.848,314.975Z" style="fill:rgb(228,226,223);fill-rule:nonzero;"/>
        </g>
        <g transform="matrix(4.16667,0,0,4.16667,-122.94,-1254.53)">
            <path d="M36.32,313.516L33.639,314.916L32.335,314.163L32.334,314.448L33.739,315.259L36.418,313.858L38.847,315.26L38.848,314.975L36.32,313.516Z" style="fill:rgb(153,152,150);fill-rule:nonzero;"/>
        </g>
        <g transform="matrix(4.16667,0,0,4.16667,8.90328,-1331.44)">
            <path d="M36.32,313.516L33.639,314.916L32.335,314.163L32.334,314.448L33.739,315.259L36.418,313.858L38.847,315.26L38.848,314.975L36.32,313.516Z" style="fill:rgb(153,152,150);fill-rule:nonzero;"/>
        </g>
        <g transform="matrix(4.16667,0,0,4.16667,-122.94,-1254.53)">
            <path d="M35.845,313.639L37.078,312.923L35.774,312.17L34.541,312.886L35.845,313.639Z" style="fill:rgb(228,226,223);fill-rule:nonzero;"/>
        </g>
        <g transform="matrix(4.16667,0,0,4.16667,8.90328,-1331.44)">
            <path d="M35.845,313.639L37.078,312.923L35.774,312.17L34.541,312.886L35.845,313.639Z" style="fill:rgb(228,226,223);fill-rule:nonzero;"/>
        </g>
        <g transform="matrix(4.16667,0,0,4.16667,-122.94,-1254.53)">
            <path d="M38.526,312.239L39.759,311.523L37.078,312.923L35.845,313.639L38.526,312.239Z" style="fill:rgb(182,180,179);fill-rule:nonzero;"/>
        </g>
        <g transform="matrix(4.16667,0,0,4.16667,8.90328,-1331.44)">
            <path d="M38.526,312.239L39.759,311.523L37.078,312.923L35.845,313.639L38.526,312.239Z" style="fill:rgb(182,180,179);fill-rule:nonzero;"/>
        </g>
        <g transform="matrix(4.16667,0,0,4.16667,-122.94,-1254.53)">
            <path d="M41.053,313.983L42.285,313.267L42.286,312.982L41.054,313.698L41.053,313.983Z" style="fill:rgb(123,123,121);fill-rule:nonzero;"/>
        </g>
        <g transform="matrix(4.16667,0,0,4.16667,8.90328,-1331.44)">
            <path d="M41.053,313.983L42.285,313.267L42.286,312.982L41.054,313.698L41.053,313.983Z" style="fill:rgb(123,123,121);fill-rule:nonzero;"/>
        </g>
        <g transform="matrix(4.16667,0,0,4.16667,-122.94,-1254.53)">
            <path d="M41.054,313.698L42.286,312.982L39.759,311.523L38.526,312.239L41.054,313.698Z" style="fill:rgb(228,226,223);fill-rule:nonzero;"/>
        </g>
        <g transform="matrix(4.16667,0,0,4.16667,8.90328,-1331.44)">
            <path d="M41.054,313.698L42.286,312.982L39.759,311.523L38.526,312.239L41.054,313.698Z" style="fill:rgb(228,226,223);fill-rule:nonzero;"/>
        </g>
        <g transform="matrix(4.16667,0,0,4.16667,-122.94,-1254.53)">
            <path d="M38.526,312.239L35.845,313.639L34.541,312.886L34.541,313.171L35.945,313.981L38.624,312.581L41.053,313.983L41.054,313.698L38.526,312.239Z" style="fill:rgb(153,152,150);fill-rule:nonzero;"/>
        </g>
        <g transform="matrix(4.16667,0,0,4.16667,8.90328,-1331.44)">
            <path d="M38.526,312.239L35.845,313.639L34.541,312.886L34.541,313.171L35.945,313.981L38.624,312.581L41.053,313.983L41.054,313.698L38.526,312.239Z" style="fill:rgb(153,152,150);fill-rule:nonzero;"/>
        </g>
        <g transform="matrix(4.16667,0,0,4.16667,-122.94,-1254.53)">
            <path d="M38.051,312.37L39.284,311.653L37.98,310.901L36.747,311.617L38.051,312.37Z" style="fill:rgb(228,226,223);fill-rule:nonzero;"/>
        </g>
        <g transform="matrix(4.16667,0,0,4.16667,8.90328,-1331.44)">
            <path d="M38.051,312.37L39.284,311.653L37.98,310.901L36.747,311.617L38.051,312.37Z" style="fill:rgb(228,226,223);fill-rule:nonzero;"/>
        </g>
        <g transform="matrix(4.16667,0,0,4.16667,-122.94,-1254.53)">
            <path d="M40.732,310.97L41.965,310.254L39.284,311.653L38.051,312.37L40.732,310.97Z" style="fill:rgb(182,180,179);fill-rule:nonzero;"/>
        </g>
        <g transform="matrix(4.16667,0,0,4.16667,8.90328,-1331.44)">
            <path d="M40.732,310.97L41.965,310.254L39.284,311.653L38.051,312.37L40.732,310.97Z" style="fill:rgb(182,180,179);fill-rule:nonzero;"/>
        </g>
        <g transform="matrix(4.16667,0,0,4.16667,-122.94,-1254.53)">
            <path d="M43.259,312.714L44.491,311.998L44.492,311.713L43.26,312.429L43.259,312.714Z" style="fill:rgb(123,123,121);fill-rule:nonzero;"/>
        </g>
        <g transform="matrix(4.16667,0,0,4.16667,8.90328,-1331.44)">
            <path d="M43.259,312.714L44.491,311.998L44.492,311.713L43.26,312.429L43.259,312.714Z" style="fill:rgb(123,123,121);fill-rule:nonzero;"/>
        </g>
        <g transform="matrix(4.16667,0,0,4.16667,-122.94,-1254.53)">
            <path d="M43.26,312.429L44.492,311.713L41.965,310.254L40.732,310.97L43.26,312.429Z" style="fill:rgb(228,226,223);fill-rule:nonzero;"/>
        </g>
        <g transform="matrix(4.16667,0,0,4.16667,8.90328,-1331.44)">
            <path d="M43.26,312.429L44.492,311.713L41.965,310.254L40.732,310.97L43.26,312.429Z" style="fill:rgb(228,226,223);fill-rule:nonzero;"/>
        </g>
        <g transform="matrix(4.16667,0,0,4.16667,-122.94,-1254.53)">
            <path d="M40.732,310.97L38.051,312.37L36.747,311.617L36.747,311.901L38.151,312.712L40.83,311.311L43.259,312.714L43.26,312.429L40.732,310.97Z" style="fill:rgb(153,152,150);fill-rule:nonzero;"/>
        </g>
        <g transform="matrix(4.16667,0,0,4.16667,8.90328,-1331.44)">
            <path d="M40.732,310.97L38.051,312.37L36.747,311.617L36.747,311.901L38.151,312.712L40.83,311.311L43.259,312.714L43.26,312.429L40.732,310.97Z" style="fill:rgb(153,152,150);fill-rule:nonzero;"/>
        </g>
        <g transform="matrix(4.16667,0,0,4.16667,-122.94,-1254.53)">
            <g>
                <g>
                    <clipPath id="_clip1">
                        <path d="M64.844,323.336L64.831,325.837C64.83,326.278 64.54,326.718 63.961,327.055L63.973,324.553C64.552,324.217 64.842,323.777 64.844,323.336Z"/>
                    </clipPath>
                    <g clip-path="url(#_clip1)">
                        <path d="M64.843,323.336L64.831,325.837C64.83,326.278 64.54,326.718 63.961,327.055L63.973,324.553C64.552,324.217 64.842,323.777 64.843,323.336Z" style="fill:rgb(34,37,40);fill-rule:nonzero;"/>
                    </g>
                </g>
            </g>
        </g>
        <g transform="matrix(4.16667,0,0,4.16667,8.90328,-1331.44)">
            <g>
                <g>
                    <clipPath id="_clip2">
                        <path d="M64.844,323.336L64.831,325.837C64.83,326.278 64.54,326.718 63.961,327.055L63.973,324.553C64.552,324.217 64.842,323.777 64.844,323.336Z"/>
                    </clipPath>
                    <g clip-path="url(#_clip2)">
                        <path d="M64.843,323.336L64.831,325.837C64.83,326.278 64.54,326.718 63.961,327.055L63.973,324.553C64.552,324.217 64.842,323.777 64.843,323.336Z" style="fill:rgb(34,37,40);fill-rule:nonzero;"/>
                    </g>
                </g>
            </g>
        </g>
        <g transform="matrix(4.16667,0,0,4.16667,-122.94,-1254.53)">
            <g>
                <g>
                    <clipPath id="_clip3">
                        <path d="M25.041,325.82L25.053,323.319C25.052,323.766 25.346,324.213 25.936,324.554L25.924,327.055C25.334,326.714 25.039,326.267 25.041,325.82Z"/>
                    </clipPath>
                    <g clip-path="url(#_clip3)">
                        <path d="M25.936,324.554L25.924,327.055C25.334,326.714 25.039,326.267 25.041,325.82L25.053,323.319C25.051,323.766 25.346,324.213 25.936,324.554Z" style="fill:rgb(34,37,40);fill-rule:nonzero;"/>
                    </g>
                </g>
            </g>
        </g>
        <g transform="matrix(4.16667,0,0,4.16667,8.90328,-1331.44)">
            <g>
                <g>
                    <clipPath id="_clip4">
                        <path d="M25.041,325.82L25.053,323.319C25.052,323.766 25.346,324.213 25.936,324.554L25.924,327.055C25.334,326.714 25.039,326.267 25.041,325.82Z"/>
                    </clipPath>
                    <g clip-path="url(#_clip4)">
                        <path d="M25.936,324.554L25.924,327.055C25.334,326.714 25.039,326.267 25.041,325.82L25.053,323.319C25.051,323.766 25.346,324.213 25.936,324.554Z" style="fill:rgb(34,37,40);fill-rule:nonzero;"/>
                    </g>
                </g>
            </g>
        </g>
        <g transform="matrix(4.16667,0,0,4.16667,-122.94,-1254.53)">
            <path d="M63.973,324.553L63.961,327.055L47.114,336.845L47.126,334.344L63.973,324.553Z" style="fill:rgb(33,35,37);fill-rule:nonzero;"/>
        </g>
        <g transform="matrix(4.16667,0,0,4.16667,8.90328,-1331.44)">
            <path d="M63.973,324.553L63.961,327.055L47.114,336.845L47.126,334.344L63.973,324.553Z" style="fill:rgb(33,35,37);fill-rule:nonzero;"/>
        </g>
        <g transform="matrix(4.16667,0,0,4.16667,-122.94,-1254.53)">
            <path d="M42.893,334.344L42.881,336.845L25.924,327.055L25.936,324.554L42.893,334.344Z" style="fill:rgb(26,27,29);fill-rule:nonzero;"/>
        </g>
        <g transform="matrix(4.16667,0,0,4.16667,8.90328,-1331.44)">
            <path d="M42.893,334.344L42.881,336.845L25.924,327.055L25.936,324.554L42.893,334.344Z" style="fill:rgb(26,27,29);fill-rule:nonzero;"/>
        </g>
        <g transform="matrix(4.16667,0,0,4.16667,-122.94,-1254.53)">
            <g>
                <g>
                    <clipPath id="_clip5">
                        <path d="M47.126,334.344L47.114,336.845C45.949,337.522 44.056,337.523 42.881,336.845L42.893,334.344C44.068,335.022 45.962,335.021 47.126,334.344Z"/>
                    </clipPath>
                    <g clip-path="url(#_clip5)">
                        <path d="M47.126,334.344L47.114,336.845C45.949,337.522 44.056,337.523 42.881,336.845L42.893,334.344C44.068,335.022 45.962,335.021 47.126,334.344Z" style="fill:rgb(34,37,40);fill-rule:nonzero;"/>
                    </g>
                </g>
            </g>
        </g>
        <g transform="matrix(4.16667,0,0,4.16667,8.90328,-1331.44)">
            <g>
                <g>
                    <clipPath id="_clip6">
                        <path d="M47.126,334.344L47.114,336.845C45.949,337.522 44.056,337.523 42.881,336.845L42.893,334.344C44.068,335.022 45.962,335.021 47.126,334.344Z"/>
                    </clipPath>
                    <g clip-path="url(#_clip6)">
                        <path d="M47.126,334.344L47.114,336.845C45.949,337.522 44.056,337.523 42.881,336.845L42.893,334.344C44.068,335.022 45.962,335.021 47.126,334.344Z" style="fill:rgb(34,37,40);fill-rule:nonzero;"/>
                    </g>
                </g>
            </g>
        </g>
        <g transform="matrix(4.16667,0,0,4.16667,-122.94,-1254.53)">
            <path d="M63.959,322.102C65.134,322.78 65.138,323.877 63.973,324.553L47.126,334.344C45.962,335.021 44.068,335.022 42.893,334.344L25.936,324.554C24.764,323.877 24.758,322.779 25.922,322.102L42.769,312.311C43.934,311.635 45.83,311.635 47.002,312.311L63.959,322.102Z" style="fill:rgb(50,52,57);fill-rule:nonzero;"/>
        </g>
        <g transform="matrix(4.16667,0,0,4.16667,8.90328,-1331.44)">
            <path d="M63.959,322.102C65.134,322.78 65.138,323.877 63.973,324.553L47.126,334.344C45.962,335.021 44.068,335.022 42.893,334.344L25.936,324.554C24.764,323.877 24.758,322.779 25.922,322.102L42.769,312.311C43.934,311.635 45.83,311.635 47.002,312.311L63.959,322.102Z" style="fill:rgb(50,52,57);fill-rule:nonzero;"/>
        </g>
        <g transform="matrix(4.16667,0,0,4.16667,-122.94,-1254.53)">
            <path d="M26.742,325.149L25.579,324.473L27.967,323.095L29.129,323.77L26.742,325.149Z" style="fill:rgb(228,226,223);fill-rule:nonzero;"/>
        </g>
        <g transform="matrix(4.16667,0,0,4.16667,8.90328,-1331.44)">
            <path d="M26.742,325.149L25.579,324.473L27.967,323.095L29.129,323.77L26.742,325.149Z" style="fill:rgb(228,226,223);fill-rule:nonzero;"/>
        </g>
        <g transform="matrix(4.16667,0,0,4.16667,-122.94,-1254.53)">
            <path d="M24.23,329.38L23.067,328.704L25.579,324.473L26.742,325.149L24.23,329.38Z" style="fill:rgb(176,175,172);fill-rule:nonzero;"/>
        </g>
        <g transform="matrix(4.16667,0,0,4.16667,8.90328,-1331.44)">
            <path d="M24.23,329.38L23.067,328.704L25.579,324.473L26.742,325.149L24.23,329.38Z" style="fill:rgb(176,175,172);fill-rule:nonzero;"/>
        </g>
        <g transform="matrix(4.16667,0,0,4.16667,-122.94,-1254.53)">
            <path d="M23,330.091L21.837,329.415L23.067,328.704L24.23,329.38L23,330.091Z" style="fill:rgb(228,226,223);fill-rule:nonzero;"/>
        </g>
        <g transform="matrix(4.16667,0,0,4.16667,8.90328,-1331.44)">
            <path d="M23,330.091L21.837,329.415L23.067,328.704L24.23,329.38L23,330.091Z" style="fill:rgb(228,226,223);fill-rule:nonzero;"/>
        </g>
        <g transform="matrix(4.16667,0,0,4.16667,-122.94,-1254.53)">
            <path d="M23.001,330.359L21.838,329.684L21.837,329.415L23,330.091L23.001,330.359Z" style="fill:rgb(123,123,121);fill-rule:nonzero;"/>
        </g>
        <g transform="matrix(4.16667,0,0,4.16667,8.90328,-1331.44)">
            <path d="M23.001,330.359L21.838,329.684L21.837,329.415L23,330.091L23.001,330.359Z" style="fill:rgb(123,123,121);fill-rule:nonzero;"/>
        </g>
        <g transform="matrix(4.16667,0,0,4.16667,-122.94,-1254.53)">
            <path d="M29.129,323.77L29.13,324.039L26.838,325.363L24.326,329.594L23.001,330.359L23,330.091L24.23,329.38L26.742,325.149L29.129,323.77Z" style="fill:rgb(153,152,150);fill-rule:nonzero;"/>
        </g>
        <g transform="matrix(4.16667,0,0,4.16667,8.90328,-1331.44)">
            <path d="M29.129,323.77L29.13,324.039L26.838,325.363L24.326,329.594L23.001,330.359L23,330.091L24.23,329.38L26.742,325.149L29.129,323.77Z" style="fill:rgb(153,152,150);fill-rule:nonzero;"/>
        </g>
        <g transform="matrix(4.16667,0,0,4.16667,-122.94,-1254.53)">
            <path d="M28.879,326.383L27.716,325.707L30.103,324.329L31.266,325.005L28.879,326.383Z" style="fill:rgb(228,226,223);fill-rule:nonzero;"/>
        </g>
        <g transform="matrix(4.16667,0,0,4.16667,8.90328,-1331.44)">
            <path d="M28.879,326.383L27.716,325.707L30.103,324.329L31.266,325.005L28.879,326.383Z" style="fill:rgb(228,226,223);fill-rule:nonzero;"/>
        </g>
        <g transform="matrix(4.16667,0,0,4.16667,-122.94,-1254.53)">
            <path d="M26.367,330.615L25.204,329.939L27.716,325.707L28.879,326.383L26.367,330.615Z" style="fill:rgb(176,175,172);fill-rule:nonzero;"/>
        </g>
        <g transform="matrix(4.16667,0,0,4.16667,8.90328,-1331.44)">
            <path d="M26.367,330.615L25.204,329.939L27.716,325.707L28.879,326.383L26.367,330.615Z" style="fill:rgb(176,175,172);fill-rule:nonzero;"/>
        </g>
        <g transform="matrix(4.16667,0,0,4.16667,-122.94,-1254.53)">
            <path d="M25.136,331.325L23.973,330.649L25.204,329.939L26.367,330.615L25.136,331.325Z" style="fill:rgb(228,226,223);fill-rule:nonzero;"/>
        </g>
        <g transform="matrix(4.16667,0,0,4.16667,8.90328,-1331.44)">
            <path d="M25.136,331.325L23.973,330.649L25.204,329.939L26.367,330.615L25.136,331.325Z" style="fill:rgb(228,226,223);fill-rule:nonzero;"/>
        </g>
        <g transform="matrix(4.16667,0,0,4.16667,-122.94,-1254.53)">
            <path d="M25.137,331.594L23.974,330.918L23.973,330.649L25.136,331.325L25.137,331.594Z" style="fill:rgb(123,123,121);fill-rule:nonzero;"/>
        </g>
        <g transform="matrix(4.16667,0,0,4.16667,8.90328,-1331.44)">
            <path d="M25.137,331.594L23.974,330.918L23.973,330.649L25.136,331.325L25.137,331.594Z" style="fill:rgb(123,123,121);fill-rule:nonzero;"/>
        </g>
        <g transform="matrix(4.16667,0,0,4.16667,-122.94,-1254.53)">
            <path d="M31.266,325.005L31.266,325.273L28.974,326.597L26.462,330.829L25.137,331.594L25.136,331.325L26.367,330.615L28.879,326.383L31.266,325.005Z" style="fill:rgb(153,152,150);fill-rule:nonzero;"/>
        </g>
        <g transform="matrix(4.16667,0,0,4.16667,8.90328,-1331.44)">
            <path d="M31.266,325.005L31.266,325.273L28.974,326.597L26.462,330.829L25.137,331.594L25.136,331.325L26.367,330.615L28.879,326.383L31.266,325.005Z" style="fill:rgb(153,152,150);fill-rule:nonzero;"/>
        </g>
        <g transform="matrix(4.16667,0,0,4.16667,-122.94,-1254.53)">
            <path d="M31.015,327.623L29.852,326.947L32.239,325.569L33.402,326.244L31.015,327.623Z" style="fill:rgb(228,226,223);fill-rule:nonzero;"/>
        </g>
        <g transform="matrix(4.16667,0,0,4.16667,8.90328,-1331.44)">
            <path d="M31.015,327.623L29.852,326.947L32.239,325.569L33.402,326.244L31.015,327.623Z" style="fill:rgb(228,226,223);fill-rule:nonzero;"/>
        </g>
        <g transform="matrix(4.16667,0,0,4.16667,-122.94,-1254.53)">
            <path d="M28.503,331.854L27.34,331.178L29.852,326.947L31.015,327.623L28.503,331.854Z" style="fill:rgb(176,175,172);fill-rule:nonzero;"/>
        </g>
        <g transform="matrix(4.16667,0,0,4.16667,8.90328,-1331.44)">
            <path d="M28.503,331.854L27.34,331.178L29.852,326.947L31.015,327.623L28.503,331.854Z" style="fill:rgb(176,175,172);fill-rule:nonzero;"/>
        </g>
        <g transform="matrix(4.16667,0,0,4.16667,-122.94,-1254.53)">
            <path d="M27.272,332.565L26.109,331.889L27.34,331.178L28.503,331.854L27.272,332.565Z" style="fill:rgb(228,226,223);fill-rule:nonzero;"/>
        </g>
        <g transform="matrix(4.16667,0,0,4.16667,8.90328,-1331.44)">
            <path d="M27.272,332.565L26.109,331.889L27.34,331.178L28.503,331.854L27.272,332.565Z" style="fill:rgb(228,226,223);fill-rule:nonzero;"/>
        </g>
        <g transform="matrix(4.16667,0,0,4.16667,-122.94,-1254.53)">
            <path d="M27.273,332.833L26.11,332.158L26.109,331.889L27.272,332.565L27.273,332.833Z" style="fill:rgb(123,123,121);fill-rule:nonzero;"/>
        </g>
        <g transform="matrix(4.16667,0,0,4.16667,8.90328,-1331.44)">
            <path d="M27.273,332.833L26.11,332.158L26.109,331.889L27.272,332.565L27.273,332.833Z" style="fill:rgb(123,123,121);fill-rule:nonzero;"/>
        </g>
        <g transform="matrix(4.16667,0,0,4.16667,-122.94,-1254.53)">
            <path d="M33.402,326.244L33.403,326.513L31.11,327.837L28.598,332.068L27.273,332.833L27.272,332.565L28.503,331.854L31.015,327.623L33.402,326.244Z" style="fill:rgb(153,152,150);fill-rule:nonzero;"/>
        </g>
        <g transform="matrix(4.16667,0,0,4.16667,8.90328,-1331.44)">
            <path d="M33.402,326.244L33.403,326.513L31.11,327.837L28.598,332.068L27.273,332.833L27.272,332.565L28.503,331.854L31.015,327.623L33.402,326.244Z" style="fill:rgb(153,152,150);fill-rule:nonzero;"/>
        </g>
        <g transform="matrix(4.16667,0,0,4.16667,-122.94,-1254.53)">
            <path d="M33.151,328.843L31.988,328.167L34.375,326.789L35.538,327.465L33.151,328.843Z" style="fill:rgb(228,226,223);fill-rule:nonzero;"/>
        </g>
        <g transform="matrix(4.16667,0,0,4.16667,8.90328,-1331.44)">
            <path d="M33.151,328.843L31.988,328.167L34.375,326.789L35.538,327.465L33.151,328.843Z" style="fill:rgb(228,226,223);fill-rule:nonzero;"/>
        </g>
        <g transform="matrix(4.16667,0,0,4.16667,-122.94,-1254.53)">
            <path d="M30.639,333.075L29.476,332.399L31.988,328.167L33.151,328.843L30.639,333.075Z" style="fill:rgb(176,175,172);fill-rule:nonzero;"/>
        </g>
        <g transform="matrix(4.16667,0,0,4.16667,8.90328,-1331.44)">
            <path d="M30.639,333.075L29.476,332.399L31.988,328.167L33.151,328.843L30.639,333.075Z" style="fill:rgb(176,175,172);fill-rule:nonzero;"/>
        </g>
        <g transform="matrix(4.16667,0,0,4.16667,-122.94,-1254.53)">
            <path d="M29.409,333.785L28.246,333.109L29.476,332.399L30.639,333.075L29.409,333.785Z" style="fill:rgb(228,226,223);fill-rule:nonzero;"/>
        </g>
        <g transform="matrix(4.16667,0,0,4.16667,8.90328,-1331.44)">
            <path d="M29.409,333.785L28.246,333.109L29.476,332.399L30.639,333.075L29.409,333.785Z" style="fill:rgb(228,226,223);fill-rule:nonzero;"/>
        </g>
        <g transform="matrix(4.16667,0,0,4.16667,-122.94,-1254.53)">
            <path d="M29.409,334.054L28.246,333.378L28.246,333.109L29.409,333.785L29.409,334.054Z" style="fill:rgb(123,123,121);fill-rule:nonzero;"/>
        </g>
        <g transform="matrix(4.16667,0,0,4.16667,8.90328,-1331.44)">
            <path d="M29.409,334.054L28.246,333.378L28.246,333.109L29.409,333.785L29.409,334.054Z" style="fill:rgb(123,123,121);fill-rule:nonzero;"/>
        </g>
        <g transform="matrix(4.16667,0,0,4.16667,-122.94,-1254.53)">
            <path d="M35.538,327.465L35.539,327.733L33.247,329.057L30.735,333.289L29.409,334.054L29.409,333.785L30.639,333.075L33.151,328.843L35.538,327.465Z" style="fill:rgb(153,152,150);fill-rule:nonzero;"/>
        </g>
        <g transform="matrix(4.16667,0,0,4.16667,8.90328,-1331.44)">
            <path d="M35.538,327.465L35.539,327.733L33.247,329.057L30.735,333.289L29.409,334.054L29.409,333.785L30.639,333.075L33.151,328.843L35.538,327.465Z" style="fill:rgb(153,152,150);fill-rule:nonzero;"/>
        </g>
        <g transform="matrix(4.16667,0,0,4.16667,-122.94,-1254.53)">
            <path d="M35.287,330.077L34.124,329.401L36.511,328.023L37.674,328.699L35.287,330.077Z" style="fill:rgb(228,226,223);fill-rule:nonzero;"/>
        </g>
        <g transform="matrix(4.16667,0,0,4.16667,8.90328,-1331.44)">
            <path d="M35.287,330.077L34.124,329.401L36.511,328.023L37.674,328.699L35.287,330.077Z" style="fill:rgb(228,226,223);fill-rule:nonzero;"/>
        </g>
        <g transform="matrix(4.16667,0,0,4.16667,-122.94,-1254.53)">
            <path d="M32.775,334.309L31.612,333.633L34.124,329.401L35.287,330.077L32.775,334.309Z" style="fill:rgb(176,175,172);fill-rule:nonzero;"/>
        </g>
        <g transform="matrix(4.16667,0,0,4.16667,8.90328,-1331.44)">
            <path d="M32.775,334.309L31.612,333.633L34.124,329.401L35.287,330.077L32.775,334.309Z" style="fill:rgb(176,175,172);fill-rule:nonzero;"/>
        </g>
        <g transform="matrix(4.16667,0,0,4.16667,-122.94,-1254.53)">
            <path d="M31.545,335.019L30.382,334.343L31.612,333.633L32.775,334.309L31.545,335.019Z" style="fill:rgb(228,226,223);fill-rule:nonzero;"/>
        </g>
        <g transform="matrix(4.16667,0,0,4.16667,8.90328,-1331.44)">
            <path d="M31.545,335.019L30.382,334.343L31.612,333.633L32.775,334.309L31.545,335.019Z" style="fill:rgb(228,226,223);fill-rule:nonzero;"/>
        </g>
        <g transform="matrix(4.16667,0,0,4.16667,-122.94,-1254.53)">
            <path d="M31.546,335.288L30.383,334.612L30.382,334.343L31.545,335.019L31.546,335.288Z" style="fill:rgb(123,123,121);fill-rule:nonzero;"/>
        </g>
        <g transform="matrix(4.16667,0,0,4.16667,8.90328,-1331.44)">
            <path d="M31.546,335.288L30.383,334.612L30.382,334.343L31.545,335.019L31.546,335.288Z" style="fill:rgb(123,123,121);fill-rule:nonzero;"/>
        </g>
        <g transform="matrix(4.16667,0,0,4.16667,-122.94,-1254.53)">
            <path d="M37.674,328.699L37.675,328.968L35.383,330.291L32.871,334.523L31.546,335.288L31.545,335.019L32.775,334.309L35.287,330.077L37.674,328.699Z" style="fill:rgb(153,152,150);fill-rule:nonzero;"/>
        </g>
        <g transform="matrix(4.16667,0,0,4.16667,8.90328,-1331.44)">
            <path d="M37.674,328.699L37.675,328.968L35.383,330.291L32.871,334.523L31.546,335.288L31.545,335.019L32.775,334.309L35.287,330.077L37.674,328.699Z" style="fill:rgb(153,152,150);fill-rule:nonzero;"/>
        </g>
        <g transform="matrix(4.16667,0,0,4.16667,-122.94,-1254.53)">
            <path d="M37.423,331.317L36.261,330.641L38.648,329.263L39.811,329.939L37.423,331.317Z" style="fill:rgb(228,226,223);fill-rule:nonzero;"/>
        </g>
        <g transform="matrix(4.16667,0,0,4.16667,8.90328,-1331.44)">
            <path d="M37.423,331.317L36.261,330.641L38.648,329.263L39.811,329.939L37.423,331.317Z" style="fill:rgb(228,226,223);fill-rule:nonzero;"/>
        </g>
        <g transform="matrix(4.16667,0,0,4.16667,-122.94,-1254.53)">
            <path d="M34.911,335.549L33.749,334.873L36.261,330.641L37.423,331.317L34.911,335.549Z" style="fill:rgb(176,175,172);fill-rule:nonzero;"/>
        </g>
        <g transform="matrix(4.16667,0,0,4.16667,8.90328,-1331.44)">
            <path d="M34.911,335.549L33.749,334.873L36.261,330.641L37.423,331.317L34.911,335.549Z" style="fill:rgb(176,175,172);fill-rule:nonzero;"/>
        </g>
        <g transform="matrix(4.16667,0,0,4.16667,-122.94,-1254.53)">
            <path d="M33.681,336.259L32.518,335.583L33.749,334.873L34.911,335.549L33.681,336.259Z" style="fill:rgb(228,226,223);fill-rule:nonzero;"/>
        </g>
        <g transform="matrix(4.16667,0,0,4.16667,8.90328,-1331.44)">
            <path d="M33.681,336.259L32.518,335.583L33.749,334.873L34.911,335.549L33.681,336.259Z" style="fill:rgb(228,226,223);fill-rule:nonzero;"/>
        </g>
        <g transform="matrix(4.16667,0,0,4.16667,-122.94,-1254.53)">
            <path d="M33.682,336.528L32.519,335.852L32.518,335.583L33.681,336.259L33.682,336.528Z" style="fill:rgb(123,123,121);fill-rule:nonzero;"/>
        </g>
        <g transform="matrix(4.16667,0,0,4.16667,8.90328,-1331.44)">
            <path d="M33.682,336.528L32.519,335.852L32.518,335.583L33.681,336.259L33.682,336.528Z" style="fill:rgb(123,123,121);fill-rule:nonzero;"/>
        </g>
        <g transform="matrix(4.16667,0,0,4.16667,-122.94,-1254.53)">
            <path d="M39.811,329.939L39.811,330.207L37.519,331.531L35.007,335.763L33.682,336.528L33.681,336.259L34.911,335.549L37.423,331.317L39.811,329.939Z" style="fill:rgb(153,152,150);fill-rule:nonzero;"/>
        </g>
        <g transform="matrix(4.16667,0,0,4.16667,8.90328,-1331.44)">
            <path d="M39.811,329.939L39.811,330.207L37.519,331.531L35.007,335.763L33.682,336.528L33.681,336.259L34.911,335.549L37.423,331.317L39.811,329.939Z" style="fill:rgb(153,152,150);fill-rule:nonzero;"/>
        </g>
        <g transform="matrix(4.16667,0,0,4.16667,-122.94,-1254.53)">
            <path d="M39.56,332.558L38.397,331.883L40.784,330.504L41.947,331.18L39.56,332.558Z" style="fill:rgb(228,226,223);fill-rule:nonzero;"/>
        </g>
        <g transform="matrix(4.16667,0,0,4.16667,8.90328,-1331.44)">
            <path d="M39.56,332.558L38.397,331.883L40.784,330.504L41.947,331.18L39.56,332.558Z" style="fill:rgb(228,226,223);fill-rule:nonzero;"/>
        </g>
        <g transform="matrix(4.16667,0,0,4.16667,-122.94,-1254.53)">
            <path d="M37.048,336.79L35.885,336.114L38.397,331.883L39.56,332.558L37.048,336.79Z" style="fill:rgb(176,175,172);fill-rule:nonzero;"/>
        </g>
        <g transform="matrix(4.16667,0,0,4.16667,8.90328,-1331.44)">
            <path d="M37.048,336.79L35.885,336.114L38.397,331.883L39.56,332.558L37.048,336.79Z" style="fill:rgb(176,175,172);fill-rule:nonzero;"/>
        </g>
        <g transform="matrix(4.16667,0,0,4.16667,-122.94,-1254.53)">
            <path d="M35.817,337.5L34.654,336.825L35.885,336.114L37.048,336.79L35.817,337.5Z" style="fill:rgb(228,226,223);fill-rule:nonzero;"/>
        </g>
        <g transform="matrix(4.16667,0,0,4.16667,8.90328,-1331.44)">
            <path d="M35.817,337.5L34.654,336.825L35.885,336.114L37.048,336.79L35.817,337.5Z" style="fill:rgb(228,226,223);fill-rule:nonzero;"/>
        </g>
        <g transform="matrix(4.16667,0,0,4.16667,-122.94,-1254.53)">
            <path d="M35.818,337.769L34.655,337.093L34.654,336.825L35.817,337.5L35.818,337.769Z" style="fill:rgb(123,123,121);fill-rule:nonzero;"/>
        </g>
        <g transform="matrix(4.16667,0,0,4.16667,8.90328,-1331.44)">
            <path d="M35.818,337.769L34.655,337.093L34.654,336.825L35.817,337.5L35.818,337.769Z" style="fill:rgb(123,123,121);fill-rule:nonzero;"/>
        </g>
        <g transform="matrix(4.16667,0,0,4.16667,-122.94,-1254.53)">
            <path d="M41.947,331.18L41.948,331.449L39.655,332.772L37.143,337.004L35.818,337.769L35.817,337.5L37.048,336.79L39.56,332.558L41.947,331.18Z" style="fill:rgb(153,152,150);fill-rule:nonzero;"/>
        </g>
        <g transform="matrix(4.16667,0,0,4.16667,8.90328,-1331.44)">
            <path d="M41.947,331.18L41.948,331.449L39.655,332.772L37.143,337.004L35.818,337.769L35.817,337.5L37.048,336.79L39.56,332.558L41.947,331.18Z" style="fill:rgb(153,152,150);fill-rule:nonzero;"/>
        </g>
        <g transform="matrix(4.16667,0,0,4.16667,-122.94,-1254.53)">
            <path d="M41.696,333.798L40.533,333.122L42.92,331.744L44.083,332.42L41.696,333.798Z" style="fill:rgb(228,226,223);fill-rule:nonzero;"/>
        </g>
        <g transform="matrix(4.16667,0,0,4.16667,8.90328,-1331.44)">
            <path d="M41.696,333.798L40.533,333.122L42.92,331.744L44.083,332.42L41.696,333.798Z" style="fill:rgb(228,226,223);fill-rule:nonzero;"/>
        </g>
        <g transform="matrix(4.16667,0,0,4.16667,-122.94,-1254.53)">
            <path d="M39.184,338.03L38.021,337.354L40.533,333.122L41.696,333.798L39.184,338.03Z" style="fill:rgb(176,175,172);fill-rule:nonzero;"/>
        </g>
        <g transform="matrix(4.16667,0,0,4.16667,8.90328,-1331.44)">
            <path d="M39.184,338.03L38.021,337.354L40.533,333.122L41.696,333.798L39.184,338.03Z" style="fill:rgb(176,175,172);fill-rule:nonzero;"/>
        </g>
        <g transform="matrix(4.16667,0,0,4.16667,-122.94,-1254.53)">
            <path d="M37.953,338.74L36.791,338.064L38.021,337.354L39.184,338.03L37.953,338.74Z" style="fill:rgb(228,226,223);fill-rule:nonzero;"/>
        </g>
        <g transform="matrix(4.16667,0,0,4.16667,8.90328,-1331.44)">
            <path d="M37.953,338.74L36.791,338.064L38.021,337.354L39.184,338.03L37.953,338.74Z" style="fill:rgb(228,226,223);fill-rule:nonzero;"/>
        </g>
        <g transform="matrix(4.16667,0,0,4.16667,-122.94,-1254.53)">
            <path d="M37.954,339.009L36.791,338.333L36.791,338.064L37.953,338.74L37.954,339.009Z" style="fill:rgb(123,123,121);fill-rule:nonzero;"/>
        </g>
        <g transform="matrix(4.16667,0,0,4.16667,8.90328,-1331.44)">
            <path d="M37.954,339.009L36.791,338.333L36.791,338.064L37.953,338.74L37.954,339.009Z" style="fill:rgb(123,123,121);fill-rule:nonzero;"/>
        </g>
        <g transform="matrix(4.16667,0,0,4.16667,-122.94,-1254.53)">
            <path d="M44.083,332.42L44.084,332.689L41.792,334.012L39.28,338.244L37.954,339.009L37.953,338.74L39.184,338.03L41.696,333.798L44.083,332.42Z" style="fill:rgb(153,152,150);fill-rule:nonzero;"/>
        </g>
        <g transform="matrix(4.16667,0,0,4.16667,8.90328,-1331.44)">
            <path d="M44.083,332.42L44.084,332.689L41.792,334.012L39.28,338.244L37.954,339.009L37.953,338.74L39.184,338.03L41.696,333.798L44.083,332.42Z" style="fill:rgb(153,152,150);fill-rule:nonzero;"/>
        </g>
        <g transform="matrix(4.16667,0,0,4.16667,-122.94,-1254.53)">
            <path d="M63.513,325.07L64.676,324.394L62.288,323.016L61.125,323.692L63.513,325.07Z" style="fill:rgb(228,226,223);fill-rule:nonzero;"/>
        </g>
        <g transform="matrix(4.16667,0,0,4.16667,8.90328,-1331.44)">
            <path d="M63.513,325.07L64.676,324.394L62.288,323.016L61.125,323.692L63.513,325.07Z" style="fill:rgb(228,226,223);fill-rule:nonzero;"/>
        </g>
        <g transform="matrix(4.16667,0,0,4.16667,-122.94,-1254.53)">
            <path d="M66.025,329.302L67.188,328.626L64.676,324.394L63.513,325.07L66.025,329.302Z" style="fill:rgb(176,175,172);fill-rule:nonzero;"/>
        </g>
        <g transform="matrix(4.16667,0,0,4.16667,8.90328,-1331.44)">
            <path d="M66.025,329.302L67.188,328.626L64.676,324.394L63.513,325.07L66.025,329.302Z" style="fill:rgb(176,175,172);fill-rule:nonzero;"/>
        </g>
        <g transform="matrix(4.16667,0,0,4.16667,-122.94,-1254.53)">
            <path d="M67.255,330.012L68.418,329.336L67.188,328.626L66.025,329.302L67.255,330.012Z" style="fill:rgb(228,226,223);fill-rule:nonzero;"/>
        </g>
        <g transform="matrix(4.16667,0,0,4.16667,8.90328,-1331.44)">
            <path d="M67.255,330.012L68.418,329.336L67.188,328.626L66.025,329.302L67.255,330.012Z" style="fill:rgb(228,226,223);fill-rule:nonzero;"/>
        </g>
        <g transform="matrix(4.16667,0,0,4.16667,-122.94,-1254.53)">
            <path d="M67.254,330.281L68.417,329.605L68.418,329.336L67.255,330.012L67.254,330.281Z" style="fill:rgb(123,123,121);fill-rule:nonzero;"/>
        </g>
        <g transform="matrix(4.16667,0,0,4.16667,8.90328,-1331.44)">
            <path d="M67.254,330.281L68.417,329.605L68.418,329.336L67.255,330.012L67.254,330.281Z" style="fill:rgb(123,123,121);fill-rule:nonzero;"/>
        </g>
        <g transform="matrix(4.16667,0,0,4.16667,-122.94,-1254.53)">
            <path d="M61.125,323.692L61.125,323.961L63.417,325.284L65.929,329.516L67.254,330.281L67.255,330.012L66.025,329.302L63.513,325.07L61.125,323.692Z" style="fill:rgb(153,152,150);fill-rule:nonzero;"/>
        </g>
        <g transform="matrix(4.16667,0,0,4.16667,8.90328,-1331.44)">
            <path d="M61.125,323.692L61.125,323.961L63.417,325.284L65.929,329.516L67.254,330.281L67.255,330.012L66.025,329.302L63.513,325.07L61.125,323.692Z" style="fill:rgb(153,152,150);fill-rule:nonzero;"/>
        </g>
        <g transform="matrix(4.16667,0,0,4.16667,-122.94,-1254.53)">
            <path d="M61.376,326.304L62.539,325.629L60.152,324.25L58.989,324.926L61.376,326.304Z" style="fill:rgb(228,226,223);fill-rule:nonzero;"/>
        </g>
        <g transform="matrix(4.16667,0,0,4.16667,8.90328,-1331.44)">
            <path d="M61.376,326.304L62.539,325.629L60.152,324.25L58.989,324.926L61.376,326.304Z" style="fill:rgb(228,226,223);fill-rule:nonzero;"/>
        </g>
        <g transform="matrix(4.16667,0,0,4.16667,-122.94,-1254.53)">
            <path d="M63.888,330.536L65.051,329.86L62.539,325.629L61.376,326.304L63.888,330.536Z" style="fill:rgb(176,175,172);fill-rule:nonzero;"/>
        </g>
        <g transform="matrix(4.16667,0,0,4.16667,8.90328,-1331.44)">
            <path d="M63.888,330.536L65.051,329.86L62.539,325.629L61.376,326.304L63.888,330.536Z" style="fill:rgb(176,175,172);fill-rule:nonzero;"/>
        </g>
        <g transform="matrix(4.16667,0,0,4.16667,-122.94,-1254.53)">
            <path d="M65.119,331.246L66.282,330.571L65.051,329.86L63.888,330.536L65.119,331.246Z" style="fill:rgb(228,226,223);fill-rule:nonzero;"/>
        </g>
        <g transform="matrix(4.16667,0,0,4.16667,8.90328,-1331.44)">
            <path d="M65.119,331.246L66.282,330.571L65.051,329.86L63.888,330.536L65.119,331.246Z" style="fill:rgb(228,226,223);fill-rule:nonzero;"/>
        </g>
        <g transform="matrix(4.16667,0,0,4.16667,-122.94,-1254.53)">
            <path d="M65.118,331.515L66.281,330.839L66.282,330.571L65.119,331.246L65.118,331.515Z" style="fill:rgb(123,123,121);fill-rule:nonzero;"/>
        </g>
        <g transform="matrix(4.16667,0,0,4.16667,8.90328,-1331.44)">
            <path d="M65.118,331.515L66.281,330.839L66.282,330.571L65.119,331.246L65.118,331.515Z" style="fill:rgb(123,123,121);fill-rule:nonzero;"/>
        </g>
        <g transform="matrix(4.16667,0,0,4.16667,-122.94,-1254.53)">
            <path d="M58.989,324.926L58.988,325.195L61.281,326.518L63.793,330.75L65.118,331.515L65.119,331.246L63.888,330.536L61.376,326.304L58.989,324.926Z" style="fill:rgb(153,152,150);fill-rule:nonzero;"/>
        </g>
        <g transform="matrix(4.16667,0,0,4.16667,8.90328,-1331.44)">
            <path d="M58.989,324.926L58.988,325.195L61.281,326.518L63.793,330.75L65.118,331.515L65.119,331.246L63.888,330.536L61.376,326.304L58.989,324.926Z" style="fill:rgb(153,152,150);fill-rule:nonzero;"/>
        </g>
        <g transform="matrix(4.16667,0,0,4.16667,-122.94,-1254.53)">
            <path d="M59.24,327.544L60.403,326.868L58.016,325.49L56.853,326.166L59.24,327.544Z" style="fill:rgb(228,226,223);fill-rule:nonzero;"/>
        </g>
        <g transform="matrix(4.16667,0,0,4.16667,8.90328,-1331.44)">
            <path d="M59.24,327.544L60.403,326.868L58.016,325.49L56.853,326.166L59.24,327.544Z" style="fill:rgb(228,226,223);fill-rule:nonzero;"/>
        </g>
        <g transform="matrix(4.16667,0,0,4.16667,-122.94,-1254.53)">
            <path d="M61.752,331.776L62.915,331.1L60.403,326.868L59.24,327.544L61.752,331.776Z" style="fill:rgb(176,175,172);fill-rule:nonzero;"/>
        </g>
        <g transform="matrix(4.16667,0,0,4.16667,8.90328,-1331.44)">
            <path d="M61.752,331.776L62.915,331.1L60.403,326.868L59.24,327.544L61.752,331.776Z" style="fill:rgb(176,175,172);fill-rule:nonzero;"/>
        </g>
        <g transform="matrix(4.16667,0,0,4.16667,-122.94,-1254.53)">
            <path d="M62.983,332.486L64.145,331.81L62.915,331.1L61.752,331.776L62.983,332.486Z" style="fill:rgb(228,226,223);fill-rule:nonzero;"/>
        </g>
        <g transform="matrix(4.16667,0,0,4.16667,8.90328,-1331.44)">
            <path d="M62.983,332.486L64.145,331.81L62.915,331.1L61.752,331.776L62.983,332.486Z" style="fill:rgb(228,226,223);fill-rule:nonzero;"/>
        </g>
        <g transform="matrix(4.16667,0,0,4.16667,-122.94,-1254.53)">
            <path d="M62.982,332.755L64.145,332.079L64.145,331.81L62.983,332.486L62.982,332.755Z" style="fill:rgb(123,123,121);fill-rule:nonzero;"/>
        </g>
        <g transform="matrix(4.16667,0,0,4.16667,8.90328,-1331.44)">
            <path d="M62.982,332.755L64.145,332.079L64.145,331.81L62.983,332.486L62.982,332.755Z" style="fill:rgb(123,123,121);fill-rule:nonzero;"/>
        </g>
        <g transform="matrix(4.16667,0,0,4.16667,-122.94,-1254.53)">
            <path d="M56.853,326.166L56.852,326.435L59.145,327.758L61.657,331.99L62.982,332.755L62.983,332.486L61.752,331.776L59.24,327.544L56.853,326.166Z" style="fill:rgb(153,152,150);fill-rule:nonzero;"/>
        </g>
        <g transform="matrix(4.16667,0,0,4.16667,8.90328,-1331.44)">
            <path d="M56.853,326.166L56.852,326.435L59.145,327.758L61.657,331.99L62.982,332.755L62.983,332.486L61.752,331.776L59.24,327.544L56.853,326.166Z" style="fill:rgb(153,152,150);fill-rule:nonzero;"/>
        </g>
        <g transform="matrix(4.16667,0,0,4.16667,-122.94,-1254.53)">
            <path d="M57.104,328.764L58.267,328.089L55.88,326.71L54.717,327.386L57.104,328.764Z" style="fill:rgb(228,226,223);fill-rule:nonzero;"/>
        </g>
        <g transform="matrix(4.16667,0,0,4.16667,8.90328,-1331.44)">
            <path d="M57.104,328.764L58.267,328.089L55.88,326.71L54.717,327.386L57.104,328.764Z" style="fill:rgb(228,226,223);fill-rule:nonzero;"/>
        </g>
        <g transform="matrix(4.16667,0,0,4.16667,-122.94,-1254.53)">
            <path d="M59.616,332.996L60.779,332.32L58.267,328.089L57.104,328.764L59.616,332.996Z" style="fill:rgb(176,175,172);fill-rule:nonzero;"/>
        </g>
        <g transform="matrix(4.16667,0,0,4.16667,8.90328,-1331.44)">
            <path d="M59.616,332.996L60.779,332.32L58.267,328.089L57.104,328.764L59.616,332.996Z" style="fill:rgb(176,175,172);fill-rule:nonzero;"/>
        </g>
        <g transform="matrix(4.16667,0,0,4.16667,-122.94,-1254.53)">
            <path d="M60.846,333.706L62.009,333.031L60.779,332.32L59.616,332.996L60.846,333.706Z" style="fill:rgb(228,226,223);fill-rule:nonzero;"/>
        </g>
        <g transform="matrix(4.16667,0,0,4.16667,8.90328,-1331.44)">
            <path d="M60.846,333.706L62.009,333.031L60.779,332.32L59.616,332.996L60.846,333.706Z" style="fill:rgb(228,226,223);fill-rule:nonzero;"/>
        </g>
        <g transform="matrix(4.16667,0,0,4.16667,-122.94,-1254.53)">
            <path d="M60.846,333.975L62.008,333.299L62.009,333.031L60.846,333.706L60.846,333.975Z" style="fill:rgb(123,123,121);fill-rule:nonzero;"/>
        </g>
        <g transform="matrix(4.16667,0,0,4.16667,8.90328,-1331.44)">
            <path d="M60.846,333.975L62.008,333.299L62.009,333.031L60.846,333.706L60.846,333.975Z" style="fill:rgb(123,123,121);fill-rule:nonzero;"/>
        </g>
        <g transform="matrix(4.16667,0,0,4.16667,-122.94,-1254.53)">
            <path d="M54.717,327.386L54.716,327.655L57.008,328.978L59.52,333.21L60.846,333.975L60.846,333.706L59.616,332.996L57.104,328.764L54.717,327.386Z" style="fill:rgb(153,152,150);fill-rule:nonzero;"/>
        </g>
        <g transform="matrix(4.16667,0,0,4.16667,8.90328,-1331.44)">
            <path d="M54.717,327.386L54.716,327.655L57.008,328.978L59.52,333.21L60.846,333.975L60.846,333.706L59.616,332.996L57.104,328.764L54.717,327.386Z" style="fill:rgb(153,152,150);fill-rule:nonzero;"/>
        </g>
        <g transform="matrix(4.16667,0,0,4.16667,-122.94,-1254.53)">
            <path d="M54.968,329.999L56.131,329.323L53.743,327.945L52.581,328.62L54.968,329.999Z" style="fill:rgb(228,226,223);fill-rule:nonzero;"/>
        </g>
        <g transform="matrix(4.16667,0,0,4.16667,8.90328,-1331.44)">
            <path d="M54.968,329.999L56.131,329.323L53.743,327.945L52.581,328.62L54.968,329.999Z" style="fill:rgb(228,226,223);fill-rule:nonzero;"/>
        </g>
        <g transform="matrix(4.16667,0,0,4.16667,-122.94,-1254.53)">
            <path d="M57.48,334.23L58.643,333.555L56.131,329.323L54.968,329.999L57.48,334.23Z" style="fill:rgb(176,175,172);fill-rule:nonzero;"/>
        </g>
        <g transform="matrix(4.16667,0,0,4.16667,8.90328,-1331.44)">
            <path d="M57.48,334.23L58.643,333.555L56.131,329.323L54.968,329.999L57.48,334.23Z" style="fill:rgb(176,175,172);fill-rule:nonzero;"/>
        </g>
        <g transform="matrix(4.16667,0,0,4.16667,-122.94,-1254.53)">
            <path d="M58.71,334.941L59.873,334.265L58.643,333.555L57.48,334.23L58.71,334.941Z" style="fill:rgb(228,226,223);fill-rule:nonzero;"/>
        </g>
        <g transform="matrix(4.16667,0,0,4.16667,8.90328,-1331.44)">
            <path d="M58.71,334.941L59.873,334.265L58.643,333.555L57.48,334.23L58.71,334.941Z" style="fill:rgb(228,226,223);fill-rule:nonzero;"/>
        </g>
        <g transform="matrix(4.16667,0,0,4.16667,-122.94,-1254.53)">
            <path d="M58.709,335.209L59.872,334.534L59.873,334.265L58.71,334.941L58.709,335.209Z" style="fill:rgb(123,123,121);fill-rule:nonzero;"/>
        </g>
        <g transform="matrix(4.16667,0,0,4.16667,8.90328,-1331.44)">
            <path d="M58.709,335.209L59.872,334.534L59.873,334.265L58.71,334.941L58.709,335.209Z" style="fill:rgb(123,123,121);fill-rule:nonzero;"/>
        </g>
        <g transform="matrix(4.16667,0,0,4.16667,-122.94,-1254.53)">
            <path d="M52.581,328.62L52.58,328.889L54.872,330.213L57.384,334.444L58.709,335.209L58.71,334.941L57.48,334.23L54.968,329.999L52.581,328.62Z" style="fill:rgb(153,152,150);fill-rule:nonzero;"/>
        </g>
        <g transform="matrix(4.16667,0,0,4.16667,8.90328,-1331.44)">
            <path d="M52.581,328.62L52.58,328.889L54.872,330.213L57.384,334.444L58.709,335.209L58.71,334.941L57.48,334.23L54.968,329.999L52.581,328.62Z" style="fill:rgb(153,152,150);fill-rule:nonzero;"/>
        </g>
        <g transform="matrix(4.16667,0,0,4.16667,-122.94,-1254.53)">
            <path d="M52.831,331.238L53.994,330.563L51.607,329.184L50.444,329.86L52.831,331.238Z" style="fill:rgb(228,226,223);fill-rule:nonzero;"/>
        </g>
        <g transform="matrix(4.16667,0,0,4.16667,8.90328,-1331.44)">
            <path d="M52.831,331.238L53.994,330.563L51.607,329.184L50.444,329.86L52.831,331.238Z" style="fill:rgb(228,226,223);fill-rule:nonzero;"/>
        </g>
        <g transform="matrix(4.16667,0,0,4.16667,-122.94,-1254.53)">
            <path d="M55.344,335.47L56.506,334.794L53.994,330.563L52.831,331.238L55.344,335.47Z" style="fill:rgb(176,175,172);fill-rule:nonzero;"/>
        </g>
        <g transform="matrix(4.16667,0,0,4.16667,8.90328,-1331.44)">
            <path d="M55.344,335.47L56.506,334.794L53.994,330.563L52.831,331.238L55.344,335.47Z" style="fill:rgb(176,175,172);fill-rule:nonzero;"/>
        </g>
        <g transform="matrix(4.16667,0,0,4.16667,-122.94,-1254.53)">
            <path d="M56.574,336.18L57.737,335.505L56.506,334.794L55.344,335.47L56.574,336.18Z" style="fill:rgb(228,226,223);fill-rule:nonzero;"/>
        </g>
        <g transform="matrix(4.16667,0,0,4.16667,8.90328,-1331.44)">
            <path d="M56.574,336.18L57.737,335.505L56.506,334.794L55.344,335.47L56.574,336.18Z" style="fill:rgb(228,226,223);fill-rule:nonzero;"/>
        </g>
        <g transform="matrix(1.62455,-0.937933,2.29474,1.32487,-204.786,51.6772)">
            <g>
                <g transform="matrix(1,0,0,1,45.746,77.754)">
                    <text x="0px" y="0px" style="font-family:'Arial-BoldMT', 'Arial', sans-serif;font-weight:700;font-size:16px;fill:rgb(93,204,250);">D</text>
                </g>
                <g transform="matrix(1,0,0,1,58.1,77.754)">
                    <text x="0px" y="0px" style="font-family:'Arial-BoldMT', 'Arial', sans-serif;font-weight:700;font-size:16px;fill:rgb(93,204,250);">AC</text>
                </g>
            </g>
        </g>
        <g transform="matrix(1.55839,-0.899736,2.20129,1.27092,-61.778,-25.5569)">
            <g>
                <g transform="matrix(1,0,0,1,45.746,77.754)">
                    <text x="0px" y="0px" style="font-family:'Arial-BoldMT', 'Arial', sans-serif;font-weight:700;font-size:16px;fill:rgb(93,204,250);">A</text>
                </g>
                <g transform="matrix(1,0,0,1,58.1,77.754)">
                    <text x="0px" y="0px" style="font-family:'Arial-BoldMT', 'Arial', sans-serif;font-weight:700;font-size:16px;fill:rgb(93,204,250);">DC</text>
                </g>
            </g>
        </g>
        <g transform="matrix(4.16667,0,0,4.16667,-122.94,-1254.53)">
            <path d="M56.573,336.449L57.736,335.773L57.737,335.505L56.574,336.18L56.573,336.449Z" style="fill:rgb(123,123,121);fill-rule:nonzero;"/>
        </g>
        <g transform="matrix(4.16667,0,0,4.16667,8.90328,-1331.44)">
            <path d="M56.573,336.449L57.736,335.773L57.737,335.505L56.574,336.18L56.573,336.449Z" style="fill:rgb(123,123,121);fill-rule:nonzero;"/>
        </g>
        <g transform="matrix(4.16667,0,0,4.16667,-122.94,-1254.53)">
            <path d="M50.444,329.86L50.444,330.129L52.736,331.452L55.248,335.684L56.573,336.449L56.574,336.18L55.344,335.47L52.831,331.238L50.444,329.86Z" style="fill:rgb(153,152,150);fill-rule:nonzero;"/>
        </g>
        <g transform="matrix(4.16667,0,0,4.16667,8.90328,-1331.44)">
            <path d="M50.444,329.86L50.444,330.129L52.736,331.452L55.248,335.684L56.573,336.449L56.574,336.18L55.344,335.47L52.831,331.238L50.444,329.86Z" style="fill:rgb(153,152,150);fill-rule:nonzero;"/>
        </g>
        <g transform="matrix(4.16667,0,0,4.16667,-122.94,-1254.53)">
            <path d="M50.695,332.48L51.858,331.804L49.471,330.426L48.308,331.102L50.695,332.48Z" style="fill:rgb(228,226,223);fill-rule:nonzero;"/>
        </g>
        <g transform="matrix(4.16667,0,0,4.16667,8.90328,-1331.44)">
            <path d="M50.695,332.48L51.858,331.804L49.471,330.426L48.308,331.102L50.695,332.48Z" style="fill:rgb(228,226,223);fill-rule:nonzero;"/>
        </g>
        <g transform="matrix(4.16667,0,0,4.16667,-122.94,-1254.53)">
            <path d="M53.207,336.711L54.37,336.036L51.858,331.804L50.695,332.48L53.207,336.711Z" style="fill:rgb(176,175,172);fill-rule:nonzero;"/>
        </g>
        <g transform="matrix(4.16667,0,0,4.16667,8.90328,-1331.44)">
            <path d="M53.207,336.711L54.37,336.036L51.858,331.804L50.695,332.48L53.207,336.711Z" style="fill:rgb(176,175,172);fill-rule:nonzero;"/>
        </g>
        <g transform="matrix(4.16667,0,0,4.16667,-122.94,-1254.53)">
            <path d="M54.438,337.422L55.601,336.746L54.37,336.036L53.207,336.711L54.438,337.422Z" style="fill:rgb(228,226,223);fill-rule:nonzero;"/>
        </g>
        <g transform="matrix(4.16667,0,0,4.16667,8.90328,-1331.44)">
            <path d="M54.438,337.422L55.601,336.746L54.37,336.036L53.207,336.711L54.438,337.422Z" style="fill:rgb(228,226,223);fill-rule:nonzero;"/>
        </g>
        <g transform="matrix(4.16667,0,0,4.16667,-122.94,-1254.53)">
            <path d="M54.437,337.691L55.6,337.015L55.601,336.746L54.438,337.422L54.437,337.691Z" style="fill:rgb(123,123,121);fill-rule:nonzero;"/>
        </g>
        <g transform="matrix(4.16667,0,0,4.16667,8.90328,-1331.44)">
            <path d="M54.437,337.691L55.6,337.015L55.601,336.746L54.438,337.422L54.437,337.691Z" style="fill:rgb(123,123,121);fill-rule:nonzero;"/>
        </g>
        <g transform="matrix(4.16667,0,0,4.16667,-122.94,-1254.53)">
            <path d="M48.308,331.102L48.307,331.37L50.6,332.694L53.112,336.925L54.437,337.691L54.438,337.422L53.207,336.711L50.695,332.48L48.308,331.102Z" style="fill:rgb(153,152,150);fill-rule:nonzero;"/>
        </g>
        <g transform="matrix(4.16667,0,0,4.16667,8.90328,-1331.44)">
            <path d="M48.308,331.102L48.307,331.37L50.6,332.694L53.112,336.925L54.437,337.691L54.438,337.422L53.207,336.711L50.695,332.48L48.308,331.102Z" style="fill:rgb(153,152,150);fill-rule:nonzero;"/>
        </g>
        <g transform="matrix(4.16667,0,0,4.16667,-122.94,-1254.53)">
            <path d="M48.559,333.72L49.722,333.044L47.335,331.665L46.172,332.341L48.559,333.72Z" style="fill:rgb(228,226,223);fill-rule:nonzero;"/>
        </g>
        <g transform="matrix(4.16667,0,0,4.16667,8.90328,-1331.44)">
            <path d="M48.559,333.72L49.722,333.044L47.335,331.665L46.172,332.341L48.559,333.72Z" style="fill:rgb(228,226,223);fill-rule:nonzero;"/>
        </g>
        <g transform="matrix(4.16667,0,0,4.16667,-122.94,-1254.53)">
            <path d="M51.071,337.951L52.234,337.275L49.722,333.044L48.559,333.72L51.071,337.951Z" style="fill:rgb(176,175,172);fill-rule:nonzero;"/>
        </g>
        <g transform="matrix(4.16667,0,0,4.16667,8.90328,-1331.44)">
            <path d="M51.071,337.951L52.234,337.275L49.722,333.044L48.559,333.72L51.071,337.951Z" style="fill:rgb(176,175,172);fill-rule:nonzero;"/>
        </g>
        <g transform="matrix(4.16667,0,0,4.16667,-122.94,-1254.53)">
            <path d="M52.301,338.662L53.464,337.986L52.234,337.275L51.071,337.951L52.301,338.662Z" style="fill:rgb(228,226,223);fill-rule:nonzero;"/>
        </g>
        <g transform="matrix(4.16667,0,0,4.16667,8.90328,-1331.44)">
            <path d="M52.301,338.662L53.464,337.986L52.234,337.275L51.071,337.951L52.301,338.662Z" style="fill:rgb(228,226,223);fill-rule:nonzero;"/>
        </g>
        <g transform="matrix(4.16667,0,0,4.16667,-122.94,-1254.53)">
            <path d="M52.301,338.93L53.464,338.254L53.464,337.986L52.301,338.662L52.301,338.93Z" style="fill:rgb(123,123,121);fill-rule:nonzero;"/>
        </g>
        <g transform="matrix(4.16667,0,0,4.16667,8.90328,-1331.44)">
            <path d="M52.301,338.93L53.464,338.254L53.464,337.986L52.301,338.662L52.301,338.93Z" style="fill:rgb(123,123,121);fill-rule:nonzero;"/>
        </g>
        <g transform="matrix(4.16667,0,0,4.16667,-122.94,-1254.53)">
            <path d="M46.172,332.341L46.171,332.61L48.463,333.933L50.975,338.165L52.301,338.93L52.301,338.662L51.071,337.951L48.559,333.72L46.172,332.341Z" style="fill:rgb(153,152,150);fill-rule:nonzero;"/>
        </g>
        <g transform="matrix(4.16667,0,0,4.16667,8.90328,-1331.44)">
            <path d="M46.172,332.341L46.171,332.61L48.463,333.933L50.975,338.165L52.301,338.93L52.301,338.662L51.071,337.951L48.559,333.72L46.172,332.341Z" style="fill:rgb(153,152,150);fill-rule:nonzero;"/>
        </g>
        <g transform="matrix(4.16667,0,0,4.16667,-122.94,-1254.53)">
            <g>
                <g>
                    <clipPath id="_clip7">
                        <path d="M64.839,321.024L64.835,322.449C64.834,322.89 64.544,323.33 63.965,323.666L63.969,322.241C64.548,321.905 64.838,321.464 64.839,321.024Z"/>
                    </clipPath>
                    <g clip-path="url(#_clip7)">
                        <path d="M64.839,321.024L64.835,322.449C64.834,322.89 64.544,323.33 63.965,323.666L63.969,322.241C64.548,321.905 64.838,321.465 64.839,321.024Z" style="fill:rgb(34,37,40);fill-rule:nonzero;"/>
                    </g>
                </g>
            </g>
        </g>
        <g transform="matrix(4.16667,0,0,4.16667,8.90328,-1331.44)">
            <g>
                <g>
                    <clipPath id="_clip8">
                        <path d="M64.839,321.024L64.835,322.449C64.834,322.89 64.544,323.33 63.965,323.666L63.969,322.241C64.548,321.905 64.838,321.464 64.839,321.024Z"/>
                    </clipPath>
                    <g clip-path="url(#_clip8)">
                        <path d="M64.839,321.024L64.835,322.449C64.834,322.89 64.544,323.33 63.965,323.666L63.969,322.241C64.548,321.905 64.838,321.465 64.839,321.024Z" style="fill:rgb(34,37,40);fill-rule:nonzero;"/>
                    </g>
                </g>
            </g>
        </g>
        <g transform="matrix(4.16667,0,0,4.16667,-122.94,-1254.53)">
            <g>
                <g>
                    <clipPath id="_clip9">
                        <path d="M25.045,322.432L25.049,321.007C25.047,321.453 25.342,321.901 25.932,322.241L25.928,323.667C25.338,323.326 25.043,322.879 25.045,322.432Z"/>
                    </clipPath>
                    <g clip-path="url(#_clip9)">
                        <path d="M25.932,322.241L25.928,323.667C25.338,323.326 25.043,322.879 25.045,322.432L25.049,321.007C25.047,321.453 25.342,321.901 25.932,322.241Z" style="fill:rgb(34,37,40);fill-rule:nonzero;"/>
                    </g>
                </g>
            </g>
        </g>
        <g transform="matrix(4.16667,0,0,4.16667,8.90328,-1331.44)">
            <g>
                <g>
                    <clipPath id="_clip10">
                        <path d="M25.045,322.432L25.049,321.007C25.047,321.453 25.342,321.901 25.932,322.241L25.928,323.667C25.338,323.326 25.043,322.879 25.045,322.432Z"/>
                    </clipPath>
                    <g clip-path="url(#_clip10)">
                        <path d="M25.932,322.241L25.928,323.667C25.338,323.326 25.043,322.879 25.045,322.432L25.049,321.007C25.047,321.453 25.342,321.901 25.932,322.241Z" style="fill:rgb(34,37,40);fill-rule:nonzero;"/>
                    </g>
                </g>
            </g>
        </g>
        <g transform="matrix(4.16667,0,0,4.16667,-122.94,-1254.53)">
            <path d="M63.969,322.241L63.965,323.666L47.118,333.457L47.122,332.032L63.969,322.241Z" style="fill:rgb(33,35,37);fill-rule:nonzero;"/>
        </g>
        <g transform="matrix(4.16667,0,0,4.16667,8.90328,-1331.44)">
            <path d="M63.969,322.241L63.965,323.666L47.118,333.457L47.122,332.032L63.969,322.241Z" style="fill:rgb(33,35,37);fill-rule:nonzero;"/>
        </g>
        <g transform="matrix(4.16667,0,0,4.16667,-122.94,-1254.53)">
            <path d="M42.889,332.032L42.885,333.457L25.928,323.667L25.932,322.241L42.889,332.032Z" style="fill:rgb(26,27,29);fill-rule:nonzero;"/>
        </g>
        <g transform="matrix(4.16667,0,0,4.16667,8.90328,-1331.44)">
            <path d="M42.889,332.032L42.885,333.457L25.928,323.667L25.932,322.241L42.889,332.032Z" style="fill:rgb(26,27,29);fill-rule:nonzero;"/>
        </g>
        <g transform="matrix(4.16667,0,0,4.16667,-122.94,-1254.53)">
            <g>
                <g>
                    <clipPath id="_clip11">
                        <path d="M47.122,332.031L47.118,333.457C45.953,334.134 44.06,334.135 42.885,333.457L42.889,332.032C44.064,332.71 45.957,332.708 47.122,332.031Z"/>
                    </clipPath>
                    <g clip-path="url(#_clip11)">
                        <path d="M47.122,332.032L47.118,333.457C45.953,334.134 44.06,334.135 42.885,333.457L42.889,332.032C44.064,332.71 45.958,332.708 47.122,332.032Z" style="fill:rgb(34,37,40);fill-rule:nonzero;"/>
                    </g>
                </g>
            </g>
        </g>
        <g transform="matrix(4.16667,0,0,4.16667,8.90328,-1331.44)">
            <g>
                <g>
                    <clipPath id="_clip12">
                        <path d="M47.122,332.031L47.118,333.457C45.953,334.134 44.06,334.135 42.885,333.457L42.889,332.032C44.064,332.71 45.957,332.708 47.122,332.031Z"/>
                    </clipPath>
                    <g clip-path="url(#_clip12)">
                        <path d="M47.122,332.032L47.118,333.457C45.953,334.134 44.06,334.135 42.885,333.457L42.889,332.032C44.064,332.71 45.958,332.708 47.122,332.032Z" style="fill:rgb(34,37,40);fill-rule:nonzero;"/>
                    </g>
                </g>
            </g>
        </g>
    </g>
</svg>
