<?xml version="1.0" encoding="UTF-8" standalone="no"?>
<!DOCTYPE svg PUBLIC "-//W3C//DTD SVG 1.1//EN" "http://www.w3.org/Graphics/SVG/1.1/DTD/svg11.dtd">
<svg width="100%" height="100%" viewBox="0 0 425 257" version="1.1" xmlns="http://www.w3.org/2000/svg" xmlns:xlink="http://www.w3.org/1999/xlink" xml:space="preserve" xmlns:serif="http://www.serif.com/" style="fill-rule:evenodd;clip-rule:evenodd;stroke-linejoin:round;stroke-miterlimit:2;">
    <g transform="matrix(0.0297325,-0.017166,-0.0297325,-0.017166,206.939,222.515)">
        <path d="M944.276,5296.13C927.276,5286.13 715,5071 708,5058C698,5040 694,4854 690,4140L685,3246L560.877,3258.72L350,3048L350,2245L520,2146L690,2046L690,1922L564.958,1931.31L355,1723L355,916L523,817L690,718L690,414C690,76 693,56 752,20C785,0 781.612,-31.153 2728,0C3997.8,20.324 4469.81,35.786 4647.95,50.712C4696.25,54.759 4729.23,50.55 4758.42,69.863C4807.35,102.235 4944.83,244.942 4944.83,244.942C4944.83,244.942 4765,869.087 4765,2560C4765,4957 4764,5026 4746,5056C4704,5126 4882,5120 2728,5120C822,5120 975.276,5316.13 944.276,5296.13ZM1328,4383L1330,3860L1000,3860L1000,4910L1163,4908L1325,4905L1328,4383ZM1840,4910L1840,3990L1510,3990L1510,4443C1510,4693 1513,4900 1517,4903C1520,4907 1595,4910 1682,4910L1840,4910ZM2360,4910L2360,3860L2030,3860L2030,4910L2360,4910ZM2870,4910L2870,3990L2708,3992L2545,3995L2542,4440C2541,4685 2542,4891 2545,4898C2548,4907 2591,4910 2710,4910L2870,4910ZM3390,4910L3390,3860L3060,3860L3060,4910L3390,4910ZM3900,4910L3900,3990L3738,3992L3575,3995L3572,4440C3571,4685 3572,4891 3575,4898C3578,4907 3621,4910 3740,4910L3900,4910ZM4420,4910L4420,3860L4090,3860L4090,4910L4420,4910ZM4307,2307L4345,2270L4348,1352C4350,478 4349,433 4332,401C4322,382 4298,358 4279,348C4247,331 4178,330 2705,330C1195,330 1164,330 1133,350C1066,390 1070,334 1070,1342C1070,2240 1070,2256 1090,2288C1130,2353 1021,2350 2722,2347L4270,2345L4307,2307Z" style="fill:rgb(84,84,84);fill-rule:nonzero;"/>
    </g>
    <g transform="matrix(0.349313,-0.201676,0.435477,0.251422,-53.4926,54.1462)">
        <rect x="50.156" y="279.712" width="314.56" height="95.107" style="fill:rgb(255,214,0);"/>
    </g>
    <g transform="matrix(0.349313,-0.201676,0.744351,0.429751,-67.7282,45.9272)">
        <rect x="50.156" y="279.712" width="314.56" height="95.107" style="fill:white;"/>
    </g>
    <g transform="matrix(0.0297325,-0.017166,-0.0297325,-0.017166,206.939,215.273)">
        <path d="M753,5100C736,5090 715,5071 708,5058C698,5040 694,4854 690,4140L685,3246L518,3147L350,3048L350,2245L520,2146L690,2046L690,1922L523,1823L355,1723L355,916L523,817L690,718L690,414C690,76 693,56 752,20C785,0 797,0 2728,0C4882,0 4712.58,-6.434 4746,64C4749.71,71.811 4749.06,86.081 4751.27,106.549C4761.54,201.668 4765,587.454 4765,2560C4765,4957 4764,5026 4746,5056C4704,5126 4882,5120 2728,5120C822,5120 784,5120 753,5100ZM1328,4383L1330,3860L1000,3860L1000,4910L1163,4908L1325,4905L1328,4383ZM1840,4910L1840,3990L1510,3990L1510,4443C1510,4693 1513,4900 1517,4903C1520,4907 1595,4910 1682,4910L1840,4910ZM2360,4910L2360,3860L2030,3860L2030,4910L2360,4910ZM2870,4910L2870,3990L2708,3992L2545,3995L2542,4440C2541,4685 2542,4891 2545,4898C2548,4907 2591,4910 2710,4910L2870,4910ZM3390,4910L3390,3860L3060,3860L3060,4910L3390,4910ZM3900,4910L3900,3990L3738,3992L3575,3995L3572,4440C3571,4685 3572,4891 3575,4898C3578,4907 3621,4910 3740,4910L3900,4910ZM4420,4910L4420,3860L4090,3860L4090,4910L4420,4910ZM4307,2307L4345,2270L4348,1352C4350,478 4349,433 4332,401C4322,382 4298,358 4279,348C4247,331 4178,330 2705,330C1195,330 1164,330 1133,350C1066,390 1070,334 1070,1342C1070,2240 1070,2256 1090,2288C1130,2353 1021,2350 2722,2347L4270,2345L4307,2307Z" style="fill-rule:nonzero;"/>
    </g>
    <g transform="matrix(1.34407,-0.776001,1.34407,0.776001,213.208,174.025)">
        <text x="0px" y="0px" style="font-family:'Helvetica';font-size:16px;">microSD</text>
    </g>
</svg>
