<?xml version="1.0" encoding="UTF-8" standalone="no"?>
<!DOCTYPE svg PUBLIC "-//W3C//DTD SVG 1.1//EN" "http://www.w3.org/Graphics/SVG/1.1/DTD/svg11.dtd">
<svg width="100%" height="100%" viewBox="0 0 425 257" version="1.1" xmlns="http://www.w3.org/2000/svg" xmlns:xlink="http://www.w3.org/1999/xlink" xml:space="preserve" xmlns:serif="http://www.serif.com/" style="fill-rule:evenodd;clip-rule:evenodd;stroke-linejoin:round;stroke-miterlimit:2;">
    <g transform="matrix(0.0251263,-0.0145067,-0.0251263,-0.0145067,286.681,207.815)">
        <path d="M944.276,5296.13C927.276,5286.13 715,5071 708,5058C698,5040 694,4854 690,4140L685,3246L560.877,3258.72L350,3048L350,2245L520,2146L690,2046L690,1922L564.958,1931.31L355,1723L355,916L523,817L690,718L690,414C690,76 693,56 752,20C785,0 781.612,-31.153 2728,0C3997.8,20.324 4469.81,35.786 4647.95,50.712C4696.25,54.759 4729.23,50.55 4758.42,69.863C4807.35,102.235 4944.83,244.942 4944.83,244.942C4944.83,244.942 4765,869.087 4765,2560C4765,4957 4764,5026 4746,5056C4704,5126 4882,5120 2728,5120C822,5120 975.276,5316.13 944.276,5296.13ZM1328,4383L1330,3860L1000,3860L1000,4910L1163,4908L1325,4905L1328,4383ZM1840,4910L1840,3990L1510,3990L1510,4443C1510,4693 1513,4900 1517,4903C1520,4907 1595,4910 1682,4910L1840,4910ZM2360,4910L2360,3860L2030,3860L2030,4910L2360,4910ZM2870,4910L2870,3990L2708,3992L2545,3995L2542,4440C2541,4685 2542,4891 2545,4898C2548,4907 2591,4910 2710,4910L2870,4910ZM3390,4910L3390,3860L3060,3860L3060,4910L3390,4910ZM3900,4910L3900,3990L3738,3992L3575,3995L3572,4440C3571,4685 3572,4891 3575,4898C3578,4907 3621,4910 3740,4910L3900,4910ZM4420,4910L4420,3860L4090,3860L4090,4910L4420,4910ZM4307,2307L4345,2270L4348,1352C4350,478 4349,433 4332,401C4322,382 4298,358 4279,348C4247,331 4178,330 2705,330C1195,330 1164,330 1133,350C1066,390 1070,334 1070,1342C1070,2240 1070,2256 1090,2288C1130,2353 1021,2350 2722,2347L4270,2345L4307,2307Z" style="fill:rgb(84,84,84);fill-rule:nonzero;"/>
    </g>
    <g transform="matrix(0.295196,-0.170432,0.368012,0.212472,66.5961,65.5303)">
        <rect x="50.156" y="279.712" width="314.56" height="95.107" style="fill:rgb(255,214,0);"/>
    </g>
    <g transform="matrix(0.295196,-0.170432,0.629035,0.363173,54.5659,58.5846)">
        <rect x="50.156" y="279.712" width="314.56" height="95.107" style="fill:white;"/>
    </g>
    <g transform="matrix(0.0251263,-0.0145067,-0.0251263,-0.0145067,286.681,201.695)">
        <path d="M753,5100C736,5090 715,5071 708,5058C698,5040 694,4854 690,4140L685,3246L518,3147L350,3048L350,2245L520,2146L690,2046L690,1922L523,1823L355,1723L355,916L523,817L690,718L690,414C690,76 693,56 752,20C785,0 797,0 2728,0C4882,0 4712.58,-6.434 4746,64C4749.71,71.811 4749.06,86.081 4751.27,106.549C4761.54,201.668 4765,587.454 4765,2560C4765,4957 4764,5026 4746,5056C4704,5126 4882,5120 2728,5120C822,5120 784,5120 753,5100ZM1328,4383L1330,3860L1000,3860L1000,4910L1163,4908L1325,4905L1328,4383ZM1840,4910L1840,3990L1510,3990L1510,4443C1510,4693 1513,4900 1517,4903C1520,4907 1595,4910 1682,4910L1840,4910ZM2360,4910L2360,3860L2030,3860L2030,4910L2360,4910ZM2870,4910L2870,3990L2708,3992L2545,3995L2542,4440C2541,4685 2542,4891 2545,4898C2548,4907 2591,4910 2710,4910L2870,4910ZM3390,4910L3390,3860L3060,3860L3060,4910L3390,4910ZM3900,4910L3900,3990L3738,3992L3575,3995L3572,4440C3571,4685 3572,4891 3575,4898C3578,4907 3621,4910 3740,4910L3900,4910ZM4420,4910L4420,3860L4090,3860L4090,4910L4420,4910ZM4307,2307L4345,2270L4348,1352C4350,478 4349,433 4332,401C4322,382 4298,358 4279,348C4247,331 4178,330 2705,330C1195,330 1164,330 1133,350C1066,390 1070,334 1070,1342C1070,2240 1070,2256 1090,2288C1130,2353 1021,2350 2722,2347L4270,2345L4307,2307Z" style="fill-rule:nonzero;"/>
    </g>
    <g transform="matrix(2.117,-1.22225,2.117,1.22225,-424.215,30.2654)">
        <g transform="matrix(0.536536,4.69113e-17,4.69113e-17,0.536536,113.284,225.022)">
            <text x="0px" y="0px" style="font-family:'Helvetica';font-size:16px;">microSD</text>
        </g>
        <g transform="matrix(1,0,0,1,3.27955,-1.7003)">
            <g transform="matrix(0.545684,0.545684,-0.945152,0.945152,240.333,-422.477)">
                <path d="M422.771,403.01L420.794,401.861L423.962,400.032L425.939,401.181L422.771,403.01Z" style="fill:rgb(244,243,240);fill-rule:nonzero;"/>
            </g>
            <g transform="matrix(0.545684,0.545684,-0.945152,0.945152,240.333,-422.477)">
                <path d="M422.771,403.01L422.774,403.924L425.469,402.368L425.939,401.181L422.771,403.01Z" style="fill:rgb(223,223,222);fill-rule:nonzero;"/>
            </g>
            <g transform="matrix(0.545684,0.545684,-0.945152,0.945152,240.333,-422.477)">
                <path d="M430.883,407.82L430.85,410.71L412.648,421.288L412.681,418.398L430.883,407.82Z" style="fill:rgb(31,34,36);fill-rule:nonzero;"/>
            </g>
            <g transform="matrix(0.545684,0.545684,-0.945152,0.945152,240.333,-422.477)">
                <path d="M412.681,418.398L412.648,421.288L369.862,396.557L369.895,393.667L412.681,418.398Z" style="fill:rgb(43,45,47);fill-rule:nonzero;"/>
            </g>
            <g transform="matrix(0.545684,0.545684,-0.945152,0.945152,240.333,-422.477)">
                <path d="M430.883,407.82L412.681,418.398L369.895,393.667L388.096,383.09L430.883,407.82Z" style="fill:rgb(23,25,27);fill-rule:nonzero;"/>
            </g>
            <g transform="matrix(0.545684,0.545684,-0.945152,0.945152,240.333,-422.477)">
                <path d="M435.207,406.307L430.067,403.32L432.752,401.77L437.892,404.757L435.207,406.307Z" style="fill:rgb(205,205,205);fill-rule:nonzero;"/>
            </g>
            <g transform="matrix(0.545684,0.545684,-0.945152,0.945152,240.333,-422.477)">
                <path d="M430.328,404.404L425.188,401.417L430.067,403.32L435.207,406.307L430.328,404.404Z" style="fill:rgb(158,161,168);fill-rule:nonzero;"/>
            </g>
            <g transform="matrix(0.545684,0.545684,-0.945152,0.945152,240.333,-422.477)">
                <path d="M426.839,406.876L421.699,403.889L421.698,403.432L426.838,406.419L426.839,406.876Z" style="fill:rgb(205,205,205);fill-rule:nonzero;"/>
            </g>
            <g transform="matrix(0.545684,0.545684,-0.945152,0.945152,240.333,-422.477)">
                <path d="M426.838,406.419L421.698,403.432L425.188,401.417L430.328,404.404L426.838,406.419Z" style="fill:rgb(205,205,205);fill-rule:nonzero;"/>
            </g>
            <g transform="matrix(0.545684,0.545684,-0.945152,0.945152,240.333,-422.477)">
                <path d="M430.328,404.404L435.207,406.307L437.892,404.757L437.893,405.216L435.063,406.85L430.184,404.945L426.839,406.876L426.838,406.419L430.328,404.404Z" style="fill:rgb(205,205,205);fill-rule:nonzero;"/>
            </g>
            <g transform="matrix(0.545684,0.545684,-0.945152,0.945152,240.333,-422.477)">
                <path d="M424.571,400.147L419.431,397.16L422.115,395.61L427.255,398.597L424.571,400.147Z" style="fill:rgb(205,205,205);fill-rule:nonzero;"/>
            </g>
            <g transform="matrix(0.545684,0.545684,-0.945152,0.945152,240.333,-422.477)">
                <path d="M419.692,398.244L414.552,395.257L419.431,397.16L424.571,400.147L419.692,398.244Z" style="fill:rgb(100,101,101);fill-rule:nonzero;"/>
            </g>
            <g transform="matrix(0.545684,0.545684,-0.945152,0.945152,240.333,-422.477)">
                <path d="M416.203,400.716L411.063,397.729L411.061,397.272L416.201,400.259L416.203,400.716Z" style="fill:rgb(205,205,205);fill-rule:nonzero;"/>
            </g>
            <g transform="matrix(0.545684,0.545684,-0.945152,0.945152,240.333,-422.477)">
                <path d="M416.201,400.259L411.061,397.272L414.552,395.257L419.692,398.244L416.201,400.259Z" style="fill:rgb(124,125,125);fill-rule:nonzero;"/>
            </g>
            <g transform="matrix(0.545684,0.545684,-0.945152,0.945152,240.333,-422.477)">
                <path d="M419.692,398.244L424.571,400.147L427.255,398.597L427.257,399.056L424.427,400.69L419.548,398.785L416.203,400.716L416.201,400.259L419.692,398.244Z" style="fill:rgb(169,168,168);fill-rule:nonzero;"/>
            </g>
            <g transform="matrix(0.545684,0.545684,-0.945152,0.945152,240.333,-422.477)">
                <path d="M414.135,394.123L408.995,391.136L411.679,389.586L416.819,392.573L414.135,394.123Z" style="fill:rgb(205,205,205);fill-rule:nonzero;"/>
            </g>
            <g transform="matrix(0.545684,0.545684,-0.945152,0.945152,240.333,-422.477)">
                <path d="M409.256,392.219L404.116,389.232L408.995,391.136L414.135,394.123L409.256,392.219Z" style="fill:rgb(100,101,101);fill-rule:nonzero;"/>
            </g>
            <g transform="matrix(0.545684,0.545684,-0.945152,0.945152,240.333,-422.477)">
                <path d="M405.767,394.691L400.627,391.704L400.625,391.247L405.765,394.234L405.767,394.691Z" style="fill:rgb(205,205,205);fill-rule:nonzero;"/>
            </g>
            <g transform="matrix(0.545684,0.545684,-0.945152,0.945152,240.333,-422.477)">
                <path d="M405.765,394.234L400.625,391.247L404.116,389.232L409.256,392.219L405.765,394.234Z" style="fill:rgb(124,125,125);fill-rule:nonzero;"/>
            </g>
            <g transform="matrix(0.545684,0.545684,-0.945152,0.945152,240.333,-422.477)">
                <path d="M409.256,392.219L414.135,394.123L416.819,392.573L416.821,393.032L413.991,394.665L409.112,392.76L405.767,394.691L405.765,394.234L409.256,392.219Z" style="fill:rgb(169,168,168);fill-rule:nonzero;"/>
            </g>
            <g transform="matrix(0.545684,0.545684,-0.945152,0.945152,240.333,-422.477)">
                <path d="M403.289,388.279L398.149,385.292L400.834,383.742L405.974,386.729L403.289,388.279Z" style="fill:rgb(205,205,205);fill-rule:nonzero;"/>
            </g>
            <g transform="matrix(0.545684,0.545684,-0.945152,0.945152,240.333,-422.477)">
                <path d="M398.41,386.376L393.27,383.389L398.149,385.292L403.289,388.279L398.41,386.376Z" style="fill:rgb(100,101,101);fill-rule:nonzero;"/>
            </g>
            <g transform="matrix(0.545684,0.545684,-0.945152,0.945152,240.333,-422.477)">
                <path d="M394.921,388.848L389.781,385.861L389.78,385.404L394.92,388.391L394.921,388.848Z" style="fill:rgb(205,205,205);fill-rule:nonzero;"/>
            </g>
            <g transform="matrix(0.545684,0.545684,-0.945152,0.945152,240.333,-422.477)">
                <path d="M394.92,388.391L389.78,385.404L393.27,383.389L398.41,386.376L394.92,388.391Z" style="fill:rgb(124,125,125);fill-rule:nonzero;"/>
            </g>
            <g transform="matrix(0.545684,0.545684,-0.945152,0.945152,240.333,-422.477)">
                <path d="M398.41,386.376L403.289,388.279L405.974,386.729L405.975,387.188L403.145,388.822L398.266,386.916L394.921,388.848L394.92,388.391L398.41,386.376Z" style="fill:rgb(169,168,168);fill-rule:nonzero;"/>
            </g>
            <g transform="matrix(0.545684,0.545684,-0.945152,0.945152,240.333,-422.477)">
                <path d="M393.752,382.95L388.612,379.963L391.297,378.413L396.437,381.4L393.752,382.95Z" style="fill:rgb(205,205,205);fill-rule:nonzero;"/>
            </g>
            <g transform="matrix(0.545684,0.545684,-0.945152,0.945152,240.333,-422.477)">
                <path d="M388.873,381.046L393.752,382.95L396.437,381.4L396.438,381.859L393.609,383.492L388.73,381.587L385.384,383.518L385.383,383.062L388.873,381.046Z" style="fill:rgb(169,168,168);fill-rule:nonzero;"/>
            </g>
            <g transform="matrix(0.545684,0.545684,-0.945152,0.945152,240.333,-422.477)">
                <path d="M376.747,398.864L371.607,395.877L375.098,393.862L380.238,396.849L376.747,398.864Z" style="fill:rgb(244,243,240);fill-rule:nonzero;"/>
            </g>
            <g transform="matrix(0.545684,0.545684,-0.945152,0.945152,240.333,-422.477)">
                <path d="M371.893,406.388L366.753,403.401L371.607,395.877L376.747,398.864L371.893,406.388Z" style="fill:rgb(205,205,205);fill-rule:nonzero;"/>
            </g>
            <g transform="matrix(0.545684,0.545684,-0.945152,0.945152,240.333,-422.477)">
                <path d="M369.209,407.938L364.069,404.951L366.753,403.401L371.893,406.388L369.209,407.938Z" style="fill:rgb(244,243,240);fill-rule:nonzero;"/>
            </g>
            <g transform="matrix(0.545684,0.545684,-0.945152,0.945152,240.333,-422.477)">
                <path d="M369.21,408.395L364.07,405.408L364.069,404.951L369.209,407.938L369.21,408.395Z" style="fill:rgb(205,205,205);fill-rule:nonzero;"/>
            </g>
            <g transform="matrix(0.545684,0.545684,-0.945152,0.945152,240.333,-422.477)">
                <path d="M380.238,396.849L380.239,397.305L376.894,399.237L372.039,406.762L369.21,408.395L369.209,407.938L371.893,406.388L376.747,398.864L380.238,396.849Z" style="fill:rgb(205,205,205);fill-rule:nonzero;"/>
            </g>
            <g transform="matrix(0.545684,0.545684,-0.945152,0.945152,240.333,-422.477)">
                <path d="M387.256,404.933L382.116,401.946L385.607,399.931L390.747,402.918L387.256,404.933Z" style="fill:rgb(244,243,240);fill-rule:nonzero;"/>
            </g>
            <g transform="matrix(0.545684,0.545684,-0.945152,0.945152,240.333,-422.477)">
                <path d="M382.402,412.458L377.262,409.471L382.116,401.946L387.256,404.933L382.402,412.458Z" style="fill:rgb(205,205,205);fill-rule:nonzero;"/>
            </g>
            <g transform="matrix(0.545684,0.545684,-0.945152,0.945152,240.333,-422.477)">
                <path d="M379.717,414.008L374.578,411.021L377.262,409.471L382.402,412.458L379.717,414.008Z" style="fill:rgb(244,243,240);fill-rule:nonzero;"/>
            </g>
            <g transform="matrix(0.545684,0.545684,-0.945152,0.945152,240.333,-422.477)">
                <path d="M379.719,414.465L374.579,411.478L374.578,411.021L379.717,414.008L379.719,414.465Z" style="fill:rgb(205,205,205);fill-rule:nonzero;"/>
            </g>
            <g transform="matrix(0.545684,0.545684,-0.945152,0.945152,240.333,-422.477)">
                <path d="M390.747,402.918L390.748,403.375L387.403,405.306L382.548,412.831L379.719,414.465L379.717,414.008L382.402,412.458L387.256,404.933L390.747,402.918Z" style="fill:rgb(205,205,205);fill-rule:nonzero;"/>
            </g>
            <g transform="matrix(0.545684,0.545684,-0.945152,0.945152,240.333,-422.477)">
                <path d="M397.766,410.999L392.626,408.012L396.117,405.997L401.257,408.984L397.766,410.999Z" style="fill:rgb(244,243,240);fill-rule:nonzero;"/>
            </g>
            <g transform="matrix(0.545684,0.545684,-0.945152,0.945152,240.333,-422.477)">
                <path d="M392.912,418.524L387.772,415.537L392.626,408.012L397.766,410.999L392.912,418.524Z" style="fill:rgb(205,205,205);fill-rule:nonzero;"/>
            </g>
            <g transform="matrix(0.545684,0.545684,-0.945152,0.945152,240.333,-422.477)">
                <path d="M390.228,420.074L385.088,417.087L387.772,415.537L392.912,418.524L390.228,420.074Z" style="fill:rgb(244,243,240);fill-rule:nonzero;"/>
            </g>
            <g transform="matrix(0.545684,0.545684,-0.945152,0.945152,240.333,-422.477)">
                <path d="M390.229,420.531L385.089,417.544L385.088,417.087L390.228,420.074L390.229,420.531Z" style="fill:rgb(205,205,205);fill-rule:nonzero;"/>
            </g>
            <g transform="matrix(0.545684,0.545684,-0.945152,0.945152,240.333,-422.477)">
                <path d="M401.257,408.984L401.258,409.441L397.913,411.372L393.059,418.897L390.229,420.531L390.228,420.074L392.912,418.524L397.766,410.999L401.257,408.984Z" style="fill:rgb(205,205,205);fill-rule:nonzero;"/>
            </g>
            <g transform="matrix(0.545684,0.545684,-0.945152,0.945152,240.333,-422.477)">
                <path d="M408.329,417.095L403.189,414.108L406.68,412.093L411.82,415.08L408.329,417.095Z" style="fill:rgb(244,243,240);fill-rule:nonzero;"/>
            </g>
            <g transform="matrix(0.545684,0.545684,-0.945152,0.945152,240.333,-422.477)">
                <path d="M403.475,424.62L398.335,421.633L403.189,414.108L408.329,417.095L403.475,424.62Z" style="fill:rgb(205,205,205);fill-rule:nonzero;"/>
            </g>
            <g transform="matrix(0.545684,0.545684,-0.945152,0.945152,240.333,-422.477)">
                <path d="M400.791,426.17L395.651,423.183L398.335,421.633L403.475,424.62L400.791,426.17Z" style="fill:rgb(244,243,240);fill-rule:nonzero;"/>
            </g>
            <g transform="matrix(0.545684,0.545684,-0.945152,0.945152,240.333,-422.477)">
                <path d="M400.792,426.627L395.652,423.64L395.651,423.183L400.791,426.17L400.792,426.627Z" style="fill:rgb(205,205,205);fill-rule:nonzero;"/>
            </g>
            <g transform="matrix(0.545684,0.545684,-0.945152,0.945152,240.333,-422.477)">
                <path d="M411.82,415.08L411.821,415.537L408.476,417.469L403.622,424.993L400.792,426.627L400.791,426.17L403.475,424.62L408.329,417.095L411.82,415.08Z" style="fill:rgb(205,205,205);fill-rule:nonzero;"/>
            </g>
            <g transform="matrix(0.545684,0.545684,-0.945152,0.945152,240.333,-422.477)">
                <path d="M428.09,401.245L428.063,408.081L412.831,416.932L412.859,410.097L428.09,401.245Z" style="fill:rgb(31,34,36);fill-rule:nonzero;"/>
            </g>
            <g transform="matrix(0.545684,0.545684,-0.945152,0.945152,240.333,-422.477)">
                <path d="M412.859,410.097L412.831,416.932L372.303,393.533L372.33,386.698L412.859,410.097Z" style="fill:rgb(39,42,46);fill-rule:nonzero;"/>
            </g>
            <g transform="matrix(0.545684,0.545684,-0.945152,0.945152,240.333,-422.477)">
                <path d="M428.09,401.245L412.859,410.097L372.33,386.698L387.562,377.846L428.09,401.245Z" style="fill:rgb(53,55,60);fill-rule:nonzero;"/>
            </g>
            <g transform="matrix(0.545684,0.545684,-0.945152,0.945152,240.333,-422.477)">
                <path d="M378.342,387.419L411.598,406.614L422.079,400.523L388.823,381.329L378.342,387.419ZM411.599,407.148L411.483,407.081L377.421,387.421L388.822,380.795L388.938,380.862L423,400.522L411.599,407.148Z" style="fill:rgb(205,205,205);fill-rule:nonzero;"/>
            </g>
            <g transform="matrix(0.545684,0.545684,-0.945152,0.945152,240.333,-422.477)">
                <path d="M402.51,396.097L383.583,385.169L387.701,382.792L406.628,393.719L402.51,396.097Z" style="fill:rgb(223,223,222);fill-rule:nonzero;"/>
            </g>
            <g transform="matrix(0.545684,0.545684,-0.945152,0.945152,240.333,-422.477)">
                <path d="M415.135,403.386L408.318,399.45L412.436,397.073L419.253,401.009L415.135,403.386Z" style="fill:rgb(223,223,222);fill-rule:nonzero;"/>
            </g>
            <g transform="matrix(0.545684,0.545684,-0.945152,0.945152,240.333,-422.477)">
                <path d="M408.064,398.088L405.058,396.353L407.071,395.19L410.077,396.926L408.064,398.088Z" style="fill:rgb(223,223,222);fill-rule:nonzero;"/>
            </g>
        </g>
    </g>
</svg>
