<?xml version="1.0" encoding="UTF-8" standalone="no"?>
<!DOCTYPE svg PUBLIC "-//W3C//DTD SVG 1.1//EN" "http://www.w3.org/Graphics/SVG/1.1/DTD/svg11.dtd">
<svg width="100%" height="100%" viewBox="0 0 73 79" version="1.1" xmlns="http://www.w3.org/2000/svg" xmlns:xlink="http://www.w3.org/1999/xlink" xml:space="preserve" xmlns:serif="http://www.serif.com/" style="fill-rule:evenodd;clip-rule:evenodd;stroke-linejoin:round;stroke-miterlimit:2;">
    <g id="Artboard1" transform="matrix(1,0,0,1,-231.241,-354.28)">
        <g transform="matrix(0.614587,0,0,0.614587,103.063,151.716)">
            <rect x="231.241" y="354.28" width="72.336" height="78.73" style="fill:none;"/>
        </g>
        <g id="OBJECTS" transform="matrix(0.614587,0,0,0.614587,103.211,151.888)">
            <g transform="matrix(-0.970023,0,0,1,271.603,392.074)">
                <path d="M0,-34.235L32.806,-15.299L8.835,-1.457L8.836,0L-23.97,-18.935L-23.97,-20.392L0,-34.235Z" style="fill:rgb(77,77,77);fill-rule:nonzero;"/>
            </g>
            <g transform="matrix(-0.970023,0,0,1,263.033,414.652)">
                <path d="M0,-24.035L23.97,-37.878L23.975,0.001L0.004,13.843L-1.257,13.115L-1.262,-24.763L0,-24.035Z" style="fill:rgb(62,64,64);fill-rule:nonzero;"/>
            </g>
            <g transform="matrix(-0.000102437,1,-0.970023,-0.000105602,269.753,416.488)">
                <path d="M-25.87,6.931L12.008,6.931L-6.931,-25.872L-44.81,-25.873L-25.87,6.931Z" style="fill:rgb(128,128,128);fill-rule:nonzero;"/>
            </g>
            <g transform="matrix(0.97002,-0.00275861,0.00267592,0.999996,264.261,392.071)">
                <path d="M-0.002,-1.451C-0.352,-1.251 -0.634,-0.764 -0.634,-0.364C-0.634,0.037 -0.352,0.2 -0.002,-0.001C0.348,-0.201 0.63,-0.688 0.63,-1.088C0.63,-1.489 0.348,-1.651 -0.002,-1.451" style="fill:rgb(204,204,204);fill-rule:nonzero;"/>
            </g>
            <g transform="matrix(0.97002,-0.00275861,0.00267592,0.999996,293.642,374.599)">
                <path d="M-0.002,-1.451C-0.352,-1.251 -0.634,-0.764 -0.634,-0.364C-0.634,0.037 -0.352,0.2 -0.002,-0.001C0.348,-0.201 0.63,-0.688 0.63,-1.088C0.63,-1.489 0.348,-1.651 -0.002,-1.451" style="fill:rgb(204,204,204);fill-rule:nonzero;"/>
            </g>
            <g transform="matrix(0.97002,-0.00275861,0.00267592,0.999996,293.632,409.557)">
                <path d="M-0.002,-1.451C-0.352,-1.251 -0.634,-0.764 -0.634,-0.364C-0.634,0.037 -0.352,0.2 -0.002,-0.001C0.348,-0.201 0.63,-0.688 0.63,-1.088C0.63,-1.489 0.348,-1.651 -0.002,-1.451" style="fill:rgb(204,204,204);fill-rule:nonzero;"/>
            </g>
            <g transform="matrix(0.97002,-0.00275861,0.00267592,0.999996,264.257,427.036)">
                <path d="M-0.002,-1.451C-0.352,-1.251 -0.634,-0.764 -0.634,-0.364C-0.634,0.037 -0.352,0.2 -0.002,-0.001C0.348,-0.201 0.63,-0.688 0.63,-1.088C0.63,-1.489 0.348,-1.651 -0.002,-1.451" style="fill:rgb(204,204,204);fill-rule:nonzero;"/>
            </g>
            <g transform="matrix(0.97002,-0.00272613,0.00264441,0.999996,279.245,414.929)">
                <path d="M-0.042,-30.446C-7.371,-26.242 -13.311,-16.02 -13.311,-7.612C-13.311,0.797 -7.371,4.204 -0.042,0C7.288,-4.204 13.228,-14.426 13.228,-22.834C13.228,-31.243 7.288,-34.65 -0.042,-30.446" style="fill:rgb(65,65,65);fill-rule:nonzero;"/>
            </g>
            <g transform="matrix(0.97002,-0.00273635,0.00265432,0.999996,279.231,412.313)">
                <path d="M-0.034,-25.215C-6.104,-21.733 -11.024,-13.268 -11.024,-6.303C-11.024,0.661 -6.104,3.482 -0.034,0.001C6.037,-3.481 10.956,-11.946 10.956,-18.911C10.956,-25.875 6.037,-28.697 -0.034,-25.215" style="fill:rgb(59,59,60);fill-rule:nonzero;"/>
            </g>
            <g transform="matrix(-0.970023,0,0,1,269.635,393.406)">
                <path d="M0,11.972C-0.013,16.886 -2.76,19.486 -6.577,18.83C-6.584,18.823 -6.591,18.823 -6.598,18.823C-7.618,18.655 -8.709,18.243 -9.855,17.586C-15.279,14.455 -19.663,6.865 -19.65,0.63C-19.629,-4.913 -16.142,-7.514 -11.556,-5.823C-11.549,-5.83 -11.542,-5.83 -11.535,-5.816C-10.969,-5.606 -10.389,-5.327 -9.795,-4.984C-4.37,-1.853 0.013,5.737 0,11.972" style="fill:rgb(128,128,128);fill-rule:nonzero;"/>
            </g>
            <g transform="matrix(-0.970023,0,0,1,269.635,394.441)">
                <path d="M0,10.937C-0.013,15.851 -2.76,18.451 -6.577,17.795C-6.584,17.788 -6.591,17.788 -6.598,17.788C-7.164,17.578 -7.744,17.299 -8.338,16.956C-13.77,13.825 -18.146,6.235 -18.133,0C-18.119,-4.907 -15.373,-7.514 -11.556,-6.858C-11.549,-6.865 -11.542,-6.865 -11.535,-6.851C-10.969,-6.641 -10.389,-6.362 -9.795,-6.019C-4.37,-2.888 0.013,4.702 0,10.937" style="fill:rgb(179,179,179);fill-rule:nonzero;"/>
            </g>
            <g transform="matrix(-0.970023,0,0,1,270.117,392.043)">
                <path d="M0,14.654L1.024,14.073L2.085,14.69L1.067,15.27L0,14.654ZM2.086,16.057L1.002,16.688L-0.03,16.093L1.067,15.469L2.086,16.057ZM-0.256,17.42L-1.301,16.817L-0.203,16.192L0.83,16.788L-0.256,17.42ZM-1.504,18.145L-2.557,17.533L-1.474,16.915L-0.428,17.519L-1.504,18.145ZM-2.765,18.879L-3.833,18.259L-2.731,17.631L-1.675,18.245L-2.765,18.879ZM-4.027,19.613L-5.111,18.987L-4.007,18.358L-2.936,18.978L-4.027,19.613ZM-5.284,20.344L-6.382,19.711L-5.285,19.086L-4.199,19.713L-5.284,20.344ZM-7.638,18.985L-6.539,18.362L-5.457,18.986L-6.555,19.611L-7.638,18.985ZM-8.902,18.256L-7.804,17.632L-6.712,18.262L-7.811,18.886L-8.902,18.256ZM-10.165,17.527L-9.068,16.902L-7.977,17.532L-9.075,18.156L-10.165,17.527ZM-11.448,16.786L-10.358,16.157L-9.241,16.803L-10.338,17.427L-11.448,16.786ZM-12.709,16.058L-11.62,15.429L-10.53,16.058L-11.62,16.687L-12.709,16.058ZM-13.971,15.33L-12.882,14.701L-11.792,15.33L-12.881,15.959L-13.971,15.33ZM-15.233,14.601L-14.144,13.973L-13.054,14.602L-14.143,15.231L-15.233,14.601ZM-16.494,13.874L-15.405,13.245L-14.316,13.873L-15.405,14.502L-16.494,13.874ZM-16.495,12.417L-15.374,11.769L-14.287,12.4L-15.405,13.046L-16.495,12.417ZM-17.757,11.688L-16.634,11.04L-15.546,11.67L-16.667,12.317L-17.757,11.688ZM-17.721,10.21L-16.604,9.566L-15.518,10.197L-16.633,10.841L-17.721,10.21ZM-18.98,9.481L-17.861,8.835L-16.776,9.466L-17.892,10.111L-18.98,9.481ZM-18.947,8.005L-17.929,7.417L-16.84,8.046L-17.861,8.636L-18.947,8.005ZM-20.129,7.317L-19.12,6.73L-18.101,7.318L-19.118,7.905L-20.129,7.317ZM-20.281,5.861L-19.192,5.232L-18.036,5.899L-19.12,6.531L-20.281,5.861ZM-20.281,4.404L-19.192,3.775L-18.102,4.404L-19.192,5.033L-20.281,4.404ZM-20.281,2.948L-19.196,2.321L-18.11,2.952L-19.192,3.576L-20.281,2.948ZM-20.281,1.491L-19.191,0.861L-18.102,1.49L-19.196,2.122L-20.281,1.491ZM-20.281,0.033L-19.191,-0.596L-18.101,0.033L-19.191,0.662L-20.281,0.033ZM-20.28,-1.424L-19.192,-2.052L-18.102,-1.424L-19.191,-0.795L-20.28,-1.424ZM-17.925,-2.784L-16.834,-2.156L-17.93,-1.523L-19.019,-2.152L-17.925,-2.784ZM-16.724,-3.477L-15.632,-2.85L-16.662,-2.255L-17.753,-2.883L-16.724,-3.477ZM-15.407,-4.238L-14.318,-3.609L-15.459,-2.95L-16.552,-3.577L-15.407,-4.238ZM-14.145,-4.967L-13.056,-4.338L-14.145,-3.709L-15.235,-4.337L-14.145,-4.967ZM-11.794,-3.609L-12.884,-2.98L-13.973,-3.609L-12.884,-4.238L-11.794,-3.609ZM-10.533,-2.881L-11.622,-2.252L-12.711,-2.881L-11.622,-3.51L-10.533,-2.881ZM-9.271,-2.153L-10.36,-1.524L-11.45,-2.153L-10.36,-2.782L-9.271,-2.153ZM-8.009,-1.424L-9.098,-0.795L-10.188,-1.424L-9.099,-2.053L-8.009,-1.424ZM-6.735,-0.689L-7.819,-0.057L-8.926,-0.696L-7.837,-1.325L-6.735,-0.689ZM-5.485,0.032L-6.574,0.661L-7.647,0.042L-6.563,-0.59L-5.485,0.032ZM-4.224,0.76L-5.313,1.389L-6.402,0.761L-5.313,0.132L-4.224,0.76ZM-2.962,1.489L-4.051,2.118L-5.141,1.489L-4.052,0.86L-2.962,1.489ZM-1.701,2.217L-2.79,2.846L-3.879,2.217L-2.79,1.588L-1.701,2.217ZM-1.7,3.674L-2.801,4.31L-3.895,3.683L-2.79,3.045L-1.7,3.674ZM-0.438,4.402L-1.535,5.036L-2.629,4.409L-1.527,3.773L-0.438,4.402ZM-0.443,5.861L-1.493,6.468L-2.584,5.841L-1.535,5.235L-0.443,5.861ZM0.824,6.588L-0.229,7.195L-1.321,6.567L-0.27,5.96L0.824,6.588ZM0.862,8.022L-0.266,8.673L-1.355,8.044L-0.229,7.394L0.862,8.022ZM0.824,9.501L-0.265,10.13L-1.355,9.501L-0.266,8.872L0.824,9.501ZM2.2,10.295L1.102,10.919L-0.093,10.229L0.996,9.6L2.2,10.295ZM2.2,11.752L1.101,12.376L0.004,11.742L1.102,11.118L2.2,11.752ZM-1.27,13.921L-0.243,13.337L0.852,13.973L-0.173,14.554L-1.27,13.921ZM-1.445,15.276L-2.542,14.643L-1.444,14.019L-0.347,14.653L-1.445,15.276ZM-1.272,15.376L-0.174,14.753L0.894,15.369L-0.202,15.993L-1.272,15.376ZM-2.546,16.098L-1.446,15.474L-0.376,16.092L-1.474,16.717L-2.546,16.098ZM-3.801,16.809L-2.72,16.196L-1.647,16.816L-2.73,17.432L-3.801,16.809ZM-5.082,17.536L-3.975,16.908L-2.903,17.531L-4.006,18.159L-5.082,17.536ZM-5.255,17.634L-4.179,18.258L-5.284,18.887L-6.365,18.263L-5.255,17.634ZM-6.519,16.902L-5.428,17.534L-6.538,18.164L-7.63,17.533L-6.519,16.902ZM-7.781,16.17L-6.691,16.802L-7.803,17.433L-8.894,16.804L-7.781,16.17ZM-9.079,15.418L-7.953,16.07L-9.067,16.704L-10.186,16.058L-9.079,15.418ZM-10.337,14.689L-9.25,15.319L-10.358,15.959L-11.448,15.33L-10.337,14.689ZM-11.596,13.959L-10.509,14.589L-11.62,15.231L-12.709,14.602L-11.596,13.959ZM-12.856,13.229L-11.768,13.859L-12.881,14.502L-13.972,13.873L-12.856,13.229ZM-13.028,13.129L-14.144,13.774L-15.233,13.145L-14.115,12.499L-13.028,13.129ZM-12.832,11.759L-11.747,12.39L-12.856,13.03L-13.943,12.4L-12.832,11.759ZM-14.09,11.027L-13.003,11.659L-14.115,12.301L-15.202,11.67L-14.09,11.027ZM-14.261,10.928L-15.374,11.57L-16.462,10.94L-15.347,10.296L-14.261,10.928ZM-14.144,9.602L-13.054,10.231L-14.089,10.828L-15.175,10.197L-14.144,9.602ZM-15.406,8.874L-14.316,9.503L-15.347,10.098L-16.432,9.466L-15.406,8.874ZM-15.578,8.774L-16.604,9.367L-17.69,8.735L-16.668,8.145L-15.578,8.774ZM-15.406,7.417L-14.316,8.046L-15.406,8.675L-16.495,8.046L-15.406,7.417ZM-16.668,6.689L-15.578,7.317L-16.668,7.947L-17.757,7.318L-16.668,6.689ZM-16.84,6.589L-17.929,7.218L-18.949,6.63L-17.865,5.998L-16.84,6.589ZM-16.609,5.266L-15.579,5.861L-16.668,6.49L-17.693,5.898L-16.609,5.266ZM-16.781,5.167L-17.865,5.799L-19.019,5.133L-17.93,4.504L-16.781,5.167ZM-16.681,3.782L-15.542,4.445L-16.609,5.067L-17.758,4.404L-16.681,3.782ZM-16.853,3.683L-17.93,4.305L-19.02,3.676L-17.939,3.052L-16.853,3.683ZM-16.668,2.318L-15.578,2.947L-16.681,3.583L-17.767,2.952L-16.668,2.318ZM-16.84,2.218L-17.938,2.853L-19.024,2.221L-17.929,1.589L-16.84,2.218ZM-16.668,0.861L-15.578,1.49L-16.668,2.119L-17.757,1.49L-16.668,0.861ZM-16.84,0.761L-17.93,1.391L-19.019,0.762L-17.929,0.133L-16.84,0.761ZM-16.668,-0.596L-15.579,0.033L-16.668,0.662L-17.757,0.033L-16.668,-0.596ZM-16.84,-0.695L-17.929,-0.066L-19.019,-0.695L-17.93,-1.324L-16.84,-0.695ZM-15.57,-1.429L-16.668,-0.795L-17.758,-1.424L-16.662,-2.057L-15.57,-1.429ZM-14.366,-2.124L-15.397,-1.528L-16.489,-2.156L-15.459,-2.751L-14.366,-2.124ZM-14.193,-2.224L-15.286,-2.851L-14.145,-3.51L-13.056,-2.881L-14.193,-2.224ZM-12.928,-1.498L-14.021,-2.125L-12.883,-2.781L-11.794,-2.153L-12.928,-1.498ZM-11.662,-0.772L-12.755,-1.399L-11.622,-2.053L-10.532,-1.424L-11.662,-0.772ZM-10.396,-0.046L-11.489,-0.673L-10.36,-1.325L-9.27,-0.696L-10.396,-0.046ZM-9.106,0.694L-10.223,0.053L-9.098,-0.596L-7.99,0.043L-9.106,0.694ZM-7.864,1.406L-8.934,0.793L-7.818,0.142L-6.747,0.761L-7.864,1.406ZM-6.599,2.132L-7.692,1.505L-6.574,0.86L-5.485,1.489L-6.599,2.132ZM-5.333,2.858L-6.426,2.231L-5.313,1.588L-4.224,2.217L-5.333,2.858ZM-5.16,2.957L-4.051,2.316L-2.962,2.945L-4.067,3.584L-5.16,2.957ZM-5.285,4.287L-6.377,3.659L-5.333,3.057L-4.24,3.683L-5.285,4.287ZM-4.021,5.014L-5.113,4.386L-4.067,3.783L-2.974,4.41L-4.021,5.014ZM-3.849,5.114L-2.801,4.509L-1.708,5.136L-2.757,5.742L-3.849,5.114ZM-4.05,6.489L-5.14,5.86L-4.021,5.213L-2.929,5.841L-4.05,6.489ZM-2.789,7.217L-3.878,6.588L-2.757,5.94L-1.666,6.568L-2.789,7.217ZM-2.617,7.316L-1.493,6.667L-0.401,7.295L-1.527,7.945L-2.617,7.316ZM-2.788,8.674L-3.878,8.044L-2.789,7.415L-1.699,8.045L-2.788,8.674ZM-2.616,8.773L-1.527,8.144L-0.438,8.773L-1.527,9.402L-2.616,8.773ZM-2.789,10.13L-3.878,9.502L-2.788,8.872L-1.699,9.501L-2.789,10.13ZM-1.527,10.859L-2.616,10.23L-1.527,9.6L-0.437,10.229L-1.527,10.859ZM-1.355,10.958L-0.265,10.329L0.929,11.018L-0.169,11.642L-1.355,10.958ZM-1.507,12.403L-2.678,11.722L-1.527,11.057L-0.342,11.741L-1.507,12.403ZM-1.335,12.503L-0.17,11.841L0.928,12.474L-0.242,13.139L-1.335,12.503ZM-2.539,13.189L-1.508,12.602L-0.415,13.237L-1.443,13.821L-2.539,13.189ZM-3.81,13.911L-2.712,13.287L-1.617,13.92L-2.715,14.543L-3.81,13.911ZM-3.987,15.266L-5.081,14.635L-3.983,14.01L-2.888,14.642L-3.987,15.266ZM-3.814,15.366L-2.715,14.742L-1.619,15.374L-2.719,15.998L-3.814,15.366ZM-5.064,16.075L-3.988,15.464L-2.893,16.097L-3.973,16.709L-5.064,16.075ZM-5.237,16.174L-4.147,16.808L-5.254,17.436L-6.345,16.803L-5.237,16.174ZM-6.498,15.441L-5.409,16.074L-6.518,16.703L-7.608,16.072L-6.498,15.441ZM-7.803,14.682L-6.67,15.341L-7.78,15.972L-8.907,15.319L-7.803,14.682ZM-9.06,13.951L-7.975,14.582L-9.078,15.219L-10.165,14.589L-9.06,13.951ZM-10.317,13.22L-9.232,13.852L-10.337,14.49L-11.424,13.86L-10.317,13.22ZM-10.489,13.121L-11.596,13.76L-12.684,13.13L-11.575,12.489L-10.489,13.121ZM-10.359,11.787L-9.269,12.416L-10.317,13.021L-11.403,12.39L-10.359,11.787ZM-11.62,11.059L-10.531,11.687L-11.575,12.29L-12.66,11.659L-11.62,11.059ZM-11.792,10.959L-12.832,11.56L-13.918,10.928L-12.882,10.33L-11.792,10.959ZM-11.621,9.602L-10.531,10.231L-11.62,10.86L-12.71,10.231L-11.621,9.602ZM-12.883,8.873L-11.793,9.502L-12.882,10.132L-13.972,9.502L-12.883,8.873ZM-13.055,8.774L-14.144,9.403L-15.234,8.774L-14.144,8.145L-13.055,8.774ZM-12.883,7.417L-11.793,8.046L-12.883,8.675L-13.972,8.046L-12.883,7.417ZM-14.145,6.688L-13.055,7.317L-14.144,7.946L-15.234,7.317L-14.145,6.688ZM-14.317,6.589L-15.406,7.218L-16.496,6.589L-15.406,5.96L-14.317,6.589ZM-14.166,5.244L-13.081,5.875L-14.145,6.49L-15.234,5.861L-14.166,5.244ZM-14.338,5.144L-15.406,5.761L-16.438,5.166L-15.371,4.544L-14.338,5.144ZM-14.097,3.802L-13.055,4.403L-14.166,5.045L-15.2,4.444L-14.097,3.802ZM-14.269,3.703L-15.371,4.345L-16.509,3.683L-15.406,3.046L-14.269,3.703ZM-14.144,2.317L-13.013,2.97L-14.097,3.603L-15.234,2.947L-14.144,2.317ZM-14.316,2.218L-15.406,2.847L-16.496,2.218L-15.406,1.589L-14.316,2.218ZM-14.145,0.861L-13.055,1.49L-14.144,2.119L-15.234,1.49L-14.145,0.861ZM-14.317,0.761L-15.406,1.39L-16.495,0.761L-15.407,0.132L-14.317,0.761ZM-14.134,-0.603L-13.042,0.025L-14.145,0.662L-15.234,0.033L-14.134,-0.603ZM-14.306,-0.702L-15.407,-0.066L-16.496,-0.695L-15.397,-1.33L-14.306,-0.702ZM-14.134,-0.802L-15.225,-1.429L-14.193,-2.025L-13.1,-1.398L-14.134,-0.802ZM-12.87,-0.075L-13.961,-0.702L-12.927,-1.299L-11.834,-0.672L-12.87,-0.075ZM-11.605,0.653L-12.697,0.025L-11.662,-0.573L-10.568,0.054L-11.605,0.653ZM-10.312,1.396L-11.433,0.752L-10.396,0.153L-9.278,0.794L-10.312,1.396ZM-9.077,2.107L-10.14,1.495L-9.106,0.893L-8.037,1.506L-9.077,2.107ZM-7.814,2.833L-8.905,2.206L-7.864,1.605L-6.771,2.231L-7.814,2.833ZM-7.641,2.933L-6.599,2.331L-5.506,2.957L-6.549,3.56L-7.641,2.933ZM-7.836,4.303L-8.926,3.674L-7.813,3.032L-6.722,3.66L-7.836,4.303ZM-6.574,5.032L-7.664,4.403L-6.549,3.759L-5.458,4.387L-6.574,5.032ZM-6.402,5.131L-5.285,4.486L-4.193,5.114L-5.312,5.76L-6.402,5.131ZM-6.574,6.489L-7.664,5.859L-6.574,5.23L-5.485,5.86L-6.574,6.489ZM-5.312,7.217L-6.402,6.588L-5.312,5.959L-4.223,6.588L-5.312,7.217ZM-5.14,7.316L-4.05,6.687L-2.961,7.316L-4.051,7.945L-5.14,7.316ZM-5.312,8.674L-6.401,8.045L-5.312,7.416L-4.223,8.044L-5.312,8.674ZM-5.14,8.773L-4.051,8.144L-2.96,8.773L-4.05,9.402L-5.14,8.773ZM-5.364,10.161L-6.451,9.53L-5.312,8.872L-4.222,9.502L-5.364,10.161ZM-4.107,10.892L-5.193,10.261L-4.05,9.601L-2.961,10.23L-4.107,10.892ZM-3.936,10.992L-2.789,10.329L-1.699,10.958L-2.85,11.623L-3.936,10.992ZM-4.051,12.316L-5.14,11.687L-4.107,11.091L-3.022,11.722L-4.051,12.316ZM-3.879,12.415L-2.85,11.821L-1.68,12.502L-2.712,13.089L-3.879,12.415ZM-5.14,13.144L-4.051,12.515L-2.885,13.188L-3.982,13.812L-5.14,13.144ZM-6.402,13.872L-5.312,13.243L-4.156,13.91L-5.254,14.535L-6.402,13.872ZM-7.835,13.244L-6.746,13.872L-7.803,14.483L-8.889,13.852L-7.835,13.244ZM-8.007,13.144L-9.06,13.752L-10.146,13.121L-9.097,12.515L-8.007,13.144ZM-7.835,11.787L-6.745,12.415L-7.835,13.045L-8.925,12.416L-7.835,11.787ZM-9.097,11.058L-8.007,11.687L-9.097,12.317L-10.187,11.687L-9.097,11.058ZM-9.269,10.959L-10.359,11.588L-11.448,10.959L-10.358,10.33L-9.269,10.959ZM-9.097,9.602L-8.008,10.231L-9.097,10.859L-10.186,10.231L-9.097,9.602ZM-10.359,8.873L-9.269,9.503L-10.359,10.131L-11.449,9.502L-10.359,8.873ZM-10.531,8.774L-11.621,9.403L-12.71,8.774L-11.621,8.145L-10.531,8.774ZM-10.394,7.437L-9.308,8.068L-10.359,8.675L-11.449,8.046L-10.394,7.437ZM-11.652,6.706L-10.566,7.337L-11.621,7.946L-12.711,7.317L-11.652,6.706ZM-11.823,6.606L-12.883,7.218L-13.973,6.589L-12.909,5.975L-11.823,6.606ZM-11.621,5.231L-10.531,5.86L-11.652,6.507L-12.737,5.876L-11.621,5.231ZM-11.793,5.131L-12.909,5.776L-13.994,5.145L-12.882,4.503L-11.793,5.131ZM-11.62,3.774L-10.531,4.403L-11.621,5.032L-12.71,4.403L-11.62,3.774ZM-11.793,3.675L-12.882,4.304L-13.925,3.702L-12.841,3.07L-11.793,3.675ZM-11.586,2.338L-10.532,2.946L-11.621,3.575L-12.669,2.97L-11.586,2.338ZM-11.757,2.239L-12.841,2.871L-13.972,2.218L-12.883,1.589L-11.757,2.239ZM-10.359,2.847L-11.414,2.238L-10.311,1.595L-9.25,2.206L-10.359,2.847ZM-10.187,2.946L-9.077,2.305L-7.986,2.933L-9.098,3.575L-10.187,2.946ZM-10.359,4.303L-11.448,3.675L-10.359,3.046L-9.27,3.675L-10.359,4.303ZM-9.097,5.032L-10.187,4.403L-9.098,3.774L-8.008,4.403L-9.097,5.032ZM-8.925,5.131L-7.836,4.502L-6.747,5.131L-7.836,5.76L-8.925,5.131ZM-10.359,5.76L-11.449,5.131L-10.359,4.502L-9.269,5.131L-10.359,5.76ZM-9.097,6.489L-10.187,5.86L-9.097,5.23L-8.008,5.859L-9.097,6.489ZM-7.835,7.217L-8.925,6.588L-7.836,5.959L-6.746,6.588L-7.835,7.217ZM-7.663,7.317L-6.574,6.687L-5.484,7.316L-6.573,7.946L-7.663,7.317ZM-10.394,7.238L-11.48,6.606L-10.359,5.959L-9.27,6.588L-10.394,7.238ZM-9.097,6.687L-8.008,7.317L-9.137,7.969L-10.223,7.337L-9.097,6.687ZM-7.879,8.7L-8.965,8.068L-7.835,7.416L-6.746,8.045L-7.879,8.7ZM-7.707,8.799L-6.573,8.144L-5.484,8.773L-6.622,9.43L-7.707,8.799ZM-9.097,9.403L-10.187,8.774L-9.137,8.167L-8.051,8.799L-9.097,9.403ZM-7.836,10.131L-8.925,9.502L-7.879,8.898L-6.794,9.529L-7.836,10.131ZM-6.574,10.86L-7.664,10.23L-6.622,9.629L-5.536,10.26L-6.574,10.86ZM-6.402,10.959L-5.364,10.36L-4.279,10.991L-5.312,11.588L-6.402,10.959ZM-7.835,11.588L-8.925,10.959L-7.836,10.33L-6.746,10.959L-7.835,11.588ZM-6.573,12.316L-7.663,11.687L-6.574,11.058L-5.484,11.687L-6.573,12.316ZM-5.484,13.144L-6.574,13.773L-7.663,13.144L-6.573,12.515L-5.484,13.144ZM-6.401,12.415L-5.312,11.787L-4.223,12.415L-5.312,13.044L-6.401,12.415ZM-12.883,1.39L-13.973,0.761L-12.87,0.124L-11.778,0.752L-12.883,1.39ZM-11.605,0.851L-10.484,1.496L-11.586,2.139L-12.711,1.49L-11.605,0.851ZM-5.255,14.733L-4.161,15.365L-5.236,15.975L-6.325,15.342L-5.255,14.733ZM-6.497,15.242L-7.632,14.583L-6.574,13.972L-5.427,14.633L-6.497,15.242ZM2.2,13.209L1.025,13.875L-0.069,13.239L1.101,12.574L2.2,13.209ZM1.197,13.975L2.547,13.21L1.274,12.476L2.546,11.753L1.275,11.019L2.546,10.296L1.168,9.501L2.301,8.847L2.215,8.698L0.996,9.401L-0.093,8.772L1.207,8.021L-0.056,7.295L1.169,6.587L-0.097,5.861L1.039,5.205L0.953,5.056L-0.27,5.762L-1.363,5.135L-0.093,4.402L-1.355,3.674L-0.223,3.02L-0.309,2.871L-1.527,3.575L-2.617,2.945L-1.356,2.217L-2.618,1.489L-1.485,0.835L-1.571,0.685L-2.79,1.389L-3.88,0.76L-2.747,0.106L-2.833,-0.043L-4.052,0.661L-5.141,0.032L-4.008,-0.622L-4.094,-0.771L-5.313,-0.067L-6.392,-0.689L-4.008,-2.079L-4.095,-2.228L-6.563,-0.789L-7.664,-1.424L-5.27,-2.807L-5.356,-2.956L-7.837,-1.524L-8.927,-2.153L-6.532,-3.535L-6.618,-3.685L-9.099,-2.252L-10.188,-2.881L-7.794,-4.264L-7.88,-4.413L-10.361,-2.981L-11.45,-3.609L-9.056,-4.992L-9.142,-5.141L-11.622,-3.709L-12.712,-4.338L-10.318,-5.72L-10.404,-5.869L-12.884,-4.437L-13.973,-5.066L-10.318,-7.177L-10.404,-7.326L-14.146,-5.165L-16.499,-6.524L-16.585,-6.375L-14.318,-5.066L-15.407,-4.437L-17.887,-5.868L-17.973,-5.719L-15.579,-4.337L-16.725,-3.676L-19.111,-5.044L-19.196,-4.895L-16.897,-3.576L-17.925,-2.982L-20.411,-4.412L-20.497,-4.262L-18.098,-2.883L-19.192,-2.251L-20.41,-2.954L-20.496,-2.805L-19.364,-2.152L-21.758,-0.769L-21.672,-0.62L-20.452,-1.324L-19.363,-0.695L-20.625,0.033L-19.363,0.762L-20.624,1.49L-19.368,2.221L-20.626,2.948L-19.364,3.676L-20.626,4.404L-19.364,5.133L-20.625,5.861L-19.292,6.631L-20.471,7.318L-19.29,8.004L-20.495,8.7L-20.409,8.849L-19.119,8.104L-18.033,8.735L-19.195,9.406L-19.324,9.48L-18.064,10.21L-19.234,10.885L-19.147,11.034L-17.893,10.31L-16.805,10.94L-18.101,11.688L-16.84,12.417L-17.972,13.07L-17.886,13.219L-16.667,12.516L-15.577,13.145L-16.838,13.874L-15.577,14.602L-16.71,15.256L-16.624,15.405L-15.405,14.701L-14.315,15.33L-15.447,15.984L-15.361,16.133L-14.143,15.429L-13.053,16.058L-14.186,16.713L-14.1,16.861L-12.881,16.158L-11.792,16.786L-14.186,18.169L-14.1,18.318L-11.62,16.886L-10.511,17.526L-12.923,18.897L-12.838,19.047L-10.339,17.625L-9.249,18.254L-11.642,19.614L-11.557,19.764L-9.076,18.354L-7.985,18.984L-10.401,20.354L-10.316,20.504L-7.812,19.084L-6.728,19.709L-9.138,21.082L-9.053,21.232L-6.555,19.809L-5.456,20.444L-7.841,21.831L-7.755,21.98L-5.284,20.543L-2.794,21.98L-2.708,21.831L-5.112,20.443L-4.027,19.812L-1.568,21.231L-1.482,21.082L-3.855,19.712L-2.765,19.078L-0.307,20.502L-0.221,20.353L-2.593,18.978L-1.504,18.344L0.993,19.796L1.079,19.647L-1.332,18.245L-0.256,17.619L2.215,19.045L2.301,18.896L-0.084,17.519L1.002,16.887L2.216,17.588L2.302,17.439L1.174,16.787L2.301,16.131L2.43,16.056L1.24,15.37L2.431,14.692L1.197,13.975Z" style="fill:rgb(65,65,65);fill-rule:nonzero;"/>
            </g>
        </g>
    </g>
</svg>
